<?xml version="1.0" encoding="utf-8"?>
<!-- Generator: Adobe Illustrator 18.0.0, SVG Export Plug-In . SVG Version: 6.00 Build 0)  -->
<!DOCTYPE svg PUBLIC "-//W3C//DTD SVG 1.1//EN" "http://www.w3.org/Graphics/SVG/1.1/DTD/svg11.dtd">
<svg version="1.1" id="Layer_1" xmlns="http://www.w3.org/2000/svg" xmlns:xlink="http://www.w3.org/1999/xlink" x="0px" y="0px"
	 viewBox="0 0 150 600" enable-background="new 0 0 150 600" xml:space="preserve">
<g>
	<defs>
		<path id="SVGID_1_" d="M75.6,51.3v-0.1c-0.3,0-0.5,0-0.8,0.1c-0.3,0-0.5-0.1-0.8-0.1v0.1C1.3,56.3,13.8,299.7,13.8,299.7
			s4.8,120.6,7.9,171.3c3.2,50.7,17.4,80.8,25.3,101.4c6.6,17.2,22,23.1,26.9,24.5v0.4c0,0,0.3-0.1,0.8-0.2c0.5,0.1,0.8,0.2,0.8,0.2
			v-0.4c4.9-1.5,20.3-7.4,26.9-24.5c7.9-20.6,22.2-50.7,25.3-101.4c3.2-50.7,7.9-171.3,7.9-171.3S148.3,56.3,75.6,51.3"/>
	</defs>
	<use xlink:href="#SVGID_1_"  overflow="visible" fill-rule="evenodd" clip-rule="evenodd" fill="#FFF200"/>
	<clipPath id="SVGID_2_">
		<use xlink:href="#SVGID_1_"  overflow="visible"/>
	</clipPath>
	<g clip-path="url(#SVGID_2_)">
		<defs>
			<rect id="SVGID_3_" x="-479.8" y="-2724.6" width="1440" height="7605"/>
		</defs>
		<use xlink:href="#SVGID_3_"  overflow="visible" fill="#FFF200"/>
		<clipPath id="SVGID_4_">
			<use xlink:href="#SVGID_3_"  overflow="visible"/>
		</clipPath>
		<rect x="8" y="46.2" clip-path="url(#SVGID_4_)" fill="#FFF200" width="133.6" height="556.1"/>
	</g>
</g>
</svg>
