<?xml version="1.0" encoding="utf-8"?>
<!-- Generator: Adobe Illustrator 18.0.0, SVG Export Plug-In . SVG Version: 6.00 Build 0)  -->
<!DOCTYPE svg PUBLIC "-//W3C//DTD SVG 1.1//EN" "http://www.w3.org/Graphics/SVG/1.1/DTD/svg11.dtd">
<svg version="1.1" id="Layer_1" xmlns="http://www.w3.org/2000/svg" xmlns:xlink="http://www.w3.org/1999/xlink" x="0px" y="0px"
	 viewBox="0 0 730.7 174.7" enable-background="new 0 0 730.7 174.7" xml:space="preserve">
<path fill="#FFFFFF" stroke="#231F20" stroke-width="0.5" stroke-miterlimit="10" d="M725.3,88.3h0.2c0-0.4-0.1-0.7-0.1-1.1
	c0-0.4,0.1-0.7,0.1-1.1h-0.2C718.6-10.2,397.7,6.3,397.7,6.3s-159,6.3-225.8,10.5C105,21.1,65.3,40,38.2,50.5
	C15.5,59.3,7.8,79.7,5.8,86.2H5.3c0,0,0.1,0.4,0.3,1.1c-0.2,0.7-0.3,1.1-0.3,1.1h0.6c2,6.5,9.7,27,32.4,35.7
	c27.2,10.5,66.8,29.4,133.7,33.6c66.8,4.2,225.8,10.5,225.8,10.5S718.6,184.8,725.3,88.3z"/>
<g>
	<defs>
		<path id="SVGID_1_" d="M725.3,88.3h0.2c0-0.4-0.1-0.7-0.1-1.1c0-0.4,0.1-0.7,0.1-1.1h-0.2C718.6-10.2,397.7,6.3,397.7,6.3
			s-159,6.3-225.8,10.5S65.3,40,38.2,50.5C15.5,59.3,7.8,79.7,5.8,86.2H5.3c0,0,0.1,0.4,0.3,1.1c-0.2,0.7-0.3,1.1-0.3,1.1h0.6
			c2,6.5,9.7,27,32.4,35.7c27.2,10.5,66.8,29.4,133.7,33.6s225.8,10.5,225.8,10.5S718.6,184.8,725.3,88.3"/>
	</defs>
	<clipPath id="SVGID_2_">
		<use xlink:href="#SVGID_1_"  overflow="visible"/>
	</clipPath>
	<rect x="0" y="0" clip-path="url(#SVGID_2_)" fill="#FFFFFF" width="730.7" height="174.5"/>
</g>
<line fill="none" stroke="#F7E613" stroke-width="4" stroke-linecap="square" stroke-miterlimit="10" x1="725" y1="87.4" x2="6.7" y2="87.4"/>
<g>
	<defs>
		<polygon id="SVGID_3_" points="424.9,168.4 364.4,166.1 157.5,19.1 164.4,17.7 233.2,14 		"/>
	</defs>
	<clipPath id="SVGID_4_">
		<use xlink:href="#SVGID_3_"  overflow="visible"/>
	</clipPath>
	<rect x="152.3" y="8.7" clip-path="url(#SVGID_4_)" fill="#85C441" width="277.9" height="164.9"/>
</g>
<g>
	<defs>
		<path id="SVGID_5_" d="M316.7,165.2l-46.8-2.8L80,34.5c0,0,26.9-10.8,39.8-10.8C132.6,23.7,316.7,165.2,316.7,165.2z"/>
	</defs>
	<clipPath id="SVGID_6_">
		<use xlink:href="#SVGID_5_"  overflow="visible"/>
	</clipPath>
	<rect x="74.8" y="18.5" clip-path="url(#SVGID_6_)" fill="#85C441" width="247.2" height="153"/>
</g>
<g>
	<defs>
		<path id="SVGID_7_" d="M218.5,160.7l-61-4.1L27.3,57.4c0,0,19.7-12.9,29.4-12.9S218.5,160.7,218.5,160.7z"/>
	</defs>
	<clipPath id="SVGID_8_">
		<use xlink:href="#SVGID_7_"  overflow="visible"/>
	</clipPath>
	<rect x="22" y="39.2" clip-path="url(#SVGID_8_)" fill="#85C441" width="201.8" height="126.7"/>
</g>
<path fill="none" stroke="#4B4B4B" stroke-width="2" stroke-miterlimit="10" d="M725.3,88.3h0.2c0-0.4-0.1-0.7-0.1-1.1
	c0-0.4,0.1-0.7,0.1-1.1h-0.2C718.6-10.2,397.7,6.3,397.7,6.3s-159,6.3-225.8,10.5C105,21.1,65.3,40,38.2,50.5
	C15.5,59.3,7.8,79.7,5.8,86.2H5.3c0,0,0.1,0.4,0.3,1.1c-0.2,0.7-0.3,1.1-0.3,1.1h0.6c2,6.5,9.7,27,32.4,35.7
	c27.2,10.5,66.8,29.4,133.7,33.6c66.8,4.2,225.8,10.5,225.8,10.5S718.6,184.8,725.3,88.3"/>
</svg>
