<?xml version="1.0" encoding="utf-8"?>
<!-- Generator: Adobe Illustrator 18.0.0, SVG Export Plug-In . SVG Version: 6.00 Build 0)  -->
<!DOCTYPE svg PUBLIC "-//W3C//DTD SVG 1.1//EN" "http://www.w3.org/Graphics/SVG/1.1/DTD/svg11.dtd">
<svg version="1.1" id="Layer_1" xmlns="http://www.w3.org/2000/svg" xmlns:xlink="http://www.w3.org/1999/xlink" x="0px" y="0px"
	 viewBox="0 0 150 600" enable-background="new 0 0 150 600" xml:space="preserve">
<g>
	<defs>
		<path id="SVGID_1_" d="M75.4,138.6c-0.1,0.2-0.3,0.4-0.4,0.5c-0.1-0.2-0.3-0.4-0.4-0.5v1c-59.6,75-55.9,245-40.1,360.1
			c10,73,35.3,95.1,40.1,98.7v0.6c0,0,0.1-0.1,0.4-0.3c0.3,0.2,0.4,0.3,0.4,0.3v-0.6c4.8-3.6,30.1-25.7,40.1-98.7
			c15.8-115.1,19.5-285.1-40.1-360.1V138.6z"/>
	</defs>
	<use xlink:href="#SVGID_1_"  overflow="visible" fill-rule="evenodd" clip-rule="evenodd" fill="#FFF200"/>
	<clipPath id="SVGID_2_">
		<use xlink:href="#SVGID_1_"  overflow="visible"/>
	</clipPath>
	<g clip-path="url(#SVGID_2_)">
		<defs>
			<rect id="SVGID_3_" x="-166.1" y="-2722.7" width="1440" height="7605"/>
		</defs>
		<use xlink:href="#SVGID_3_"  overflow="visible" fill="#FFF200"/>
		<clipPath id="SVGID_4_">
			<use xlink:href="#SVGID_3_"  overflow="visible"/>
		</clipPath>
		<rect x="19.5" y="133.6" clip-path="url(#SVGID_4_)" fill="#FFF200" width="111" height="470.4"/>
	</g>
</g>
</svg>
