<?xml version="1.0" encoding="utf-8"?>
<!-- Generator: Adobe Illustrator 18.0.0, SVG Export Plug-In . SVG Version: 6.00 Build 0)  -->
<!DOCTYPE svg PUBLIC "-//W3C//DTD SVG 1.1//EN" "http://www.w3.org/Graphics/SVG/1.1/DTD/svg11.dtd">
<svg version="1.1" id="Layer_1" xmlns="http://www.w3.org/2000/svg" xmlns:xlink="http://www.w3.org/1999/xlink" x="0px" y="0px"
	 viewBox="0 0 50 50" enable-background="new 0 0 50 50" xml:space="preserve">
<g>
	<path fill="#FFFFFF" d="M9.6,0.8c-4.8,0-8.7,13.3-8.7,29.7c0,6.9,0.7,13.3,1.8,18.5h13.8c0.2-0.9,0.4-1.9,0.6-3
		c0.8-4.5,1.2-9.8,1.2-15.5C18.4,14.1,14.4,0.8,9.6,0.8z"/>
	<path fill="#FFFFFF" d="M45.8,3.4c-5.2,0.9-15.3,10.9-24.1,24c-0.1,0.1-0.2,0.4-0.4,0.4c0,0.9,0,1.8,0,2.6c0,2.8-0.1,5.8-0.4,8.5
		L45.8,3.4z"/>
	<path fill="#FFFFFF" d="M48.7,4.6L20.3,45.9c0,0.2-0.1,0.5-0.1,0.7c0,0.2-0.1,0.5-0.1,0.7l4.7,1.7c4.1-4.2,8.5-9.7,12.8-15.9
		C45.9,20.2,50.5,8.6,48.7,4.6z"/>
</g>
</svg>
