<?xml version="1.0" encoding="utf-8"?>
<!-- Generator: Adobe Illustrator 18.0.0, SVG Export Plug-In . SVG Version: 6.00 Build 0)  -->
<!DOCTYPE svg PUBLIC "-//W3C//DTD SVG 1.1//EN" "http://www.w3.org/Graphics/SVG/1.1/DTD/svg11.dtd">
<svg version="1.1" id="Layer_1" xmlns="http://www.w3.org/2000/svg" xmlns:xlink="http://www.w3.org/1999/xlink" x="0px" y="0px"
	 viewBox="0 0 50 50" enable-background="new 0 0 50 50" xml:space="preserve">
<g transform="translate(0,-952.36218)">
	<path fill="#FFFFFF" d="M24,953.2L2.8,969.1c-0.4,0.3-0.6,0.8-0.6,1.3v29.7c0,0.8,0.8,1.6,1.6,1.6h14.3c0.8,0,1.6-0.8,1.6-1.6
		v-13.3c0-3,2.3-5.3,5.3-5.3s5.3,2.3,5.3,5.3v13.3c0,0.8,0.8,1.6,1.6,1.6h14.3c0.8,0,1.6-0.8,1.6-1.6v-29.7c0-0.5-0.2-1-0.6-1.3
		L26,953.2C25.3,952.7,24.7,952.8,24,953.2z M25,956.4l19.6,14.7v27.3H33.5v-11.7c0-4.7-3.8-8.5-8.5-8.5s-8.5,3.8-8.5,8.5v11.7H5.4
		v-27.3L25,956.4z"/>
</g>
</svg>
