<?xml version="1.0" encoding="utf-8"?>
<!-- Generator: Adobe Illustrator 18.0.0, SVG Export Plug-In . SVG Version: 6.00 Build 0)  -->
<!DOCTYPE svg PUBLIC "-//W3C//DTD SVG 1.1//EN" "http://www.w3.org/Graphics/SVG/1.1/DTD/svg11.dtd">
<svg version="1.1" id="Layer_1" xmlns="http://www.w3.org/2000/svg" xmlns:xlink="http://www.w3.org/1999/xlink" x="0px" y="0px"
	 viewBox="0 0 50 50" enable-background="new 0 0 50 50" xml:space="preserve">
<g>
	<g>
		<path fill="#FFFFFF" d="M1.5,42.6c0.2-0.6,0.8-0.8,1.4-0.6c1.1,0.4,2.5,0.4,3.7,0l0,0c1.7-0.7,3.6-0.7,5.3,0l0,0
			c1.1,0.4,2.5,0.4,3.7,0l0,0c1.7-0.7,3.6-0.7,5.3,0c0.6,0.2,0.8,0.8,0.6,1.4c-0.2,0.4-0.6,0.7-1.1,0.7c-0.1,0-0.3,0-0.4-0.1
			c-1.1-0.4-2.5-0.4-3.7,0l0,0c-0.8,0.4-1.8,0.5-2.6,0.5c-0.9,0-1.8-0.2-2.6-0.5l0,0c-1.1-0.4-2.5-0.4-3.7,0l0,0
			c-0.8,0.4-1.8,0.5-2.6,0.5c-0.9,0-1.8-0.2-2.6-0.5C1.6,43.8,1.3,43.2,1.5,42.6z M20.9,45.9c-1.7-0.7-3.6-0.7-5.3,0l0,0
			c-1.1,0.4-2.5,0.4-3.7,0l0,0c-1.7-0.7-3.6-0.7-5.3,0l0,0c-1.1,0.4-2.5,0.4-3.7,0c-0.6-0.2-1.1,0.1-1.4,0.6C1.3,47,1.6,47.6,2,47.8
			c0.8,0.4,1.8,0.5,2.6,0.5c0.9,0,1.8-0.2,2.6-0.5l0,0c1.1-0.4,2.5-0.4,3.7,0l0,0c0.8,0.4,1.8,0.5,2.6,0.5c0.8,0,1.8-0.2,2.6-0.5
			l0,0c1.1-0.4,2.5-0.4,3.7,0c0.1,0.1,0.3,0.1,0.4,0.1c0.4,0,0.8-0.3,1.1-0.7C21.7,46.7,21.4,46.1,20.9,45.9z M20.9,34.3
			c-1.7-0.7-3.6-0.7-5.3,0l0,0c-1.1,0.4-2.5,0.4-3.7,0l0,0c-1.7-0.7-3.6-0.7-5.3,0l0,0c-1.1,0.4-2.5,0.4-3.7,0
			c-0.6-0.2-1.1,0.1-1.4,0.6C1.3,35.5,1.6,36,2,36.3c0.8,0.4,1.8,0.5,2.6,0.5c0.9,0,1.8-0.2,2.6-0.5l0,0c1.1-0.4,2.5-0.4,3.7,0l0,0
			c0.8,0.4,1.8,0.5,2.6,0.5c0.8,0,1.8-0.2,2.6-0.5l0,0c1.1-0.4,2.5-0.4,3.7,0c0.1,0.1,0.3,0.1,0.4,0.1c0.4,0,0.8-0.3,1.1-0.7
			C21.7,35.3,21.4,34.6,20.9,34.3z M20.9,38.2c-1.7-0.7-3.6-0.7-5.3,0c-1.1,0.4-2.5,0.4-3.7,0l0,0c-1.7-0.7-3.6-0.7-5.3,0
			c-1.1,0.4-2.5,0.4-3.7,0c-0.6-0.2-1.1,0.1-1.4,0.6c-0.2,0.6,0.1,1.1,0.6,1.4c0.8,0.4,1.8,0.5,2.6,0.5c0.9,0,1.8-0.2,2.6-0.5
			c1.1-0.4,2.5-0.4,3.7,0l0,0c0.8,0.4,1.8,0.5,2.6,0.5c0.8,0,1.8-0.2,2.6-0.5c1.1-0.4,2.5-0.4,3.7,0c0.1,0.1,0.3,0.1,0.4,0.1
			c0.4,0,0.8-0.3,1.1-0.7C21.7,39.1,21.4,38.4,20.9,38.2z M34.6,20.4L34.6,20.4L34.6,20.4L34.6,20.4z M21.7,2.4
			c-0.4,0.1-0.8,0.3-1.1,0.4C21,2.6,21.3,2.4,21.7,2.4z M16.9,4.1C17.2,4,17.6,3.8,18,3.7C17.6,3.8,17.2,4,16.9,4.1z M34.7,17.1
			c-2.9-0.1-5.8,0.3-8.7,1.2l11,30.1l-2.2,0.8l-11-30.1c-2.7,1.1-5.2,2.7-7.3,4.6l0,0l0,0c-2.7-0.3-5.5-0.2-8.3,0.5
			c-2.8,0.6-5.3,1.8-7.7,3.2C0.9,17.3,7.1,8.2,16.8,4.2l0,0c0,0,0.1,0,0.1-0.1l0,0c0.4-0.2,0.9-0.4,1.4-0.5l-0.4-1l2-0.7l0.4,1
			c0.4-0.2,1-0.4,1.4-0.5l0,0h0.1l0,0c10-3.2,20.7-0.1,27.6,7.3c-2.7,0.4-5.3,1.2-7.9,2.5C38.8,13.5,36.6,15.2,34.7,17.1L34.7,17.1z
			 M24.9,18.7L24.9,18.7L24.9,18.7L24.9,18.7z M32.8,15.9C29.5,8.5,25.4,3.6,21.9,3.6c-0.8,0.3-1.5,0.5-2.2,0.8l-0.1,0.1
			c-0.7,0.3-1.5,0.5-2.2,0.8c-2.2,1.8-3,7.5-0.4,16.4c2.2-1.8,4.7-3.2,7.4-4.1C27.2,16.5,30,16,32.8,15.9z"/>
	</g>
	<g>
		<path fill="#FFFFFF" d="M1.5,42.6c0.2-0.6,0.8-0.8,1.4-0.6c1.1,0.4,2.5,0.4,3.7,0l0,0c1.7-0.7,3.6-0.7,5.3,0l0,0
			c1.1,0.4,2.5,0.4,3.7,0l0,0c1.7-0.7,3.6-0.7,5.3,0c0.6,0.2,0.8,0.8,0.6,1.4c-0.2,0.4-0.6,0.7-1.1,0.7c-0.1,0-0.3,0-0.4-0.1
			c-1.1-0.4-2.5-0.4-3.7,0l0,0c-0.8,0.4-1.8,0.5-2.6,0.5c-0.9,0-1.8-0.2-2.6-0.5l0,0c-1.1-0.4-2.5-0.4-3.7,0l0,0
			c-0.8,0.4-1.8,0.5-2.6,0.5c-0.9,0-1.8-0.2-2.6-0.5C1.6,43.8,1.3,43.2,1.5,42.6z M20.9,45.9c-1.7-0.7-3.6-0.7-5.3,0l0,0
			c-1.1,0.4-2.5,0.4-3.7,0l0,0c-1.7-0.7-3.6-0.7-5.3,0l0,0c-1.1,0.4-2.5,0.4-3.7,0c-0.6-0.2-1.1,0.1-1.4,0.6C1.3,47,1.6,47.6,2,47.8
			c0.8,0.4,1.8,0.5,2.6,0.5c0.9,0,1.8-0.2,2.6-0.5l0,0c1.1-0.4,2.5-0.4,3.7,0l0,0c0.8,0.4,1.8,0.5,2.6,0.5c0.8,0,1.8-0.2,2.6-0.5
			l0,0c1.1-0.4,2.5-0.4,3.7,0c0.1,0.1,0.3,0.1,0.4,0.1c0.4,0,0.8-0.3,1.1-0.7C21.7,46.7,21.4,46.1,20.9,45.9z M20.9,34.3
			c-1.7-0.7-3.6-0.7-5.3,0l0,0c-1.1,0.4-2.5,0.4-3.7,0l0,0c-1.7-0.7-3.6-0.7-5.3,0l0,0c-1.1,0.4-2.5,0.4-3.7,0
			c-0.6-0.2-1.1,0.1-1.4,0.6C1.3,35.5,1.6,36,2,36.3c0.8,0.4,1.8,0.5,2.6,0.5c0.9,0,1.8-0.2,2.6-0.5l0,0c1.1-0.4,2.5-0.4,3.7,0l0,0
			c0.8,0.4,1.8,0.5,2.6,0.5c0.8,0,1.8-0.2,2.6-0.5l0,0c1.1-0.4,2.5-0.4,3.7,0c0.1,0.1,0.3,0.1,0.4,0.1c0.4,0,0.8-0.3,1.1-0.7
			C21.7,35.3,21.4,34.6,20.9,34.3z M20.9,38.2c-1.7-0.7-3.6-0.7-5.3,0c-1.1,0.4-2.5,0.4-3.7,0l0,0c-1.7-0.7-3.6-0.7-5.3,0
			c-1.1,0.4-2.5,0.4-3.7,0c-0.6-0.2-1.1,0.1-1.4,0.6c-0.2,0.6,0.1,1.1,0.6,1.4c0.8,0.4,1.8,0.5,2.6,0.5c0.9,0,1.8-0.2,2.6-0.5
			c1.1-0.4,2.5-0.4,3.7,0l0,0c0.8,0.4,1.8,0.5,2.6,0.5c0.8,0,1.8-0.2,2.6-0.5c1.1-0.4,2.5-0.4,3.7,0c0.1,0.1,0.3,0.1,0.4,0.1
			c0.4,0,0.8-0.3,1.1-0.7C21.7,39.1,21.4,38.4,20.9,38.2z M34.6,20.4L34.6,20.4L34.6,20.4L34.6,20.4z M21.7,2.4
			c-0.4,0.1-0.8,0.3-1.1,0.4C21,2.6,21.3,2.4,21.7,2.4z M16.9,4.1C17.2,4,17.6,3.8,18,3.7C17.6,3.8,17.2,4,16.9,4.1z M34.7,17.1
			c-2.9-0.1-5.8,0.3-8.7,1.2l11,30.1l-2.2,0.8l-11-30.1c-2.7,1.1-5.2,2.7-7.3,4.6l0,0l0,0c-2.7-0.3-5.5-0.2-8.3,0.5
			c-2.8,0.6-5.3,1.8-7.7,3.2C0.9,17.3,7.1,8.2,16.8,4.2l0,0c0,0,0.1,0,0.1-0.1l0,0c0.4-0.2,0.9-0.4,1.4-0.5l-0.4-1l2-0.7l0.4,1
			c0.4-0.2,1-0.4,1.4-0.5l0,0h0.1l0,0c10-3.2,20.7-0.1,27.6,7.3c-2.7,0.4-5.3,1.2-7.9,2.5C38.8,13.5,36.6,15.2,34.7,17.1L34.7,17.1z
			 M24.9,18.7L24.9,18.7L24.9,18.7L24.9,18.7z M32.8,15.9C29.5,8.5,25.4,3.6,21.9,3.6c-0.8,0.3-1.5,0.5-2.2,0.8l-0.1,0.1
			c-0.7,0.3-1.5,0.5-2.2,0.8c-2.2,1.8-3,7.5-0.4,16.4c2.2-1.8,4.7-3.2,7.4-4.1C27.2,16.5,30,16,32.8,15.9z"/>
	</g>
</g>
</svg>
