<?xml version="1.0" encoding="utf-8"?>
<!-- Generator: Adobe Illustrator 18.0.0, SVG Export Plug-In . SVG Version: 6.00 Build 0)  -->
<!DOCTYPE svg PUBLIC "-//W3C//DTD SVG 1.1//EN" "http://www.w3.org/Graphics/SVG/1.1/DTD/svg11.dtd">
<svg version="1.1" id="Layer_1" xmlns="http://www.w3.org/2000/svg" xmlns:xlink="http://www.w3.org/1999/xlink" x="0px" y="0px"
	 viewBox="0 0 50 50" enable-background="new 0 0 50 50" xml:space="preserve">
<g>
	<path fill="#FFFFFF" d="M31.3,24.5c-5,0-9.2,4.1-9.2,9.2s4.1,9.2,9.2,9.2s9.2-4.1,9.2-9.2S36.3,24.5,31.3,24.5z M31.3,40.6
		c-3.8,0-7-3.2-7-7s3.1-7,7-7c3.8,0,7,3.1,7,7S35.1,40.6,31.3,40.6z"/>
	<path fill="#FFFFFF" d="M47.1,18.4H25.3v-0.8h6V12H15.1v5.6h4.1v0.8H3.5c-1.3,0-2.3,1-2.3,2.3v25.8c0,1.3,1,2.3,2.3,2.3h43.4
		c1.3,0,2.3-1,2.3-2.3V20.7C49.3,19.5,48.3,18.4,47.1,18.4z M9.9,46.2H4.4v-1.9h5.5V46.2z M16.6,29H5v-6.4h11.6V29z M31.3,45.8
		c-6.7,0-12.2-5.5-12.2-12.2s5.5-12.2,12.2-12.2s12.1,5.5,12.1,12.2S37.9,45.8,31.3,45.8z"/>
</g>
</svg>
