<?xml version="1.0" encoding="utf-8"?>
<!-- Generator: Adobe Illustrator 18.0.0, SVG Export Plug-In . SVG Version: 6.00 Build 0)  -->
<!DOCTYPE svg PUBLIC "-//W3C//DTD SVG 1.1//EN" "http://www.w3.org/Graphics/SVG/1.1/DTD/svg11.dtd">
<svg version="1.1" id="Layer_1" xmlns="http://www.w3.org/2000/svg" xmlns:xlink="http://www.w3.org/1999/xlink" x="0px" y="0px"
	 viewBox="0 0 110 110" enable-background="new 0 0 110 110" xml:space="preserve">
<g>
	<circle fill="#9FD9D5" cx="55" cy="55" r="55"/>
	<g>
		<path fill="#FFFFFF" d="M99,52.5c0,0-13.2-7.8-31.4-10.8L61.4,64C82.7,62.2,99,52.5,99,52.5z"/>
		<path fill="#FFFFFF" d="M49,71.4l-4.1,17.1c-0.5,2.1,0.5,4,2.1,4.4c1.7,0.4,3.4-0.9,3.9-3l3.3-13.7L49,71.4z"/>
		<circle fill="#FFFFFF" cx="60.5" cy="32.6" r="6.2"/>
		<path fill="#FFFFFF" d="M58.1,65.4c0.3-0.5,0.5-1,0.6-1.5l4.4-16.4c0.2-0.6,0.2-1.1,0.2-1.7c0-2.8-1.9-5.4-4.8-6.2
			c-0.5-0.1-1-0.2-1.5-0.2c-0.5,0-1,0-1.5,0.1c-0.6,0.1-1.2,0.3-1.8,0.6l-8.4,3c-0.2,0.1-0.4,0.2-0.6,0.3c-0.6,0.3-1.2,0.9-1.4,1.7
			l-3.5,13.2c-0.4,1.3,0.4,2.7,1.7,3.1c1.3,0.3,2.6-0.5,3-1.8l2.9-10.9l2.2-0.8l-3.4,12.6C46,61.1,46,61.7,46,62.3
			c0,0.3,0,0.6,0.1,0.9c0,1.3,0.5,2.7,1.6,3.7l9,8.7c0.1,0.1,0.3,0.3,0.4,0.4l-4.2,17.2c-0.5,2.1,0.5,4,2.1,4.4
			c1.7,0.4,3.4-0.9,3.9-3l4.9-20.1c0.1-0.2,0.1-0.5,0.1-0.7c0.2-1.4-0.3-3-1.5-4.2L58.1,65.4z"/>
		<path fill="#FFFFFF" d="M9.7,52.5c0,0,11.1,6.6,26.9,9.9l5-20.8C23.1,44.5,9.7,52.5,9.7,52.5z"/>
	</g>
</g>
</svg>
