<?xml version="1.0" encoding="utf-8"?>
<!-- Generator: Adobe Illustrator 18.0.0, SVG Export Plug-In . SVG Version: 6.00 Build 0)  -->
<!DOCTYPE svg PUBLIC "-//W3C//DTD SVG 1.1//EN" "http://www.w3.org/Graphics/SVG/1.1/DTD/svg11.dtd">
<svg version="1.1" id="Layer_1" xmlns="http://www.w3.org/2000/svg" xmlns:xlink="http://www.w3.org/1999/xlink" x="0px" y="0px"
	 viewBox="0 0 110 110" enable-background="new 0 0 110 110" xml:space="preserve">
<g>
	<circle fill="#9FD9D5" cx="55" cy="55" r="55"/>
	<g>
		<path fill="#FFFFFF" d="M63.9,47.1c-7.5,0-13.6,6.1-13.6,13.6s6.1,13.6,13.6,13.6c7.5,0,13.6-6.1,13.6-13.6S71.4,47.1,63.9,47.1z
			 M63.9,71c-5.7,0-10.4-4.7-10.4-10.4s4.6-10.4,10.4-10.4c5.7,0,10.4,4.6,10.4,10.4S69.6,71,63.9,71z"/>
		<path fill="#FFFFFF" d="M87.4,38H55v-1.2h8.9v-8.4H39.8v8.4h6.1V38H22.6c-1.9,0-3.4,1.5-3.4,3.4v38.4c0,1.9,1.5,3.4,3.4,3.4h64.7
			c1.9,0,3.4-1.5,3.4-3.4V41.4C90.8,39.6,89.3,38,87.4,38z M32.1,79.4h-8.2v-2.9h8.2V79.4z M42,53.7H24.7v-9.6H42V53.7z M63.9,78.7
			c-10,0-18.1-8.1-18.1-18.1c0-10,8.1-18.1,18.1-18.1c10,0,18.1,8.1,18.1,18.1C81.9,70.6,73.8,78.7,63.9,78.7z"/>
	</g>
</g>
</svg>
