<?xml version="1.0" encoding="utf-8"?>
<!-- Generator: Adobe Illustrator 18.0.0, SVG Export Plug-In . SVG Version: 6.00 Build 0)  -->
<!DOCTYPE svg PUBLIC "-//W3C//DTD SVG 1.1//EN" "http://www.w3.org/Graphics/SVG/1.1/DTD/svg11.dtd">
<svg version="1.1" id="Layer_1" xmlns="http://www.w3.org/2000/svg" xmlns:xlink="http://www.w3.org/1999/xlink" x="0px" y="0px"
	 viewBox="0 0 110 110" enable-background="new 0 0 110 110" xml:space="preserve">
<g>
	<circle fill="#9FD9D5" cx="55" cy="55" r="55"/>
	<g>
		<path fill="#FFFFFF" d="M19.4,83.2c0.3-0.9,1.3-1.3,2.2-0.9c1.8,0.7,3.9,0.7,5.8,0c0,0,0,0,0,0c2.6-1.1,5.6-1.1,8.3,0c0,0,0,0,0,0
			c1.8,0.7,3.9,0.7,5.8,0c0,0,0,0,0,0c2.6-1.1,5.6-1.1,8.3,0c0.9,0.3,1.3,1.3,0.9,2.2c-0.3,0.7-0.9,1.1-1.6,1.1
			c-0.2,0-0.4,0-0.6-0.1c-1.8-0.7-3.9-0.7-5.8,0c0,0,0,0,0,0c-1.3,0.5-2.7,0.8-4.1,0.8c-1.4,0-2.8-0.3-4.1-0.8c0,0,0,0,0,0
			c-1.8-0.7-3.9-0.7-5.8,0c0,0,0,0,0,0c-1.3,0.5-2.7,0.8-4.1,0.8c-1.4,0-2.8-0.3-4.1-0.8C19.5,85,19.1,84,19.4,83.2z M49.7,88.2
			c-2.6-1.1-5.6-1.1-8.3,0c0,0,0,0,0,0c-1.8,0.7-3.9,0.7-5.8,0c0,0,0,0,0,0c-2.6-1.1-5.6-1.1-8.3,0c0,0,0,0,0,0
			c-1.8,0.7-3.9,0.7-5.8,0c-0.9-0.3-1.8,0.1-2.2,0.9c-0.3,0.9,0.1,1.8,0.9,2.2c1.3,0.5,2.7,0.8,4.1,0.8c1.4,0,2.8-0.3,4.1-0.8
			c0,0,0,0,0,0c1.8-0.7,3.9-0.7,5.8,0c0,0,0,0,0,0c1.3,0.5,2.7,0.8,4.1,0.8c1.4,0,2.8-0.3,4.1-0.8c0,0,0,0,0,0
			c1.8-0.7,3.9-0.7,5.8,0c0.2,0.1,0.4,0.1,0.6,0.1c0.7,0,1.3-0.4,1.6-1.1C51,89.5,50.6,88.6,49.7,88.2z M49.7,70.2
			c-2.6-1.1-5.6-1.1-8.3,0c0,0,0,0,0,0c-1.8,0.7-3.9,0.7-5.8,0c0,0,0,0,0,0c-2.6-1.1-5.6-1.1-8.3,0c0,0,0,0,0,0
			c-1.8,0.7-3.9,0.7-5.8,0c-0.9-0.3-1.8,0.1-2.2,0.9c-0.3,0.9,0.1,1.8,0.9,2.2c1.3,0.5,2.7,0.8,4.1,0.8c1.4,0,2.8-0.3,4.1-0.8
			c0,0,0,0,0,0c1.8-0.7,3.9-0.7,5.8,0c0,0,0,0,0,0c1.3,0.5,2.7,0.8,4.1,0.8c1.4,0,2.8-0.3,4.1-0.8c0,0,0,0,0,0
			c1.8-0.7,3.9-0.7,5.8,0c0.2,0.1,0.4,0.1,0.6,0.1c0.7,0,1.3-0.4,1.6-1.1C51,71.6,50.6,70.6,49.7,70.2z M49.7,76.2
			c-2.6-1.1-5.6-1.1-8.3,0c-1.8,0.7-3.9,0.7-5.8,0c0,0,0,0,0,0c-2.6-1.1-5.6-1.1-8.3,0c-1.8,0.7-3.9,0.7-5.8,0
			c-0.9-0.3-1.8,0.1-2.2,0.9c-0.3,0.9,0.1,1.8,0.9,2.2c1.3,0.5,2.7,0.8,4.1,0.8s2.8-0.3,4.1-0.8c1.8-0.7,3.9-0.7,5.8,0c0,0,0,0,0,0
			c1.3,0.5,2.7,0.8,4.1,0.8c1.4,0,2.8-0.3,4.1-0.8c1.8-0.7,3.9-0.7,5.8,0c0.2,0.1,0.4,0.1,0.6,0.1c0.7,0,1.3-0.4,1.6-1.1
			C51,77.6,50.6,76.6,49.7,76.2z M71.2,48.3C71.2,48.3,71.2,48.3,71.2,48.3l-0.1,0C71.2,48.3,71.2,48.3,71.2,48.3z M51,20.2
			c-0.6,0.2-1.2,0.4-1.7,0.6C49.8,20.5,50.4,20.3,51,20.2z M43.4,22.9c0.6-0.2,1.1-0.5,1.7-0.7C44.6,22.4,44,22.7,43.4,22.9z
			 M71.3,43.2c-4.5-0.2-9.1,0.4-13.6,1.9l17.2,47.1l-3.6,1.3L54.1,46.4c-4.3,1.8-8.1,4.3-11.4,7.2c0,0,0,0,0,0c0,0,0,0,0,0
			c-4.2-0.4-8.6-0.2-13,0.9c-4.4,1-8.4,2.7-12.1,4.9C18.5,43.6,28.2,29.3,43.3,23c0,0,0,0,0,0c0,0,0.1,0,0.1-0.1l0,0
			c0.7-0.3,1.4-0.6,2.2-0.8l-0.6-1.5l3.2-1.1l0.6,1.5c0.7-0.3,1.5-0.5,2.2-0.8l0,0c0,0,0.1,0,0.1,0c0,0,0,0,0,0
			c15.6-4.9,32.3-0.1,43.1,11.4c-4.2,0.6-8.4,1.9-12.4,4C77.8,37.5,74.3,40.2,71.3,43.2C71.3,43.2,71.3,43.2,71.3,43.2z M56,45.6
			C56,45.6,56,45.6,56,45.6C56,45.6,56,45.6,56,45.6L56,45.6z M68.4,41.3C63.3,29.7,56.7,22,51.4,22c-1.2,0.4-2.4,0.8-3.5,1.3
			l-0.2,0.1c-1.1,0.4-2.3,0.8-3.5,1.3c-3.4,2.9-4.7,11.8-0.6,25.7c3.5-2.7,7.4-4.9,11.6-6.5C59.6,42.3,63.9,41.5,68.4,41.3z"/>
	</g>
</g>
</svg>
