<?xml version="1.0" encoding="utf-8"?>
<!-- Generator: Adobe Illustrator 18.0.0, SVG Export Plug-In . SVG Version: 6.00 Build 0)  -->
<!DOCTYPE svg PUBLIC "-//W3C//DTD SVG 1.1//EN" "http://www.w3.org/Graphics/SVG/1.1/DTD/svg11.dtd">
<svg version="1.1" id="Layer_1" xmlns="http://www.w3.org/2000/svg" xmlns:xlink="http://www.w3.org/1999/xlink" x="0px" y="0px"
	 viewBox="0 0 100 100" enable-background="new 0 0 100 100" xml:space="preserve">
<g>
	<path fill="#FFFFFF" d="M17.6,75.6c0.3-0.8,1.2-1.2,2-0.8c1.6,0.6,3.5,0.6,5.3,0l0,0c2.4-1,5.1-1,7.5,0l0,0c1.6,0.6,3.5,0.6,5.3,0
		l0,0c2.4-1,5.1-1,7.5,0c0.8,0.3,1.2,1.2,0.8,2c-0.3,0.6-0.8,1-1.5,1c-0.2,0-0.4,0-0.5-0.1c-1.6-0.6-3.5-0.6-5.3,0l0,0
		c-1.2,0.5-2.5,0.7-3.7,0.7c-1.3,0-2.5-0.3-3.7-0.7l0,0c-1.6-0.6-3.5-0.6-5.3,0l0,0c-1.2,0.5-2.5,0.7-3.7,0.7
		c-1.3,0-2.5-0.3-3.7-0.7C17.7,77.3,17.4,76.4,17.6,75.6z M45.2,80.2c-2.4-1-5.1-1-7.5,0l0,0c-1.6,0.6-3.5,0.6-5.3,0l0,0
		c-2.4-1-5.1-1-7.5,0l0,0c-1.6,0.6-3.5,0.6-5.3,0c-0.8-0.3-1.6,0.1-2,0.8c-0.3,0.8,0.1,1.6,0.8,2c1.2,0.5,2.5,0.7,3.7,0.7
		c1.3,0,2.5-0.3,3.7-0.7l0,0c1.6-0.6,3.5-0.6,5.3,0l0,0c1.2,0.5,2.5,0.7,3.7,0.7s2.5-0.3,3.7-0.7l0,0c1.6-0.6,3.5-0.6,5.3,0
		c0.2,0.1,0.4,0.1,0.5,0.1c0.6,0,1.2-0.4,1.5-1C46.4,81.4,46,80.5,45.2,80.2z M45.2,63.8c-2.4-1-5.1-1-7.5,0l0,0
		c-1.6,0.6-3.5,0.6-5.3,0l0,0c-2.4-1-5.1-1-7.5,0l0,0c-1.6,0.6-3.5,0.6-5.3,0c-0.8-0.3-1.6,0.1-2,0.8c-0.3,0.8,0.1,1.6,0.8,2
		c1.2,0.5,2.5,0.7,3.7,0.7c1.3,0,2.5-0.3,3.7-0.7l0,0c1.6-0.6,3.5-0.6,5.3,0l0,0c1.2,0.5,2.5,0.7,3.7,0.7s2.5-0.3,3.7-0.7l0,0
		c1.6-0.6,3.5-0.6,5.3,0c0.2,0.1,0.4,0.1,0.5,0.1c0.6,0,1.2-0.4,1.5-1C46.4,65.1,46,64.2,45.2,63.8z M45.2,69.3c-2.4-1-5.1-1-7.5,0
		c-1.6,0.6-3.5,0.6-5.3,0l0,0c-2.4-1-5.1-1-7.5,0c-1.6,0.6-3.5,0.6-5.3,0c-0.8-0.3-1.6,0.1-2,0.8c-0.3,0.8,0.1,1.6,0.8,2
		c1.2,0.5,2.5,0.7,3.7,0.7c1.3,0,2.5-0.3,3.7-0.7c1.6-0.6,3.5-0.6,5.3,0l0,0c1.2,0.5,2.5,0.7,3.7,0.7s2.5-0.3,3.7-0.7
		c1.6-0.6,3.5-0.6,5.3,0c0.2,0.1,0.4,0.1,0.5,0.1c0.6,0,1.2-0.4,1.5-1C46.4,70.5,46,69.6,45.2,69.3z M64.7,43.9L64.7,43.9L64.7,43.9
		C64.7,43.9,64.7,43.9,64.7,43.9z M46.4,18.4c-0.5,0.2-1.1,0.4-1.6,0.5C45.3,18.6,45.8,18.4,46.4,18.4z M39.5,20.8
		c0.5-0.2,1-0.5,1.6-0.6C40.5,20.4,40,20.6,39.5,20.8z M64.8,39.3c-4.1-0.2-8.3,0.4-12.4,1.7l15.6,42.8L64.8,85L49.2,42.2
		c-3.9,1.6-7.4,3.9-10.4,6.6l0,0l0,0C35,48.4,31,48.5,27,49.5c-4,0.9-7.6,2.5-11,4.5c0.8-14.4,9.6-27.4,23.4-33.1l0,0
		c0,0,0.1,0,0.1-0.1l0,0c0.6-0.3,1.3-0.5,2-0.7l-0.5-1.4l2.9-1l0.5,1.4c0.6-0.3,1.4-0.5,2-0.7l0,0h0.1l0,0
		c14.2-4.5,29.4-0.1,39.2,10.4c-3.8,0.5-7.6,1.7-11.3,3.6C70.7,34.1,67.5,36.6,64.8,39.3L64.8,39.3z M50.9,41.5L50.9,41.5L50.9,41.5
		L50.9,41.5z M62.2,37.5C57.5,27,51.6,20,46.7,20c-1.1,0.4-2.2,0.7-3.2,1.2l-0.2,0.1c-1,0.4-2.1,0.7-3.2,1.2
		c-3.1,2.6-4.3,10.7-0.5,23.4c3.2-2.5,6.7-4.5,10.5-5.9C54.2,38.4,58.1,37.7,62.2,37.5z"/>
</g>
<g>
	<path fill="#FFFFFF" d="M17.6,75.6c0.3-0.8,1.2-1.2,2-0.8c1.6,0.6,3.5,0.6,5.3,0l0,0c2.4-1,5.1-1,7.5,0l0,0c1.6,0.6,3.5,0.6,5.3,0
		l0,0c2.4-1,5.1-1,7.5,0c0.8,0.3,1.2,1.2,0.8,2c-0.3,0.6-0.8,1-1.5,1c-0.2,0-0.4,0-0.5-0.1c-1.6-0.6-3.5-0.6-5.3,0l0,0
		c-1.2,0.5-2.5,0.7-3.7,0.7c-1.3,0-2.5-0.3-3.7-0.7l0,0c-1.6-0.6-3.5-0.6-5.3,0l0,0c-1.2,0.5-2.5,0.7-3.7,0.7
		c-1.3,0-2.5-0.3-3.7-0.7C17.7,77.3,17.4,76.4,17.6,75.6z M45.2,80.2c-2.4-1-5.1-1-7.5,0l0,0c-1.6,0.6-3.5,0.6-5.3,0l0,0
		c-2.4-1-5.1-1-7.5,0l0,0c-1.6,0.6-3.5,0.6-5.3,0c-0.8-0.3-1.6,0.1-2,0.8c-0.3,0.8,0.1,1.6,0.8,2c1.2,0.5,2.5,0.7,3.7,0.7
		c1.3,0,2.5-0.3,3.7-0.7l0,0c1.6-0.6,3.5-0.6,5.3,0l0,0c1.2,0.5,2.5,0.7,3.7,0.7s2.5-0.3,3.7-0.7l0,0c1.6-0.6,3.5-0.6,5.3,0
		c0.2,0.1,0.4,0.1,0.5,0.1c0.6,0,1.2-0.4,1.5-1C46.4,81.4,46,80.5,45.2,80.2z M45.2,63.8c-2.4-1-5.1-1-7.5,0l0,0
		c-1.6,0.6-3.5,0.6-5.3,0l0,0c-2.4-1-5.1-1-7.5,0l0,0c-1.6,0.6-3.5,0.6-5.3,0c-0.8-0.3-1.6,0.1-2,0.8c-0.3,0.8,0.1,1.6,0.8,2
		c1.2,0.5,2.5,0.7,3.7,0.7c1.3,0,2.5-0.3,3.7-0.7l0,0c1.6-0.6,3.5-0.6,5.3,0l0,0c1.2,0.5,2.5,0.7,3.7,0.7s2.5-0.3,3.7-0.7l0,0
		c1.6-0.6,3.5-0.6,5.3,0c0.2,0.1,0.4,0.1,0.5,0.1c0.6,0,1.2-0.4,1.5-1C46.4,65.1,46,64.2,45.2,63.8z M45.2,69.3c-2.4-1-5.1-1-7.5,0
		c-1.6,0.6-3.5,0.6-5.3,0l0,0c-2.4-1-5.1-1-7.5,0c-1.6,0.6-3.5,0.6-5.3,0c-0.8-0.3-1.6,0.1-2,0.8c-0.3,0.8,0.1,1.6,0.8,2
		c1.2,0.5,2.5,0.7,3.7,0.7c1.3,0,2.5-0.3,3.7-0.7c1.6-0.6,3.5-0.6,5.3,0l0,0c1.2,0.5,2.5,0.7,3.7,0.7s2.5-0.3,3.7-0.7
		c1.6-0.6,3.5-0.6,5.3,0c0.2,0.1,0.4,0.1,0.5,0.1c0.6,0,1.2-0.4,1.5-1C46.4,70.5,46,69.6,45.2,69.3z M64.7,43.9L64.7,43.9L64.7,43.9
		C64.7,43.9,64.7,43.9,64.7,43.9z M46.4,18.4c-0.5,0.2-1.1,0.4-1.6,0.5C45.3,18.6,45.8,18.4,46.4,18.4z M39.5,20.8
		c0.5-0.2,1-0.5,1.6-0.6C40.5,20.4,40,20.6,39.5,20.8z M64.8,39.3c-4.1-0.2-8.3,0.4-12.4,1.7l15.6,42.8L64.8,85L49.2,42.2
		c-3.9,1.6-7.4,3.9-10.4,6.6l0,0l0,0C35,48.4,31,48.5,27,49.5c-4,0.9-7.6,2.5-11,4.5c0.8-14.4,9.6-27.4,23.4-33.1l0,0
		c0,0,0.1,0,0.1-0.1l0,0c0.6-0.3,1.3-0.5,2-0.7l-0.5-1.4l2.9-1l0.5,1.4c0.6-0.3,1.4-0.5,2-0.7l0,0h0.1l0,0
		c14.2-4.5,29.4-0.1,39.2,10.4c-3.8,0.5-7.6,1.7-11.3,3.6C70.7,34.1,67.5,36.6,64.8,39.3L64.8,39.3z M50.9,41.5L50.9,41.5L50.9,41.5
		L50.9,41.5z M62.2,37.5C57.5,27,51.6,20,46.7,20c-1.1,0.4-2.2,0.7-3.2,1.2l-0.2,0.1c-1,0.4-2.1,0.7-3.2,1.2
		c-3.1,2.6-4.3,10.7-0.5,23.4c3.2-2.5,6.7-4.5,10.5-5.9C54.2,38.4,58.1,37.7,62.2,37.5z"/>
</g>
</svg>
