<?xml version="1.0" encoding="utf-8"?>
<!-- Generator: Adobe Illustrator 18.0.0, SVG Export Plug-In . SVG Version: 6.00 Build 0)  -->
<!DOCTYPE svg PUBLIC "-//W3C//DTD SVG 1.1//EN" "http://www.w3.org/Graphics/SVG/1.1/DTD/svg11.dtd">
<svg version="1.1" id="Layer_1" xmlns="http://www.w3.org/2000/svg" xmlns:xlink="http://www.w3.org/1999/xlink" x="0px" y="0px"
	 viewBox="56 56 500 500" enable-background="new 56 56 500 500" xml:space="preserve">
<g>
	<path fill="#FFFFFF" d="M328.1,293c-9.1-8.4-16.7-16.2-22-21.9c-2.7-2.8-4.8-5.2-6.2-6.8c-0.1-0.1-0.2-0.2-0.3-0.3
		c-2-4.1-6.1-6.9-11-6.9h-61c-1.3,0-2.6,0.2-3.8,0.6c-2.7,0.4-6,1.3-9.7,3.1c-8.5,4.2-17.7,13.4-24.1,29.8
		c-6.5,16.4-10.8,40.1-10.9,75.9c0,9.3,0.3,19.3,0.9,30.3c0.4,6.7,6,11.9,12.6,11.9c0.2,0,0.5,0,0.8,0c3.8-0.2,7.1-2.1,9.2-4.9
		c-1.9,9.7-4,20.5-5.8,31.3l-0.4,2.1l2.1,0.6c0.9,0.3,1.9,0.5,2.8,0.8L183,527.9c-2.2,10.6,4.6,20.9,15.2,23.1
		c10.6,2.2,20.9-4.6,23.1-15.2l19.1-93c3.9,0,6.3-0.2,6.3-0.2l1.8-0.1l6.5-27.6l2.7,25.8l1.9,0.2c0,0,0.8,0.1,2.3,0.2v90.9
		c0,10.8,8.7,19.5,19.5,19.5c10.8,0,19.5-8.7,19.5-19.5v-92.8c2.2-0.5,4.5-1,6.7-1.6l1.6-0.4l0.2-1.6c0.7-6.9,0.9-13.7,0.9-20.3
		c0-22.2-3-41.5-4.5-49.6c1.5-1.3,2-3.3,1.3-5.2c-0.9-2.4-3.7-3.7-6.1-2.7c0,0,0,0,0,0v-10.4v-45.5c3.1,3.1,6.5,6.3,10.2,9.7
		c7.1,6.5,15,13.3,23.5,19.9c-0.9-11.6-1.6-23.2-2.1-34.7C330.9,295.5,329.5,294.2,328.1,293z M304.7,433.6
		c-10.4,2.7-21.3,3.4-29.7,3.4c-4.4,0-8.1-0.2-10.7-0.4c-0.9-0.1-1.7-0.1-2.3-0.2l-3.7-36l-4.7-0.3l-8.9,37.7c-1.2,0-3,0.1-5.3,0.1
		c-8.5,0-23.4-0.6-37.5-4.3c3.1-18,6.6-35.4,9.4-48.5c1.7-7.7,3-13.9,3.9-17.8c1.8,0.4,3.8,0.6,6.2,0.9c11.4,1.3,29.8,2,36.8,2
		c4.7,0,14.4-0.3,23.8-0.9c4.7-0.3,9.2-0.7,13.1-1.1c2.4-0.3,4.3-0.5,6-0.9c0.5,2.6,1.1,6.3,1.7,10.8c1.3,9.6,2.6,22.8,2.6,37.2
		C305.5,421.3,305.2,427.5,304.7,433.6z M204.4,366.5c-0.1-38.3,5.5-59.7,11-70.9v62.2c-2.4-0.7-4.9,0.5-5.8,2.8
		c-0.7,1.9-0.2,3.9,1.2,5.1c-1.1,5-3.2,14.3-5.7,26C204.7,382.6,204.4,374.2,204.4,366.5z"/>
	<circle fill="#FFFFFF" cx="258.2" cy="212.6" r="35.5"/>
	<path fill="#FFFFFF" d="M392.4,62.2c-32.3,0-58.4,37.3-58.4,172.5s26.2,317.1,58.4,317.1c32.3,0,58.4-181.9,58.4-317.1
		S424.7,62.2,392.4,62.2z"/>
</g>
</svg>
