<?xml version="1.0" encoding="utf-8"?>
<!-- Generator: Adobe Illustrator 18.0.0, SVG Export Plug-In . SVG Version: 6.00 Build 0)  -->
<!DOCTYPE svg PUBLIC "-//W3C//DTD SVG 1.1//EN" "http://www.w3.org/Graphics/SVG/1.1/DTD/svg11.dtd">
<svg version="1.1" id="Layer_1" xmlns="http://www.w3.org/2000/svg" xmlns:xlink="http://www.w3.org/1999/xlink" x="0px" y="0px"
	 viewBox="56 56 500 500" enable-background="new 56 56 500 500" xml:space="preserve">
<g>
	<path fill="#FFFFFF" d="M528.3,426.8c-10.3,10-20,16.8-29.5,21.1c-22-21.2-52.8-59.3-43.2-89.9c12.9-41.1,57.1-66,57.6-66.2
		l36.7-20.1l-41-8.3c-1.5-0.3-148.1-28.2-199.4,116.5c-13.4-21.5-21.1-46.9-21.1-72.2c0-105.3,121.3-116.7,126.5-117.2l55.8-4.7
		l-50.4-24.3c-5.9-2.9-146.2-68.8-247.2,27.2C90.4,267.1,90.7,386.2,93.7,428c-22.9,17.2-32.6,34-33.4,35.5L87,478.4
		c0.4-0.7,40.3-70,169.4-56.8c21.4,2.2,40.8,6.4,58.7,11.7l0,0l0,0c25.5,7.5,48,17.1,68.9,26c30.7,13.2,59.3,25.5,88,25.5
		c6.6,0,13.2-0.7,19.9-2.1c0.1,0,0.2,0.2,0.3,0.2l0.3-0.4c18.6-4.1,37.4-14.4,57.3-33.8L528.3,426.8z"/>
</g>
</svg>
