<?xml version="1.0" encoding="utf-8"?>
<!-- Generator: Adobe Illustrator 18.0.0, SVG Export Plug-In . SVG Version: 6.00 Build 0)  -->
<!DOCTYPE svg PUBLIC "-//W3C//DTD SVG 1.1//EN" "http://www.w3.org/Graphics/SVG/1.1/DTD/svg11.dtd">
<svg version="1.1" id="Layer_1" xmlns="http://www.w3.org/2000/svg" xmlns:xlink="http://www.w3.org/1999/xlink" x="0px" y="0px"
	 viewBox="0 0 100 100" enable-background="new 0 0 100 100" xml:space="preserve">
<g>
	<path fill="#FFFFFF" d="M33.4,19.2c-6.6,0-12,18.3-12,40.8c0,9.5,1,18.3,2.5,25.4h18.9c0.3-1.3,0.5-2.6,0.8-4.1
		c1.1-6.2,1.7-13.5,1.7-21.3C45.4,37.5,40,19.2,33.4,19.2z"/>
	<path fill="#FFFFFF" d="M83.1,22.8c-7.1,1.3-21,15-33.1,33c-0.2,0.2-0.3,0.5-0.5,0.5c0,1.3,0,2.5,0,3.6c0,3.9-0.2,7.9-0.5,11.7
		L83.1,22.8z"/>
	<path fill="#FFFFFF" d="M87,24.5L48,81.2c0,0.3-0.2,0.7-0.2,1c0,0.3-0.2,0.7-0.2,1l6.4,2.3c5.6-5.8,11.7-13.3,17.5-21.8
		C83.2,45.9,89.5,29.9,87,24.5z"/>
</g>
</svg>
