<?xml version="1.0" encoding="utf-8"?>
<!-- Generator: Adobe Illustrator 18.0.0, SVG Export Plug-In . SVG Version: 6.00 Build 0)  -->
<!DOCTYPE svg PUBLIC "-//W3C//DTD SVG 1.1//EN" "http://www.w3.org/Graphics/SVG/1.1/DTD/svg11.dtd">
<svg version="1.1" id="Layer_1" xmlns="http://www.w3.org/2000/svg" xmlns:xlink="http://www.w3.org/1999/xlink" x="0px" y="0px"
	 viewBox="0 90 612 612" enable-background="new 0 90 612 612" xml:space="preserve">
<circle fill="#03B73F" cx="306" cy="396" r="306"/>
<g>
	<path fill="#FFFFFF" d="M550.8,382.1c0,0-73.4-43.4-174.7-60.1l-34.5,124.1C460.1,436.1,550.8,382.1,550.8,382.1z"/>
	<path fill="#FFFFFF" d="M272.6,487.2l-22.8,95.1c-2.8,11.7,2.8,22.3,11.7,24.5c9.5,2.2,18.9-5,21.7-16.7l18.4-76.2L272.6,487.2z"/>
	<circle fill="#FFFFFF" cx="336.6" cy="271.4" r="34.5"/>
	<path fill="#FFFFFF" d="M323.2,453.9c1.7-2.8,2.8-5.6,3.3-8.3l24.5-91.2c1.1-3.3,1.1-6.1,1.1-9.5c0-15.6-10.6-30-26.7-34.5
		c-2.8-0.6-5.6-1.1-8.3-1.1c-2.8,0-5.6,0-8.3,0.6c-3.3,0.6-6.7,1.7-10,3.3L252,329.8c-1.1,0.6-2.2,1.1-3.3,1.7
		c-3.3,1.7-6.7,5-7.8,9.5l-19.5,73.4c-2.2,7.2,2.2,15,9.5,17.2c7.2,1.7,14.5-2.8,16.7-10l16.1-60.6l12.2-4.5L257,426.6
		c-1.1,3.3-1.1,6.7-1.1,10c0,1.7,0,3.3,0.6,5c0,7.2,2.8,15,8.9,20.6l50.1,48.4c0.6,0.6,1.7,1.7,2.2,2.2l-23.4,95.7
		c-2.8,11.7,2.8,22.3,11.7,24.5c9.5,2.2,18.9-5,21.7-16.7L355,504.5c0.6-1.1,0.6-2.8,0.6-3.9c1.1-7.8-1.7-16.7-8.3-23.4L323.2,453.9
		z"/>
	<path fill="#FFFFFF" d="M54,382.1c0,0,61.8,36.7,149.7,55.1l27.8-115.7C128.5,337.6,54,382.1,54,382.1z"/>
</g>
</svg>
