<?xml version="1.0" encoding="utf-8"?>
<!-- Generator: Adobe Illustrator 18.0.0, SVG Export Plug-In . SVG Version: 6.00 Build 0)  -->
<!DOCTYPE svg PUBLIC "-//W3C//DTD SVG 1.1//EN" "http://www.w3.org/Graphics/SVG/1.1/DTD/svg11.dtd">
<svg version="1.1" id="Layer_1" xmlns="http://www.w3.org/2000/svg" xmlns:xlink="http://www.w3.org/1999/xlink" x="0px" y="0px"
	 viewBox="0 90 612 612" enable-background="new 0 90 612 612" xml:space="preserve">
<g>
	<circle fill="#9FD9D5" cx="306" cy="396" r="306"/>
	<g>
		<path fill="#FFFFFF" d="M355.5,352c-41.7,0-75.7,33.9-75.7,75.7s33.9,75.7,75.7,75.7s75.7-33.9,75.7-75.7S397.2,352,355.5,352z
			 M355.5,485c-31.7,0-57.9-26.1-57.9-57.9s25.6-57.9,57.9-57.9c31.7,0,57.9,25.6,57.9,57.9S387.2,485,355.5,485z"/>
		<path fill="#FFFFFF" d="M486.3,301.4H306v-6.7h49.5V248H221.4v46.7h33.9v6.7H125.7c-10.6,0-18.9,8.3-18.9,18.9V534
			c0,10.6,8.3,18.9,18.9,18.9h360c10.6,0,18.9-8.3,18.9-18.9V320.3C505.2,310.3,496.8,301.4,486.3,301.4z M178.6,531.8H133v-16.1
			h45.6V531.8z M233.7,388.8h-96.3v-53.4h96.3V388.8z M355.5,527.9c-55.6,0-100.7-45.1-100.7-100.7s45.1-100.7,100.7-100.7
			s100.7,45.1,100.7,100.7C455.7,482.8,410.6,527.9,355.5,527.9z"/>
	</g>
</g>
</svg>
