<?xml version="1.0" encoding="utf-8"?>
<!-- Generator: Adobe Illustrator 18.0.0, SVG Export Plug-In . SVG Version: 6.00 Build 0)  -->
<!DOCTYPE svg PUBLIC "-//W3C//DTD SVG 1.1//EN" "http://www.w3.org/Graphics/SVG/1.1/DTD/svg11.dtd">
<svg version="1.1" id="Layer_1" xmlns="http://www.w3.org/2000/svg" xmlns:xlink="http://www.w3.org/1999/xlink" x="0px" y="0px"
	 viewBox="0 0 100 100" enable-background="new 0 0 100 100" xml:space="preserve">
<g>
	<path fill="#FFFFFF" d="M58.1,42.8c-6.8,0-12.4,5.5-12.4,12.4s5.5,12.4,12.4,12.4S70.5,62,70.5,55.2S64.9,42.8,58.1,42.8z
		 M58.1,64.5c-5.2,0-9.5-4.3-9.5-9.5s4.2-9.5,9.5-9.5c5.2,0,9.5,4.2,9.5,9.5S63.3,64.5,58.1,64.5z"/>
	<path fill="#FFFFFF" d="M79.5,34.5H50v-1.1h8.1v-7.6H36.2v7.6h5.5v1.1H20.5c-1.7,0-3.1,1.4-3.1,3.1v34.9c0,1.7,1.4,3.1,3.1,3.1
		h58.8c1.7,0,3.1-1.4,3.1-3.1V37.6C82.5,36,81.2,34.5,79.5,34.5z M29.2,72.2h-7.5v-2.6h7.5V72.2z M38.2,48.8H22.5v-8.7h15.7V48.8z
		 M58.1,71.6c-9.1,0-16.5-7.4-16.5-16.5S49,38.6,58.1,38.6S74.5,46,74.5,55.1C74.5,64.2,67.1,71.6,58.1,71.6z"/>
</g>
</svg>
