<?xml version="1.0" encoding="utf-8"?>
<!-- Generator: Adobe Illustrator 18.0.0, SVG Export Plug-In . SVG Version: 6.00 Build 0)  -->
<!DOCTYPE svg PUBLIC "-//W3C//DTD SVG 1.1//EN" "http://www.w3.org/Graphics/SVG/1.1/DTD/svg11.dtd">
<svg version="1.1" id="Layer_1" xmlns="http://www.w3.org/2000/svg" xmlns:xlink="http://www.w3.org/1999/xlink" x="0px" y="0px"
	 viewBox="0 0 100 100" enable-background="new 0 0 100 100" xml:space="preserve">
<g>
	<path fill="#FFFFFF" d="M82.4,33.2c0-7.7-6.3-14-14-14s-14,6.3-14,14s6.3,14,14,14S82.4,40.9,82.4,33.2z M60,33.2
		c0-4.6,3.8-8.4,8.4-8.4s8.4,3.8,8.4,8.4s-3.8,8.4-8.4,8.4S60,37.8,60,33.2z M65.6,12.2c0,1.5,1.3,2.8,2.8,2.8
		c1.5,0,2.8-1.3,2.8-2.8V6.6c0-1.5-1.3-2.8-2.8-2.8c-1.5,0-2.8,1.3-2.8,2.8V12.2z M65.6,59.8c0,1.5,1.3,2.8,2.8,2.8
		c1.5,0,2.8-1.3,2.8-2.8v-5.6c0-1.5-1.3-2.8-2.8-2.8c-1.5,0-2.8,1.3-2.8,2.8V59.8z M89.3,30.4c-1.5,0-2.8,1.3-2.8,2.8
		s1.3,2.8,2.8,2.8h5.6c1.5,0,2.8-1.3,2.8-2.8s-1.3-2.8-2.8-2.8H89.3z M41.8,30.4c-1.5,0-2.8,1.3-2.8,2.8s1.3,2.8,2.8,2.8h5.6
		c1.5,0,2.8-1.3,2.8-2.8s-1.3-2.8-2.8-2.8H41.8z M81.2,16.4c-1.1,1.1-1.1,2.9,0,4s2.9,1.1,4,0l4-4c1.1-1.1,1.1-2.9,0-4
		c-1.1-1.1-2.9-1.1-4,0L81.2,16.4z M47.6,50c-1.1,1.1-1.1,2.9,0,4c1.1,1.1,2.9,1.1,4,0l4-4c1.1-1.1,1.1-2.9,0-4
		c-1.1-1.1-2.9-1.1-4,0L47.6,50z M51.6,20.3c1.1,1.1,2.9,1.1,4,0c1.1-1.1,1.1-2.9,0-4l-4-4c-1.1-1.1-2.9-1.1-4,0
		c-1.1,1.1-1.1,2.9,0,4L51.6,20.3z M85.2,53.9c1.1,1.1,2.9,1.1,4,0c1.1-1.1,1.1-2.9,0-4l-4-4c-1.1-1.1-2.9-1.1-4,0
		c-1.1,1.1-1.1,2.9,0,4L85.2,53.9z M39.9,61.2C36.9,44.6,28.3,32,19.4,33.6c-9,1.6-12.7,16.4-9.8,33c1,5.7,2.7,11.1,5,15.6
		c0.7,1.4,2.4,1.9,3.8,1.2c1.4-0.7,1.9-2.4,1.2-3.8c-2-4-3.6-8.8-4.5-14.1c-2.4-13.9,0.5-25.7,5.3-26.5c4.7-0.8,11.6,9.2,14,23.1
		c0.8,4.4,1,8.8,0.8,12.7c-0.1,1.5,1.1,2.9,2.6,3c1.5,0.1,2.9-1.1,3-2.6C41,70.8,40.7,66,39.9,61.2z"/>
	<path fill="#FFFFFF" d="M24.1,76.9c-8.3,2.6-15.7,7.9-20.3,15c-0.8,1.3-0.5,3,0.8,3.9s3,0.5,3.9-0.8c5.6-8.6,16.2-14.3,27.1-14.3
		c10.8,0,21.4,5.6,27,14.2c0.8,1.3,2.6,1.6,3.9,0.8c1.3-0.8,1.6-2.6,0.8-3.9c-1.5-2.3-3.3-4.4-5.4-6.3l0,0c1.9-0.4,3.8-0.6,5.8-0.6
		c9.2,0,16.7,4,23.3,13c0.9,1.2,2.7,1.5,3.9,0.6c1.2-0.9,1.5-2.7,0.6-3.9c-7.7-10.3-16.8-15.2-27.8-15.2c-4,0-7.7,0.6-11.3,2
		c-6.1-3.9-13.5-6.2-20.9-6.2c-2,0-4,0.2-6,0.5L25,50c-0.3-1.5-1.7-2.5-3.2-2.3c-1.5,0.3-2.5,1.7-2.3,3.2L24.1,76.9L24.1,76.9z"/>
</g>
</svg>
