<?xml version="1.0" encoding="utf-8"?>
<!-- Generator: Adobe Illustrator 18.0.0, SVG Export Plug-In . SVG Version: 6.00 Build 0)  -->
<!DOCTYPE svg PUBLIC "-//W3C//DTD SVG 1.1//EN" "http://www.w3.org/Graphics/SVG/1.1/DTD/svg11.dtd">
<svg version="1.1" id="Layer_1" xmlns="http://www.w3.org/2000/svg" xmlns:xlink="http://www.w3.org/1999/xlink" x="0px" y="0px"
	 viewBox="0 0 110 110" enable-background="new 0 0 110 110" xml:space="preserve">
<g>
	<circle fill="#9FD9D5" cx="55" cy="55" r="55"/>
	<g>
		<path fill="#FFFFFF" d="M36.7,21.1c-7.3,0-13.2,20.1-13.2,44.9c0,10.5,1.1,20.1,2.8,27.9h20.8c0.3-1.4,0.6-2.9,0.9-4.5
			c1.2-6.8,1.9-14.9,1.9-23.4C49.9,41.2,44,21.1,36.7,21.1z"/>
		<path fill="#FFFFFF" d="M91.4,25.1C83.6,26.5,68.3,41.6,55,61.4c-0.2,0.2-0.3,0.5-0.5,0.6c0,1.4,0,2.8,0,4c0,4.3-0.2,8.7-0.5,12.9
			L91.4,25.1z"/>
		<path fill="#FFFFFF" d="M95.7,27L52.8,89.3c0,0.3-0.2,0.8-0.2,1.1s-0.2,0.8-0.2,1.1l7,2.5c6.2-6.4,12.9-14.6,19.2-24
			C91.5,50.5,98.4,32.9,95.7,27z"/>
	</g>
</g>
</svg>
