<?xml version="1.0" encoding="utf-8"?>
<!-- Generator: Adobe Illustrator 18.0.0, SVG Export Plug-In . SVG Version: 6.00 Build 0)  -->
<!DOCTYPE svg PUBLIC "-//W3C//DTD SVG 1.1//EN" "http://www.w3.org/Graphics/SVG/1.1/DTD/svg11.dtd">
<svg version="1.1" id="Layer_1" xmlns="http://www.w3.org/2000/svg" xmlns:xlink="http://www.w3.org/1999/xlink" x="0px" y="0px"
	 viewBox="56 56 500 500" enable-background="new 56 56 500 500" xml:space="preserve">
<g>
	<path fill="#FFFFFF" d="M552.2,275.9c0,0-73.3-43.3-174.5-60l-34.5,123.9C461.6,329.8,552.2,275.9,552.2,275.9z"/>
	<path fill="#FFFFFF" d="M274.3,380.9l-22.8,95c-2.8,11.7,2.8,22.3,11.7,24.5c9.5,2.2,18.9-5,21.7-16.7l18.4-76.1L274.3,380.9z"/>
	<circle fill="#FFFFFF" cx="338.2" cy="165.4" r="34.5"/>
	<path fill="#FFFFFF" d="M324.9,347.6c1.7-2.8,2.8-5.6,3.3-8.3l24.5-91.1c1.1-3.3,1.1-6.1,1.1-9.5c0-15.6-10.6-30-26.7-34.5
		c-2.8-0.6-5.6-1.1-8.3-1.1c-2.8,0-5.6,0-8.3,0.6c-3.3,0.6-6.7,1.7-10,3.3l-46.7,16.6c-1.1,0.6-2.2,1.1-3.3,1.7
		c-3.3,1.7-6.7,5-7.8,9.5l-19.5,73.3c-2.2,7.2,2.2,15,9.5,17.2c7.2,1.7,14.5-2.8,16.7-10l16.1-60.5l12.2-4.5l-18.9,70
		c-1.1,3.3-1.1,6.7-1.1,10c0,1.7,0,3.3,0.6,5c0,7.2,2.8,15,8.9,20.6l50,48.3c0.6,0.6,1.7,1.7,2.2,2.2L296,502
		c-2.8,11.7,2.8,22.3,11.7,24.5c9.5,2.2,18.9-5,21.7-16.7l27.3-111.7c0.6-1.1,0.6-2.8,0.6-3.9c1.1-7.8-1.7-16.7-8.3-23.4
		L324.9,347.6z"/>
	<path fill="#FFFFFF" d="M56,275.9c0,0,61.7,36.7,149.5,55l27.8-115.6C130.4,231.5,56,275.9,56,275.9z"/>
</g>
</svg>
