<?xml version="1.0" encoding="utf-8"?>
<!-- Generator: Adobe Illustrator 18.0.0, SVG Export Plug-In . SVG Version: 6.00 Build 0)  -->
<!DOCTYPE svg PUBLIC "-//W3C//DTD SVG 1.1//EN" "http://www.w3.org/Graphics/SVG/1.1/DTD/svg11.dtd">
<svg version="1.1" id="Layer_1" xmlns="http://www.w3.org/2000/svg" xmlns:xlink="http://www.w3.org/1999/xlink" x="0px" y="0px"
	 viewBox="56 56 500 500" enable-background="new 56 56 500 500" xml:space="preserve">
<g>
	<path fill="#FFFFFF" d="M351,183.1c-0.9-3.9-1.8-7.6-2.8-11.2h7.1C353.9,175.4,352.4,179.2,351,183.1z M403.8,176.4
		c-0.3-1.6-0.7-3.1-1-4.6h68.6c4.7,0,8.4,3.8,8.4,8.4v18c0,1.3-1,2.3-2.3,2.3s-2.3-1-2.3-2.3v-10.7h-69.3c-0.3-1.6-0.6-3.2-0.8-4.6
		h8.1v-6.5L403.8,176.4L403.8,176.4z M417.8,183h57.4v-2.7c0-2.1-1.7-3.8-3.8-3.8l-53.5,0L417.8,183L417.8,183z M450.5,400.8
		c6.9,0,12.4-5.6,12.4-12.5l-24.8,0C438,395.3,443.6,400.8,450.5,400.8z M551.1,375.1v8.4c0,2.7-2.2,4.9-4.9,4.9l-39.5,0
		c-3,0-4.3-2.7-4.3-2.7l-10.2-22.9c-1-2.3-3.8-4.2-6.1-4.2H414c-2.3,0-5.1,1.9-6.1,4.2l-7.7,17.8c0,0-1.3,3.2-5.1,3.2c0,0-1,0-2.6,0
		c7.9-26.3,13.9-59.7,17.1-95.1c0.2-2.1,0.4-4.2,0.5-6.3c48,0,92.7,0,123.7,0c1.6,0,2.9-1.3,2.9-2.9c0-1.6-1.3-2.9-2.9-2.9
		c-30.9,0-75.5,0-123.3,0c0.3-4.9,0.5-9.7,0.6-14.3h8.2c2.7,0,4.9-2.2,4.9-4.9v-30.2c0-2.7-2.2-4.9-4.9-4.9h-9.2
		c-0.9-11.6-2.1-21.6-3.4-29.7c26.9,0,45.9,0,48.6,0c4.9,0,10.8,0,17,0.2v5.4c0,2.9,2.3,5.2,5.2,5.2c2.9,0,5.2-2.3,5.2-5.2v-4.6
		c15.6,1.8,30.9,6.7,35.7,20.2c0.4,1.1,12.5,34.7,16.2,59.4c1.4,0.2,2.7,0.8,3.8,1.8c1.2,1.2,1.9,2.8,1.9,4.5c0,2.7-1.7,5-4.1,5.9
		c2.6,25.2,3,54.3-0.4,84.7h10.5C548.9,370.2,551.1,372.4,551.1,375.1z M485.3,337.4c0-1.5-1-3.1-3.1-3.1h-29.5
		c-2.1,0-3.1,1.6-3.1,3.1H485.3z M485.3,331.9c0-1.5-1-3.1-3.1-3.1h-29.5c-2.1,0-3.1,1.5-3.1,3.1H485.3z M485.3,326.3
		c0-1.5-1-3.1-3.1-3.1h-29.5c-2.1,0-3.1,1.6-3.1,3.1H485.3z M485.3,320.7c0-1.6-1-3.1-3.1-3.1h-29.5c-2.1,0-3.1,1.5-3.1,3.1H485.3z
		 M485.3,315.2c0-1.5-1-3.1-3.1-3.1h-29.5c-2.1,0-3.1,1.6-3.1,3.1H485.3z M485.3,309.6c0-1.6-1-3.1-3.1-3.1h-29.5
		c-2.1,0-3.1,1.6-3.1,3.1H485.3z M485.3,304.1c0-1.6-1-3.1-3.1-3.1h-29.5c-2.1,0-3.1,1.6-3.1,3.1H485.3z M485.3,298.5
		c0-1.5-1-3.1-3.1-3.1h-29.5c-2.1,0-3.1,1.6-3.1,3.1H485.3z M485.3,293c0-1.6-1-3.1-3.1-3.1h-29.5c-2.1,0-3.1,1.5-3.1,3.1H485.3z
		 M216.2,388.4c0,21-17,38-38,38c-21,0-38.1-17-38.1-38s17-38,38.1-38C199.2,350.4,216.2,367.4,216.2,388.4z M196.8,388.4
		c0-10.3-8.3-18.6-18.6-18.6c-10.3,0-18.6,8.3-18.6,18.6c0,10.3,8.3,18.6,18.6,18.6C188.4,407,196.8,398.7,196.8,388.4z M77.9,320.6
		c0-8.3,0-14.2,0-15.6c0-17.1,3.8-32.1,10.6-43.4l31.5-45.1h-3.8c-1.5,0-2.7-1.2-2.7-2.6c0-0.7,0.3-1.3,0.4-1.3
		c1-1.7,12.4-19.9,68.4-19.9c4.7,0,18.4,0,37.4,0v5.7c0,2.9,2.3,5.2,5.2,5.2c2.9,0,5.2-2.3,5.2-5.2v-5.7c18.5,0,40.7,0,63.9,0
		c-2.7,9.1-5.6,20.4-8.1,33.4c-0.5-2.1-2.4-3.7-4.7-3.7h-46.5c-2.7,0-4.9,2.2-4.9,4.9v30.2c0,2.7,2.2,4.9,4.9,4.9h45.7
		c-0.5,4.7-0.9,9.4-1.2,14.3c-70.1,0-125.2,0-126.4,0c-15,0-28.1,2.1-38.8,6.1c-10.1,3.8-18.4,9.5-24.7,17
		C84.3,305.6,80.5,312.5,77.9,320.6z M198.8,222.8c4,1.2,6.6,4.3,5.9,7.1l-1.5,5.8c-0.2,0.6-0.4,1.2-0.8,1.7c0,1.3,1.5,1.4-0.1,6.7
		c-0.8,2.6-1.9,3.7-1,4.1c1.1,0.4,1.5-0.5,1.6,1.9c0.1,2.7,0.9,2.1,1.3,2.7c1,1.2,2,5.3,3.1,9.6c2.8,0,4.5,0,4.5,0
		c2.1,0,4.4-1.8,4.4-4.3v-30.7c0-3.2-2.3-4.5-4.3-4.5L198.8,222.8C198.8,222.8,198.8,222.8,198.8,222.8z M143.1,222.8l-19,39.5
		c3.8,0,10.7,0,19,0l-6.4-6.1c-0.9-0.9-1-2.3-0.1-3.3c0.9-0.9,2.3-1,3.3-0.1l10,9.4c9.9,0,21,0,31,0l1.2-1.6
		c1.5-2.1,2.6-3.5,2.7-3.7c3.3-5.8-2.6-4.1-7.9-5.8c-3.6-1.1-1.6-2.8-1.3-4.4c0.3-1.2-1-1.3-0.4-3.5c0.2-0.5-2.8-0.3-1.6-2.4
		c1-1.6,2.8-3.7,3.1-4.3c0.5-1,0.7-2.1-0.7-2.5c-2.1-0.7-6-0.7-5.8-2.1c0.3-2,5.4,0.6,7-4.4l1.2-4.5c0-0.1,0.1-0.2,0.1-0.3H143.1z
		 M100.3,259.1c0,1.8,1.5,3.3,3.2,3.3c0,0,5.6,0,14.1,0l19-39.5h-8.3c-1.4,0-3.5,0.2-5.3,2.7c-4.5,6.4-22.1,31.6-22.1,31.6
		C100.5,257.7,100.3,258.4,100.3,259.1z M178.2,400.8c6.9,0,12.4-5.6,12.4-12.5l-24.8,0C165.8,395.3,171.3,400.8,178.2,400.8z
		 M282.9,383.8c-29.3,0-52.8,0-52.8,0c-2.8,0-5-2-5.5-4.6l-0.3-1.1c-4.7-21.1-23.6-37-46.1-37c-21.8,0-40.1,14.8-45.6,34.8l-1.9,7.5
		c-0.7,2.7-3.4,4.9-6.1,4.9H68c-2.7,0-4.9-2.2-4.9-4.9v-8.4c0-2.7,2.2-4.9,4.9-4.9h10.9c0-0.9,0-14.1,0-15.3
		c0-22.6,4.7-39.2,14.4-51c-0.1,0.2-0.1,0.4-0.2,0.7c-1.2,4.7,0.1,9,2.7,9.6c2.7,0.7,5.7-2.6,6.9-7.3c1.2-4.7-0.1-9-2.7-9.6
		c0,0-0.1,0-0.1,0c12.1-10,29.5-14.9,52.8-14.9c1.2,0,56.2,0,126.1,0c0,0.2,0,0.4,0,0.6C276.8,320.4,278.3,356,282.9,383.8z
		 M98,339.1c0-9-3.2-16.3-7.1-16.3c-3.9,0-7.1,7.3-7.1,16.3c0,9,3.2,16.4,7.1,16.4S98,348.2,98,339.1z M210.5,292.1
		c-2.3,0-3.9,0.9-5,2.2h-15.7c-5.8,0-5.8,8.7,0,8.7h15.7c1.1,1.3,2.8,2.2,5,2.2C219.3,305.2,219.3,292.1,210.5,292.1z M137.7,179.1
		v-5c0-0.6,0.2-1.2,0.7-1.6c0.4-0.4,1-0.7,1.6-0.7l160.8,0c-0.6,1.5-1.1,3-1.7,4.6h-9.4v6.5h7.2c-0.5,1.5-1,3-1.5,4.6h-68.3v10.7
		c0,1.3-1,2.3-2.3,2.3c-1.3,0-2.3-1-2.3-2.3v-10.7h-76.4C141.5,187.6,137.7,183.8,137.7,179.1z M227.2,183h57.9v-6.5h-57.9V183z
		 M142.4,179.1c0,2.1,1.7,3.8,3.8,3.8h76.4v-6.5h-80.2V179.1z M482.6,368c3.8,5.9,5.9,12.9,5.9,20.4c0,21-17,38-38,38
		c-21,0-38.1-17-38.1-38c0-7.5,2.2-14.5,6-20.4H482.6z M469.1,388.4c0-10.3-8.3-18.6-18.6-18.6c-10.3,0-18.6,8.3-18.6,18.6
		c0,10.3,8.3,18.6,18.6,18.6C460.7,407,469.1,398.7,469.1,388.4z M404.3,288.3c-6.1,66.5-21.8,121.7-37.9,138.3H348
		c-4.7-5.9-8.5-16.6-11.2-30.9c-4.6,14.2-9.7,24.9-15.1,30.9h-19c-14.1-17.6-22.1-75.3-18.6-143.3c4.2-81.2,33.5-145.6,42.6-145.1
		c5.7,0.3,16.6,26.6,23,66c12.1-40.1,27.4-66.1,33.2-65.6C391.8,139.4,411.7,207.4,404.3,288.3z M369.6,167.9
		c-2.3,5.1-4.8,11-7.3,17.9c-10.8,29.2-18.4,63.3-21.3,95.8c-3.5,38.7-3.3,75.3,0.7,103.1c1.5,10.2,3.4,18.9,5.8,25.7L369.6,167.9z
		 M383.2,147.9c-0.4-0.8-0.7-1.5-1.1-2.1c-0.4,0.5-0.9,1.2-1.4,1.9l-25.2,276.2c0.5,0.3,0.9,0.4,1.2,0.5c0.4,0,0.8,0,1.3-0.2
		L383.2,147.9z M394.4,188.7c-1.3-7.2-2.6-13.5-3.9-18.9l-22.1,242.5c3.5-6.2,7-14.4,10.3-24.2c9-26.6,15.8-62.6,19.4-101.2
		C401,254.3,399.7,219.4,394.4,188.7z"/>
</g>
</svg>
