<?xml version="1.0" encoding="utf-8"?>
<!-- Generator: Adobe Illustrator 18.0.0, SVG Export Plug-In . SVG Version: 6.00 Build 0)  -->
<!DOCTYPE svg PUBLIC "-//W3C//DTD SVG 1.1//EN" "http://www.w3.org/Graphics/SVG/1.1/DTD/svg11.dtd">
<svg version="1.1" id="Layer_1" xmlns="http://www.w3.org/2000/svg" xmlns:xlink="http://www.w3.org/1999/xlink" x="0px" y="0px"
	 viewBox="0 90 612 612" enable-background="new 0 90 612 612" xml:space="preserve">
<circle cx="306" cy="396" r="306"/>
<g>
	<path fill="#FFFFFF" d="M204.2,207.4c-40.6,0-73.4,111.8-73.4,249.8c0,58.4,6.1,111.8,15.6,155.2H262c1.7-7.8,3.3-16.1,5-25
		c6.7-37.8,10.6-82.9,10.6-130.2C277.6,319.2,244.8,207.4,204.2,207.4z"/>
	<path fill="#FFFFFF" d="M508.5,229.6c-43.4,7.8-128.5,91.8-202.5,202c-1.1,1.1-1.7,2.8-2.8,3.3c0,7.8,0,15.6,0,22.3
		c0,23.9-1.1,48.4-2.8,71.8L508.5,229.6z"/>
	<path fill="#FFFFFF" d="M532.4,240.2L293.8,586.8c0,1.7-1.1,4.5-1.1,6.1s-1.1,4.5-1.1,6.1l38.9,13.9
		c34.5-35.6,71.8-81.2,106.8-133.5C509.1,371,547.5,273,532.4,240.2z"/>
</g>
</svg>
