<?xml version="1.0" encoding="utf-8"?>
<!-- Generator: Adobe Illustrator 18.0.0, SVG Export Plug-In . SVG Version: 6.00 Build 0)  -->
<!DOCTYPE svg PUBLIC "-//W3C//DTD SVG 1.1//EN" "http://www.w3.org/Graphics/SVG/1.1/DTD/svg11.dtd">
<svg version="1.1" id="Layer_1" xmlns="http://www.w3.org/2000/svg" xmlns:xlink="http://www.w3.org/1999/xlink" x="0px" y="0px"
	 viewBox="0 0 612 612" enable-background="new 0 0 612 612" xml:space="preserve">
<g>
	<circle fill="#24B34B" cx="306" cy="306" r="306"/>
	<g>
		<path fill="#FFFFFF" d="M107.9,462.9c1.7-5,7.2-7.2,12.2-5c10,3.9,21.7,3.9,32.3,0l0,0c14.5-6.1,31.2-6.1,46.2,0l0,0
			c10,3.9,21.7,3.9,32.3,0l0,0c14.5-6.1,31.2-6.1,46.2,0c5,1.7,7.2,7.2,5,12.2c-1.7,3.9-5,6.1-8.9,6.1c-1.1,0-2.2,0-3.3-0.6
			c-10-3.9-21.7-3.9-32.3,0l0,0c-7.2,2.8-15,4.5-22.8,4.5s-15.6-1.7-22.8-4.5l0,0c-10-3.9-21.7-3.9-32.3,0l0,0
			c-7.2,2.8-15,4.5-22.8,4.5s-15.6-1.7-22.8-4.5C108.5,472.9,106.3,467.3,107.9,462.9z M276.5,490.7c-14.5-6.1-31.2-6.1-46.2,0l0,0
			c-10,3.9-21.7,3.9-32.3,0l0,0c-14.5-6.1-31.2-6.1-46.2,0l0,0c-10,3.9-21.7,3.9-32.3,0c-5-1.7-10,0.6-12.2,5c-1.7,5,0.6,10,5,12.2
			c7.2,2.8,15,4.5,22.8,4.5s15.6-1.7,22.8-4.5l0,0c10-3.9,21.7-3.9,32.3,0l0,0c7.2,2.8,15,4.5,22.8,4.5s15.6-1.7,22.8-4.5l0,0
			c10-3.9,21.7-3.9,32.3,0c1.1,0.6,2.2,0.6,3.3,0.6c3.9,0,7.2-2.2,8.9-6.1C283.7,497.9,281.5,492.9,276.5,490.7z M276.5,390.6
			c-14.5-6.1-31.2-6.1-46.2,0l0,0c-10,3.9-21.7,3.9-32.3,0l0,0c-14.5-6.1-31.2-6.1-46.2,0l0,0c-10,3.9-21.7,3.9-32.3,0
			c-5-1.7-10,0.6-12.2,5c-1.7,5,0.6,10,5,12.2c7.2,2.8,15,4.5,22.8,4.5s15.6-1.7,22.8-4.5l0,0c10-3.9,21.7-3.9,32.3,0l0,0
			c7.2,2.8,15,4.5,22.8,4.5s15.6-1.7,22.8-4.5l0,0c10-3.9,21.7-3.9,32.3,0c1.1,0.6,2.2,0.6,3.3,0.6c3.9,0,7.2-2.2,8.9-6.1
			C283.7,398.4,281.5,392.8,276.5,390.6z M276.5,423.9c-14.5-6.1-31.2-6.1-46.2,0c-10,3.9-21.7,3.9-32.3,0l0,0
			c-14.5-6.1-31.2-6.1-46.2,0c-10,3.9-21.7,3.9-32.3,0c-5-1.7-10,0.6-12.2,5c-1.7,5,0.6,10,5,12.2c7.2,2.8,15,4.5,22.8,4.5
			s15.6-1.7,22.8-4.5c10-3.9,21.7-3.9,32.3,0l0,0c7.2,2.8,15,4.5,22.8,4.5s15.6-1.7,22.8-4.5c10-3.9,21.7-3.9,32.3,0
			c1.1,0.6,2.2,0.6,3.3,0.6c3.9,0,7.2-2.2,8.9-6.1C283.7,431.7,281.5,426.2,276.5,423.9z M396.1,268.7L396.1,268.7h-0.6
			C396.1,268.7,396.1,268.7,396.1,268.7z M283.7,112.4c-3.3,1.1-6.7,2.2-9.5,3.3C277.1,114.1,280.4,112.9,283.7,112.4z M241.5,127.4
			c3.3-1.1,6.1-2.8,9.5-3.9C248.1,124.6,244.8,126.3,241.5,127.4z M396.7,240.3c-25-1.1-50.6,2.2-75.7,10.6l95.7,262l-20,7.2
			l-95.7-262c-23.9,10-45.1,23.9-63.4,40.1l0,0l0,0c-23.4-2.2-47.8-1.1-72.3,5c-24.5,5.6-46.7,15-67.3,27.3
			c5-87.9,59-167.5,143-202.5l0,0c0,0,0.6,0,0.6-0.6l0,0c3.9-1.7,7.8-3.3,12.2-4.5l-3.3-8.3l17.8-6.1l3.3,8.3
			c3.9-1.7,8.3-2.8,12.2-4.5l0,0h0.6l0,0c86.8-27.3,179.7-0.6,239.8,63.4c-23.4,3.3-46.7,10.6-69,22.3
			C432.9,208.6,413.4,223.7,396.7,240.3L396.7,240.3z M311.6,253.7L311.6,253.7L311.6,253.7L311.6,253.7z M380.6,229.8
			c-28.4-64.5-65.1-107.4-94.6-107.4c-6.7,2.2-13.4,4.5-19.5,7.2l-1.1,0.6c-6.1,2.2-12.8,4.5-19.5,7.2c-18.9,16.1-26.1,65.7-3.3,143
			c19.5-15,41.2-27.3,64.5-36.2C331.6,235.3,355.5,230.9,380.6,229.8z"/>
	</g>
</g>
</svg>
