<?xml version="1.0" encoding="utf-8"?>
<!-- Generator: Adobe Illustrator 18.0.0, SVG Export Plug-In . SVG Version: 6.00 Build 0)  -->
<!DOCTYPE svg PUBLIC "-//W3C//DTD SVG 1.1//EN" "http://www.w3.org/Graphics/SVG/1.1/DTD/svg11.dtd">
<svg version="1.1" id="Layer_1" xmlns="http://www.w3.org/2000/svg" xmlns:xlink="http://www.w3.org/1999/xlink" x="0px" y="0px"
	 viewBox="56 56 500 500" enable-background="new 56 56 500 500" xml:space="preserve">
<path fill="#FFFFFF" d="M474.7,68.1c-2,87.5-27.4,169.1-70.1,239.1c-7.4-2.5-15.3-4.5-23.6-5.8l-17.1-43.5
	c-4-10.1-13-17.2-23.7-18.8l-57.8-8.4l12.3-78.2l26-3.5c9.2-1.2,18.4-0.1,27,3.3l27.2,10.9c3.4,1.3,7.1-0.3,8.5-3.6l4.9-12.3
	c1.3-3.3-0.3-7.1-3.6-8.5l-37.6-15.1c-5.9-2.4-12.3-3.4-18.7-3l-9.2,0.6c1.1-3,1.6-6.3,1.6-9.7c0-16.9-14.2-30.5-31.3-29.6
	c-15.2,0.8-27.4,13.2-28,28.4c-0.3,6.6,1.7,12.7,5,17.8c-7.1,1.6-43.6,13.1-43.6,13.1l5.3-20.3c0.9-3.4-1.2-7-4.6-7.9l-12.9-3.4
	c-3.4-0.9-7,1.2-7.9,4.6l-10.1,38.7c-3.2,12.2,8.2,23.2,20.3,19.5l24.2-7.3c-0.8,4.1-1.7,8.2-2.5,12.2c-3.8,18.3-11.1,39.2-3.9,57.4
	c6.8,17.2,26,28.2,43.6,31.5c19.1,3.5,38.8,4.9,58.1,7.2l10.2,26c-9.3,0.4-18.9,1.5-28.5,3.3c-7.7,1.4-15.2,3.2-22.4,5.4
	c0-0.2-8.8-22.5-10.3-26.1c-9.4-2.6-18.7-6.3-27-11.2c-13.2-7.7-24.6-19.3-28.3-34.6c-0.8-3.2-1.2-6.4-1.4-9.4
	c-3.1,24.3,3.6,49,18.9,68.5l8.7,11.1l2.8,3.6c0.8,1,1.3,2,1.8,3.2c0.9,2.3,1.1,4.9,0.4,7.4l-0.4,1.6c-20.2,10.6-36.7,24.1-47.9,39
	c-0.7,1-0.5,2.3,0.6,3c20.9,13.2,49.4,20.8,81.1,20.8c9.6,0,9.6,0,29.4-2.1c13.3-2.5,26.8-7.5,39.8-13.6
	C284.7,457,179,517.6,59.1,534.1c38.9,11.4,80.9,17.6,124.6,17.6c203.4,0,368.3-134.3,368.3-299.9C552,182.6,523.1,118.9,474.7,68.1
	z M479.9,85.4c0,0,47,50.1,57.1,107.4c5.1,29,9.1,32.2-1.6,74.5C533.6,209.6,479.9,85.4,479.9,85.4z"/>
</svg>
