<?xml version="1.0" encoding="utf-8"?>
<!-- Generator: Adobe Illustrator 18.0.0, SVG Export Plug-In . SVG Version: 6.00 Build 0)  -->
<!DOCTYPE svg PUBLIC "-//W3C//DTD SVG 1.1//EN" "http://www.w3.org/Graphics/SVG/1.1/DTD/svg11.dtd">
<svg version="1.1" id="Layer_1" xmlns="http://www.w3.org/2000/svg" xmlns:xlink="http://www.w3.org/1999/xlink" x="0px" y="0px"
	 viewBox="56 56 500 500" enable-background="new 56 56 500 500" xml:space="preserve">
<g>
	<g>
		<circle fill="#FFFFFF" cx="181.8" cy="347" r="26.1"/>
		<circle fill="#FFFFFF" cx="305.1" cy="347" r="26.1"/>
		<path fill="#FFFFFF" d="M498.9,339c-4.3-4.2-11.1-3.7-15.4,0.5l-38.2,38.7h-31.6l-38.2-38.7c-1.1-1.1-2.5-2.2-3.9-2.7
			c-3.9-1.6-8.6-0.4-11.8,2.8l-38.2,38.7H290l-37.8-38.3c-0.1-0.1-0.2-0.6-0.4-0.7c-2.1-2.1-4.9-3.3-7.7-3.3c-2.8,0-5.6,1-7.7,3.1
			c-0.1,0.1-0.2,0.8-0.4,1l-37.8,38.3h-31.6l-38.2-38.8c-4.3-4.2-11.1-4.5-15.4-0.3c-4.2,4.2-2.9,11,1.3,15.2l41.1,39.7v63.3v11.1
			v71.3c0,7.5,5.1,13.6,11.1,13.6c6,0,11.1-6.1,11.1-13.6v-72.3H189v72.3c0,7.5,5.1,13.6,11.1,13.6c6,0,11.2-6.1,11.2-13.6v-71.3
			v-11.1v-62.1l34-33.3l32.8,32.1v63.3v11.1v71.3c0,7.5,5.1,13.6,11.1,13.6c6,0,11.1-6.1,11.1-13.6v-72.3h11.1v72.3
			c0,7.5,5.1,13.6,11.1,13.6c6,0,11.2-6.1,11.2-13.6v-71.3v-11.1v-62l34-33.4l32.9,32.4v63.3v11.1v71.3c0,7.5,5.1,13.6,11.1,13.6
			c6,0,11.1-6.1,11.1-13.6v-72.4h11.1v72.4c0,7.5,5.1,13.6,11.1,13.6c6,0,11.1-6.1,11.1-13.6v-71.3v-11.1v-62l41.7-41
			C502.4,350.1,503.1,343.2,498.9,339z"/>
		<circle fill="#FFFFFF" cx="428.9" cy="347.2" r="26.1"/>
		<path fill="#FFFFFF" d="M213,106.9l38.9,23.5c1.7,0.9,3.6,1.4,5.6,1.4l32.1-1.6L255,173.3c-4.7,6.4-6.3,14.6-4.2,22.5l18.7,40.9
			l-33,37.3c-3.6,4.3-4.9,10.5-2.6,16.1c3.2,8.1,12.3,11.9,20.4,8.7c2.5-1,4.7-2.6,6.2-4.5l40.4-45.8c2.8-3.5,3.9-8.2,2.9-12.9
			l-11.6-25.5l49.4,15.6l17.7,56.6c0.1,0.3,0.2,0.7,0.4,1.1c3.2,8.1,12.4,12,20.4,8.8c7.5-3.1,11.5-11.3,9.2-19.1l-20-64.7
			c-0.1-0.3-0.2-0.6-0.3-0.8c-1.8-4.4-5.3-7.5-9.4-8.9L314,184.5l38.2-46.3l64.5,21.4c2.9,1.1,6.3,1,9.3-0.3c6.1-2.8,8.8-10,6-16.1
			c-1.5-3.3-4.3-5.5-7.5-6.6l-88.9-29.4c0.4-0.2,0.9-0.3,1.3-0.5c12.8-5.7,18.4-20.8,12.6-33.5c-5.7-12.8-20.7-18.5-33.5-12.7
			c-12.8,5.8-18.5,20.8-12.7,33.5c2.2,4.9,5.7,8.7,10,11.3l-49.5,4l-38.1-23c-2.9-1.7-6.3-2.1-9.7-1c-6.3,2-9.9,8.9-7.8,15.3
			C209.1,103.2,210.8,105.4,213,106.9z"/>
		<path fill="#FFFFFF" d="M175.6,305.8c256,26.8,295.7-20.8,295.7-20.8c-17.9-14.1-48.7-17.5-82.3-20.7l2.6,8.3
			c2.6,8.9-1.9,18.2-10.5,21.7c-2.2,0.9-4.4,1.3-6.7,1.3c-7.3,0-13.9-4.4-16.6-11.2c-0.1-0.3-0.2-0.5-0.3-0.7c0-0.1-0.1-0.2-0.1-0.3
			l-0.1-0.1l0-0.1l-6.6-21.1c-19.4-0.6-39.3-0.5-58.9,0.2l-29.6,33.6c-1.9,2.3-4.3,4.1-7.1,5.1c-2.1,0.9-4.4,1.3-6.7,1.3
			c-7.3,0-13.8-4.4-16.6-11.2c-2.5-6.1-1.4-13.1,3-18.3l0-0.1l7-7.9C183.9,268.7,139,275,139,275l28.6,11.3L139,299.3L175.6,305.8z"
			/>
	</g>
</g>
</svg>
