<?xml version="1.0" encoding="utf-8"?>
<!-- Generator: Adobe Illustrator 18.0.0, SVG Export Plug-In . SVG Version: 6.00 Build 0)  -->
<!DOCTYPE svg PUBLIC "-//W3C//DTD SVG 1.1//EN" "http://www.w3.org/Graphics/SVG/1.1/DTD/svg11.dtd">
<svg version="1.1" id="Layer_1" xmlns="http://www.w3.org/2000/svg" xmlns:xlink="http://www.w3.org/1999/xlink" x="0px" y="0px"
	 viewBox="56 56 500 500" enable-background="new 56 56 500 500" xml:space="preserve">
<g>
	<path fill="#FFFFFF" d="M550.5,350c-1.1-3.5-4.8-5.4-8.3-4.4c-27.9,8.7-92.6,30.7-135.4,30.7c-39.3,0-62.4-22.8-62.4-48.6
		c0-26.3,18.7-47.6,47.6-47.6c12.6,0,24.1,4.9,32.6,13c1.2,1.3,3,2.1,4.9,2c3.4-0.2,5.9-3.2,5.7-6.5c-1-53.8-40.7-98.3-94.5-92.6
		c-8.3,0.9-17.2,3.8-24.9,6.9c-42.3,17.4-65.7,59.3-97,89.9c-20.9,20.4-45.4,37.4-70.6,52.1c-26.2,15.4-54.8,27.7-84.1,35.8
		c-3.6,0.8-5.8,4.4-5,7.9c0.8,3.6,4.4,5.8,7.9,5c12-3.2,23.8-7.8,35.8-11.3c40-11.8,81.2-21.7,122.7-25.8c24.4-2.4,49.2-2.2,73,3.8
		c11.3,2.9,22.2,7,32.8,12c10.4,5,20,11.9,30.5,16.7c31.3,14.4,66.3,8.6,98-1.9c25.9-8.5,58.8-21,86.2-28.9
		C549.7,357.2,551.6,353.5,550.5,350z"/>
	<circle fill="#FFFFFF" cx="428.7" cy="206.4" r="4.9"/>
	<circle fill="#FFFFFF" cx="460.2" cy="340.8" r="3.2"/>
	<circle fill="#FFFFFF" cx="454.6" cy="306.7" r="3.2"/>
	<circle fill="#FFFFFF" cx="394.9" cy="173.7" r="4.1"/>
	<circle fill="#FFFFFF" cx="405.7" cy="159.8" r="2.9"/>
	<circle fill="#FFFFFF" cx="464.3" cy="254.7" r="2.8"/>
	<circle fill="#FFFFFF" cx="428.3" cy="307.3" r="3.7"/>
	<circle fill="#FFFFFF" cx="357.2" cy="174" r="3.7"/>
	<circle fill="#FFFFFF" cx="443.4" cy="212.1" r="3.7"/>
	<circle fill="#FFFFFF" cx="468" cy="273.8" r="3.7"/>
	<circle fill="#FFFFFF" cx="444" cy="242.2" r="5.9"/>
	<circle fill="#FFFFFF" cx="439.4" cy="319.5" r="5.9"/>
</g>
</svg>
