<?xml version="1.0" encoding="utf-8"?>
<!-- Generator: Adobe Illustrator 18.0.0, SVG Export Plug-In . SVG Version: 6.00 Build 0)  -->
<!DOCTYPE svg PUBLIC "-//W3C//DTD SVG 1.1//EN" "http://www.w3.org/Graphics/SVG/1.1/DTD/svg11.dtd">
<svg version="1.1" id="Layer_1" xmlns="http://www.w3.org/2000/svg" xmlns:xlink="http://www.w3.org/1999/xlink" x="0px" y="0px"
	 viewBox="56 56 500 500" enable-background="new 56 56 500 500" xml:space="preserve">
<g>
	<path fill="#FFFFFF" d="M216.1,253.6c-0.5-10.7-1.1-20.3-1.6-29.9C209.1,152.5,192,107,158.3,70.7c-3.7-3.7-9.6-4.3-13.4-0.5
		c-36.9,33.7-56.7,78.1-66.8,148.7c-2.7,18.7-4.8,40.6-6.4,66.8c-0.5,10.2-1.1,20.9-1.6,35.8c-0.5,10.2-0.5,20.9-0.5,33.2
		c0,24.1,1.1,47.6,2.7,70.6c1.1,15.5,2.7,30.5,4.8,43.3c3.2,21.4,7.5,40.1,12.3,55.6c-1.1,0-1.6,0-2.7,0c-7.5,0-20.3-1.1-20.3,10.2
		c0,11.8,13.9,9.1,21.9,9.1c9.6,0,19.8,1.1,29.4,1.6h2.1c13.9,1.6,27.3,2.7,41.2,2.7c7.5,0,21.9,2.1,27.8-3.2
		c6.4-5.9,1.6-16.6-6.4-16.6c5.9-15.5,11.8-34.8,16.6-56.7c3.2-13.4,5.9-28.3,8-43.8c2.1-16,4.3-32.6,5.9-49.2
		c0.5-1.1,0.5-2.7,0.5-4.3c0.5-4.8,1.1-9.6,1.1-15c0.5-12.3,1.1-23,1.6-33.2c0.5-10.2,0.5-23.5,0.5-35.8s0-23.5-0.5-34.2
		C216.1,255.2,216.1,254.6,216.1,253.6z M187.7,425.2c-1.6,11.2-3.7,22.5-5.9,33.2c-2.1-6.4-4.8-12.3-7.5-17.6
		c-7.5-15.5-16-28.9-27.3-41.7c-1.6-2.1-4.3-3.2-7-3.2s-5.3,1.1-7,2.7c-11.8,11.8-21.9,25.1-29.9,39.6c-3.2,5.3-5.9,11.2-8.6,17.6
		c-1.1-10.2-2.7-20.3-3.2-31.5c-1.6-16.6-2.1-33.2-2.7-50.3c7-17.6,15-32.6,25.1-46c8.6-11.2,18.7-21.4,30.5-30.5
		c11.2,10.2,20.3,20.9,28.3,32.6c9.1,13.9,16,29.4,21.4,47.1C192,392.6,189.9,409.2,187.7,425.2z M187.7,318.8
		c-10.2-15.5-22.5-28.9-37.4-41.7c-3.2-2.7-8-3.2-11.8-0.5c-16,11.8-29.4,24.6-40.1,39c-3.2,4.3-6.4,9.1-9.6,13.9c0-2.7,0-4.8,0-7
		c0.5-15,1.1-25.7,1.6-35.3c0.5-12.3,1.6-23.5,2.7-33.7c6.4-18.2,15-33.2,25.1-47.1c8.6-11.2,18.2-21.4,29.9-30.5
		c10.7,10.2,19.8,20.9,27.8,32.6c9.1,13.9,16,29.4,21.4,47.6c0.5,10.7,0.5,21.9,0.5,34.2c0,12.3-0.5,25.7-0.5,35.3
		c0,2.1,0,4.3,0,6.4C193.6,327.9,191,323.1,187.7,318.8z M150.3,91c22.5,27.3,35.3,61,41.7,108.6c-0.5-0.5-0.5-1.1-1.1-1.6
		c-10.2-15.5-21.9-28.9-36.9-41.7c-3.2-2.7-8.6-3.2-11.8-0.5c-16,11.8-28.9,24.6-39.6,39c-0.5,0.5-1.1,1.1-1.1,2.1
		C110.7,149.8,126.2,116.7,150.3,91z M119.3,526.3c-3.2-0.5-6.4-0.5-10.2-1.1v-0.5c-3.2-9.1-5.9-19.3-8.6-31
		c5.3-17.6,11.2-33.2,18.7-46.5c5.9-10.2,12.3-19.3,19.8-27.8c7,9.1,12.8,18.7,17.6,28.9c6.4,13.9,11.8,29.4,15.5,47.6
		c-3.7,12.3-7.5,23.5-11.8,32.6c-13.4,0-26.2-0.5-39.6-2.1L119.3,526.3z M506.4,131.6l-0.5-0.5c-3.2-3.2-8.6-3.7-12.3-1.1
		c-38.5,26.7-59.9,94.1-67.4,212.3c-4.8,77.5,1.1,148.1,15,186.6c-0.5,0-1.1,0-1.6,0c-6.4-0.5-15-2.7-19.3,3.2c-4.3,5.9,0,14.4,7,15
		c8.6,0.5,17.1,1.1,25.7,1.1c4.8,0,9.1,0,13.9,0l13.9-0.5c9.6-0.5,19.3-0.5,28.9,0c8,0.5,23.5,4.3,24.6-8
		c1.1-11.8-13.4-10.7-21.4-11.2c16-37.4,28.3-102.1,33.2-178.6C553,232.7,540.7,163.7,506.4,131.6z M445.5,343.4
		c5.9-90.4,19.8-149.7,42.8-181.3l-24.6,366.8c-0.5,0-1.6,0-2.1,0C447.1,495.8,440.1,423.1,445.5,343.4z M526.2,348.7
		c-4.8,79.1-18.2,147.1-35.3,179.7c-2.7,0-5.3,0-8,0L507,164.3C525.7,198.5,532.1,258.9,526.2,348.7z M387.2,368.5v-1.1
		c-8-103.7-32.6-162-78.1-184.5c-3.2-1.6-7-1.1-9.6,0.5c-41.2,28.9-56.7,90.4-48.7,194.1c0.5,7.5,1.1,15,2.1,23v0.5
		c6.4,51.9,18.7,96.8,34.8,125.7c-4.8,0.5-10.2,0.5-13.4,2.7c-8.6,5.9-4.8,19.3,4.8,19.3c5.9,0,12.3-1.6,18.2-2.1
		c5.9-0.5,11.8-1.1,17.6-1.6c11.2-0.5,23-1.1,34.2-0.5c5.9,0,12.3,0.5,18.2,1.1c4.3,0.5,9.6,2.1,13.9,1.1c9.1-2.1,9.6-15.5,0.5-18.7
		c-2.7-1.1-5.9-1.6-8.6-1.6C386.1,489.4,391.5,430,387.2,368.5z M268.5,361.6c-0.5-5.3-0.5-10.2-0.5-15l80.7-81.3
		c1.1,3.7,2.7,8,3.7,11.8L268.5,361.6z M305.4,203.3c14.4,8.6,25.7,22.5,35.3,42.2L268,319.3C269,261.6,281.3,223.6,305.4,203.3z
		 M311.3,525.7c-0.5,0-1.6,0-2.1,0c-17.1-25.7-31-72.2-37.4-125.7v-0.5c-0.5-4.3-1.1-8.6-1.6-12.8l87.7-88.2
		c4.3,20.3,7.5,43.8,9.6,70.1v1.1c4.8,62-1.6,123-15.5,155.1c-2.1,0-4.3,0-6.4,0C334.3,524.7,323,525.2,311.3,525.7z"/>
</g>
</svg>
