<?xml version="1.0" encoding="utf-8"?>
<!-- Generator: Adobe Illustrator 18.0.0, SVG Export Plug-In . SVG Version: 6.00 Build 0)  -->
<!DOCTYPE svg PUBLIC "-//W3C//DTD SVG 1.1//EN" "http://www.w3.org/Graphics/SVG/1.1/DTD/svg11.dtd">
<svg version="1.1" id="Layer_1" xmlns="http://www.w3.org/2000/svg" xmlns:xlink="http://www.w3.org/1999/xlink" x="0px" y="0px"
	 viewBox="56 56 500 500" enable-background="new 56 56 500 500" xml:space="preserve">
<g>
	<path fill="#FFFFFF" d="M519.7,442.4c-3.3-11.7-10-45-11-57.5c-1.3-15.9,4.3-29.3,3.4-46.4c-0.9-17-4.2-33.7-6.7-50.4
		c-2.7-17.9-0.8-30.1,0.6-47.8c1.3-16.2,4.5-28,9.1-43.3c2.1-7,2.3-14.1,4.1-21c1.9-7.2,5.9-13.6,8.4-20.6
		c4.7-13.1,6.5-30.1,13-42.4c3.6-6.7,8.4-13.7,4.1-21.4c-4.6-8.2-13.4-9.2-21.6-7.1c-18.8,4.8-30.9,14.5-42.3,29.7
		c-11.2,14.8-12.2,23.6-17.8,40.6c-8.1,24.4-12.9,73.9-49.1,68.9c-15.2-2.1-20.9-22.8-30.6-35.1c-8.5-10.9-19.5-32.2-32-36.7
		c-13-4.6-30.7-10.1-42.8-1.5c-15.8,11.3-14.8,26-9.5,42.6c-10.5,1.6-24.3,8-28.5,18.6c-1.7,4.2-2.9,10.7-3.5,15.1
		c-1.1,7.8,2.6,12.9,2.6,16.6c-2.6-0.2-8.7-3.3-12.1-3.2c-4.6,0.1-9.9,0.9-13.9,3.1c-6.9,3.8-14.3,11.6-16.3,19.4
		c-2.2,9-2.4,17.4,0,26.4c1.2,4.3,3.5,10.9,5.6,14.9c2.4,4.6,1.8,10,3.5,12.6c-14.4-2.2-21.9-9.5-34.8-15.2
		c-13.5-6-21.2-7.8-34.5-16c-11.1-6.9-22.7-12.4-32.2-21.6c-9.2-8.8-19.9-19.4-30.6-26.2c-11.5-7.3-25.3-10.1-34.4,2.8
		c-9.4,13.4,4,27.5,13.1,36.7c19,19.4,40,34.2,60.9,51.4c19.8,16.3,44,25.5,64.3,42.4c9.3,7.8,19.5,20.5,28.6,29.6
		c10,10,18.4,21,28.8,30.9c9.3,8.8,20,17.6,31.6,23.2c36.6,17.7,40.1,15,58.7,55c6.2,13.4,21.3,26.8,34.8,21.8
		c46.5-17.1,63.7-25.9,95.6-40.2C518.2,476.7,522.9,453.6,519.7,442.4z"/>
</g>
</svg>
