<?xml version="1.0" encoding="utf-8"?>
<!-- Generator: Adobe Illustrator 18.0.0, SVG Export Plug-In . SVG Version: 6.00 Build 0)  -->
<!DOCTYPE svg PUBLIC "-//W3C//DTD SVG 1.1//EN" "http://www.w3.org/Graphics/SVG/1.1/DTD/svg11.dtd">
<svg version="1.1" id="Layer_1" xmlns="http://www.w3.org/2000/svg" xmlns:xlink="http://www.w3.org/1999/xlink" x="0px" y="0px"
	 viewBox="56 56 500 500" enable-background="new 56 56 500 500" xml:space="preserve">
<path fill="#FFFFFF" d="M306,63C174.7,63,67.9,169.9,67.9,301.4c0,113.4,79.7,208.6,185.9,232.5c-12.3-11.9-20.8-27.4-24-44.9
	c-73.9-30.2-126.1-102.9-126.1-187.6c0-81.9,48.8-152.5,118.8-184.4c-2.8,15.8,9.1,34,22.5,50.4c12.2,14.8,7,25.9-2.4,33.8
	c-2.9,2.4-4.1,6.5-2.8,10.1c1.3,3.6,4.7,6.1,8.5,6.1c121.2,1.8,150.8-67.2,157.5-92.1C467,160,508.4,225.9,508.4,301.4
	c0,80.2-46.8,149.7-114.5,182.5c-2.1,17.8-9.8,33.8-21.3,46.3c99-28.9,171.6-120.5,171.6-228.8C544.1,169.9,437.4,63,306,63z"/>
<circle fill="#FFFFFF" cx="242.5" cy="295.6" r="26.8"/>
<circle fill="#FFFFFF" cx="367.6" cy="295.6" r="26.8"/>
<path fill="#FFFFFF" d="M232.4,448.7c6.2-19.2,19.1-35.3,36-45.6c1.3-21.9,19.3-39.4,41.4-39.4c21.3,0,38.9,16.3,41.2,37.3
	c18.7,10.2,33.1,27.4,39.6,48c10.8-11.2,17.1-24.8,17.1-39.4c0-38.3-43-69.4-96-69.4s-96,31-96,69.4
	C215.7,424.2,221.9,437.6,232.4,448.7z"/>
<path fill="#FFFFFF" d="M311.5,400c-40.8,0-74.1,33.3-74.1,74.2c0,40.9,33.3,74.2,74.1,74.2c40.8,0,74.1-33.3,74.1-74.2
	C385.5,433.2,352.3,400,311.5,400z M311.5,512.5c-21.2,0-38.4-17.2-38.4-38.4c0-21.2,17.3-38.4,38.4-38.4
	c21.1,0,38.3,17.2,38.3,38.4C349.8,495.3,332.6,512.5,311.5,512.5z"/>
</svg>
