<?xml version="1.0" encoding="utf-8"?>
<!-- Generator: Adobe Illustrator 18.0.0, SVG Export Plug-In . SVG Version: 6.00 Build 0)  -->
<!DOCTYPE svg PUBLIC "-//W3C//DTD SVG 1.1//EN" "http://www.w3.org/Graphics/SVG/1.1/DTD/svg11.dtd">
<svg version="1.1" id="Layer_1" xmlns="http://www.w3.org/2000/svg" xmlns:xlink="http://www.w3.org/1999/xlink" x="0px" y="0px"
	 viewBox="56 56 500 500" enable-background="new 56 56 500 500" xml:space="preserve">
<g>
	<path fill="#FFFFFF" d="M129.2,474.3l-63,75.6c0,0,75.6,12.6,126.1-50.4L129.2,474.3z"/>
	<path fill="#FFFFFF" d="M154.4,474.3c-8.8,0-17.6-5-22.7-13.9c-6.3-12.6-1.3-27.7,11.3-34l87-42.9v-85.7
		c0-13.9,11.3-25.2,25.2-25.2s37.8,11.4,37.8,25.2l-12.6,100.9c0,10.1-5,18.9-13.9,22.7l-100.9,50.4
		C162,473.1,158.2,474.3,154.4,474.3z"/>
	<path fill="#FFFFFF" d="M425.4,84.8c24,0,44.1,20.2,44.1,44.1S449.4,173,425.4,173c-24,0-44.1-20.2-44.1-44.1
		C381.3,104.9,401.5,84.8,425.4,84.8z"/>
	<path fill="#FFFFFF" d="M526.3,290.3l-107.2-94.6l-1.3-1.3l-45.4-31.5c-2.5-1.3-5-2.5-7.6-2.5L281.7,144l-40.3-73.1
		c-3.8-10.1-15.1-13.9-25.2-10.1c-10.1,3.8-13.9,15.1-10.1,25.2l44.1,81.9c2.5,6.3,7.6,10.1,13.9,11.3l58,11.4L245.2,260
		c-18.9,16.4-20.2,44.1-3.8,61.8c5,5,11.3,8.8,17.6,11.4l83.2,52.9l-11.4,84.5c-2.5,13.9,7.6,26.5,21.4,29c1.3,0,2.5,0,3.8,0
		c12.6,0,22.7-8.8,25.2-21.4l12.6-100.9c1.3-10.1-2.5-20.2-11.4-25.2l-64.3-40.3l87-78.2l95.8,84.5c3.8,3.8,7.6,5,12.6,5
		c5.1,0,10.1-2.5,13.9-6.3C535.1,309.2,533.9,296.6,526.3,290.3z"/>
	<path fill="#FFFFFF" d="M407.8,526c-226.9,0-329-54.2-334.1-56.7c-7.6-3.8-8.8-11.4-6.3-17.7c3.8-6.3,11.3-7.5,17.6-5
		c1.3,1.3,132.4,59.2,446.3,49.2c7.6,0,12.6,5,13.9,11.4c1.3,6.3-5,12.6-11.3,13.9C488.5,524.8,445.6,526,407.8,526z"/>
</g>
</svg>
