<?xml version="1.0" encoding="utf-8"?>
<!-- Generator: Adobe Illustrator 18.0.0, SVG Export Plug-In . SVG Version: 6.00 Build 0)  -->
<!DOCTYPE svg PUBLIC "-//W3C//DTD SVG 1.1//EN" "http://www.w3.org/Graphics/SVG/1.1/DTD/svg11.dtd">
<svg version="1.1" id="Layer_1" xmlns="http://www.w3.org/2000/svg" xmlns:xlink="http://www.w3.org/1999/xlink" x="0px" y="0px"
	 viewBox="56 56 500 500" enable-background="new 56 56 500 500" xml:space="preserve">
<path fill="#FFFFFF" d="M549.7,253.8c-0.9-1-2.3-1.6-3.7-1.6H444.4l-85-63.4c-2-1.9-5.1-1.9-7.1,0.1c-1.2,1.2-1.7,2.9-1.3,4.5
	l9.1,58.6H142.3l-73-60.4c-2.1-1.8-5.3-1.5-7,0.6c-1.3,1.5-1.5,3.7-0.7,5.5l37.6,76l-17.9,62.5c-0.8,2.7,0.8,5.4,3.4,6.2
	c1.7,0.5,3.5,0,4.8-1.2l51.2-47.8c16,12.5,85.4,63.9,165,82.3c2,2.5,2.4,15,2.6,22.1c0.4,16.2,0.8,30,10.9,31.1h1
	c8.5,0,18.7-10,34.3-25.6c8.3-8.3,20.8-21,25-21.4c10.7-0.7,21.4-2.4,31.8-5C541,341.8,550.6,261.1,551,257.7
	C551.1,256.3,550.6,254.9,549.7,253.8z M478.6,337.6c-21.8-0.1-41.3-13.5-49.4-33.7c-0.9-2.6-3.8-4-6.4-3s-4,3.8-3,6.4
	c7.8,19.2,24.3,33.6,44.3,38.7c-17.5,9-35.9,16-55,21c-9.8,2.5-19.9,4.2-30,5c-7.7,0.7-16.9,9.7-31.4,24.3
	c-8.3,8.2-22,22.1-26.7,22.6c-1.8-2.8-2.1-14.4-2.3-21.5c-0.4-15.8-0.8-29.4-10-31.5c-88.6-20.3-164.3-82.5-165-83.1
	c-1.9-1.7-4.7-1.7-6.6,0l-41,38.8l13.4-47c0.3-1.2,0.2-2.5-0.3-3.6L81,214.2l56.3,46.8c0.9,0.7,2,1.2,3.2,1.1H366
	c2.8,0,5-2.2,5.1-4.9c0-0.3,0-0.5-0.1-0.8l-8-52.3l76.7,57.1c0.9,0.6,1.9,1,3,1h97.1C536.4,275.3,523.5,309.2,478.6,337.6z"/>
<circle fill="#FFFFFF" cx="495.1" cy="291.9" r="10"/>
</svg>
