<?xml version="1.0" encoding="utf-8"?>
<!-- Generator: Adobe Illustrator 18.0.0, SVG Export Plug-In . SVG Version: 6.00 Build 0)  -->
<!DOCTYPE svg PUBLIC "-//W3C//DTD SVG 1.1//EN" "http://www.w3.org/Graphics/SVG/1.1/DTD/svg11.dtd">
<svg version="1.1" id="Layer_1" xmlns="http://www.w3.org/2000/svg" xmlns:xlink="http://www.w3.org/1999/xlink" x="0px" y="0px"
	 viewBox="56 56 500 500" enable-background="new 56 56 500 500" xml:space="preserve">
<g>
	<path fill="#FFFFFF" d="M138.1,428.3c-11.4-8.6-27.6-6.4-36.2,5c-8.6,11.4-6.4,27.6,5,36.1c11.4,8.6,27.6,6.4,36.2-5
		C151.7,453.1,149.5,436.9,138.1,428.3z M322.9,60c-7.5,6.4-8.9,16.2-8.2,27.9c0.8,11.9,4.2,26.9,9.5,45.7c6,20.9,14.5,46.4,25.2,77
		c-4.8,6.9-9.9,7.3-18.3,10.1c-10.9,3.6-21,9-31,14.6c-24.5,13.8-36.7,32.2-53.4,67.4c-16.8,35.2-6.6,45.4-17.9,79
		c-5.1,15-14.5,23.6-24.2,28.9c-0.1-10.6-2.3-22.6-9.1-34.6c-11.6-20.6-33.3-35.8-34.2-36.4c-5.2-3.6-11.8-3.6-16.9-0.5
		c1.9-4.8,1.4-10.4-1.8-14.8c-5-6.9-14.7-8.5-21.7-3.5c-6.9,5-8.5,14.7-3.5,21.6c4.8,6.6,13.7,8.3,20.6,4.1
		c-2.7,6.5-0.6,14.3,5.4,18.6c0.2,0.1,16.8,11.9,24.9,26.2c6.7,11.8,5.6,24.1,3.8,31.9c-16.8,12.7-17.4,48.8-14.7,58.1
		c0.8,2.8,1.9,5.2,3,7.5c0.1,0.8,0.2,1.6,0.5,2.5c0.6,1.7,13.1,42.1,53.6,57.6c27.7,10.6,65.7,6.7,88.5-25.8
		c4.9-7,3.2-16.7-3.9-21.6c-7-4.9-16.7-3.2-21.6,3.8c-14,20-36.7,20.3-51.8,14.5c-8-3-14.4-7.8-19.4-12.8
		c19.1-3.3,54.4-20.8,74.7-47.6c14.2-18.8,16.3-39.3,18.1-54.8c1.8-15.5,6.8-24.4,17.6-27.5c10.8-3.1,58.6,10.6,66.6,16.6
		c1.9,1.4,3.6,2.3,5.1,2.8c5.6,43.6,8.5,76.7,8.6,77.5c0.2,2.1,0.6,4.2,1.2,6.4c3.2,10.8,10.9,20.4,20.2,27.5
		c9.4,7,20.6,11.8,31.9,10.9c2.7-0.2,5.3-0.7,7.8-1.5c3-0.9,5.9-2.1,8.7-3.5c1.5,0.5,3.2,1.1,4.9,1.8c4.7,1.9,10.6,5.3,16,8.3
		c2.7,1.5,6,3.6,8.2,2c2.1-1.5,2.7-4.1,1.1-7c-2-3.9-4.3-8.5-7.5-13.6c-1.4-2.3-3-4.6-4.7-6.8c5.7-7.8,9.1-17.2,8.4-27.3
		c-0.1-0.7-0.3-2.9-0.6-6.1c3.8,1.8,8.1,4.3,12,6.5c2.8,1.6,6.1,3.6,8.2,2c2.1-1.5,2.7-4.1,1.1-7c-2-3.9-4.3-8.5-7.4-13.6
		c-4.4-7.3-10.8-14.3-17.3-20.4c-5.9-54-18.6-152.9-38.6-223c-3-10.6-6.3-20.5-9.6-29.6c-17.3-46-38.9-77.8-59.2-97.7
		C372.1,72,362.4,65,353.5,60.8c-8.9-4.2-17-5.9-24.4-3.9C326.8,57.5,324.7,58.5,322.9,60z M333.2,327.8
		c-21.8-10.3-47.8,3.1-47.8,3.1s0.9-14.9,11.3-30.4c7.2-10.6,10.5-18.3,29.8-34.6c6.7-5.7,14-11.1,22.1-14.6c3-1.3,9.4-1.8,12.8-3.4
		c9,32.9,16.3,73,21.9,110.3C377.6,354.4,347.2,334.4,333.2,327.8z M347.5,73.4c21.4,10,56,44.6,80.8,111.1
		c3.2,8.7,6.3,18.3,9.3,28.6c18,62.7,30.1,150.4,36.5,206c-6.2-4.7-10.6-7.5-10.6-7.5l4.5,45.6c0,0,3.4,0.1,10.4,2.1
		c0.7,7.1,1.1,11.6,1.2,12.7c0.6,4.9-1.1,10.3-4.1,15.3c-13.6-13.5-29.1-23.3-29.1-23.3l4,40.3c-0.3,0-0.7,0.2-1,0.2
		c-6.2,0.6-14.8-2.5-22.2-8.1c-7.3-5.5-13.2-13.2-15.1-20l-0.1-0.2c-0.4-1.3-0.6-2.6-0.7-3.8c-0.2-1.8-12.5-145.5-37.8-233.9
		c-2-7.1-4.1-13.8-6.3-20.1c-12.7-36.1-22.7-65.6-29.4-88.8c-5.3-18.3-8.4-32.7-9-42.8c-0.8-10.3,1.4-15,3-16
		c0.2-0.2,0.6-0.4,1.2-0.6C335,69.6,340.4,70,347.5,73.4z M434.6,445.4c4.7,1.8,10.6,5.3,16,8.3c2.7,1.5,6,3.6,8.2,2
		c2.1-1.5,2.7-4,1.2-7c-2-3.9-4.4-8.5-7.4-13.6c-13.2-21.8-43.5-41-43.5-41l4.5,45.7C413.5,439.7,420.2,439.8,434.6,445.4z"/>
</g>
</svg>
