<?xml version="1.0" encoding="utf-8"?>
<!-- Generator: Adobe Illustrator 18.0.0, SVG Export Plug-In . SVG Version: 6.00 Build 0)  -->
<!DOCTYPE svg PUBLIC "-//W3C//DTD SVG 1.1//EN" "http://www.w3.org/Graphics/SVG/1.1/DTD/svg11.dtd">
<svg version="1.1" id="Layer_1" xmlns="http://www.w3.org/2000/svg" xmlns:xlink="http://www.w3.org/1999/xlink" x="0px" y="0px"
	 viewBox="0 0 100 100" enable-background="new 0 0 100 100" xml:space="preserve">
<circle fill="#FFFFFF" cx="50.5" cy="41.4" r="33.1"/>
<path fill="#ED1C24" d="M50.5,0.7C27.9,0.7,9.5,19,9.5,41.6c0,0,0,0,0,0c0,17.2,10.8,32.6,27,38.4l13.9,19.3L64.4,80
	c16.2-5.9,27-21.2,27-38.4C91.4,19,73.1,0.7,50.5,0.7C50.5,0.7,50.5,0.7,50.5,0.7z M50.5,11.2c16.8,0,30.4,13.6,30.4,30.4
	c0,16.8-13.6,30.4-30.4,30.4c-16.8,0-30.4-13.6-30.4-30.4C20.1,24.8,33.7,11.2,50.5,11.2C50.5,11.2,50.5,11.2,50.5,11.2z"/>
<rect x="20.1" y="18.7" fill="none" width="60.7" height="44.5"/>
<text transform="matrix(1 0 0 1 33.2533 62.7156)" fill="#010101" font-family="'MyriadPro-Bold'" font-size="62">1</text>
</svg>
