<?xml version="1.0" encoding="utf-8"?>
<!-- Generator: Adobe Illustrator 18.0.0, SVG Export Plug-In . SVG Version: 6.00 Build 0)  -->
<!DOCTYPE svg PUBLIC "-//W3C//DTD SVG 1.1//EN" "http://www.w3.org/Graphics/SVG/1.1/DTD/svg11.dtd">
<svg version="1.1" id="Layer_1" xmlns="http://www.w3.org/2000/svg" xmlns:xlink="http://www.w3.org/1999/xlink" x="0px" y="0px"
	 viewBox="0 0 272 306" enable-background="new 0 0 272 306" xml:space="preserve">
<title>Group 10</title>
<desc>Created with Sketch.</desc>
<g>
	<g>
		<path fill="none" stroke="#000000" stroke-miterlimit="10" d="M151.3,18.9l13,16.3c0,0,13.5,28.9,17,37.6c0.4,1.1,1.1,2.3,2,3.6
			c6,9.2,21,24,26.8,42.6c6.6,21.2,2.2,39.4-14.6,39s-42-9.5-53.9-9.5c-11.9,0-37.1,3.2-44.6,7.4c-7.5,4.2-20.4,6.9-26.8,6.6
			c-6.4-0.3-19.7-21.4-7.9-45.3s19.3-34.5,19.8-38.2c0.5-3.8,5.9-35.1,5.9-35.1s5.4-37.3,26.9-37.9S151.3,18.9,151.3,18.9z"/>
		
			<linearGradient id="SVGID_1_" gradientUnits="userSpaceOnUse" x1="146.5379" y1="112.8695" x2="212.7838" y2="112.8695" gradientTransform="matrix(0.9978 -6.632273e-02 6.632273e-02 0.9978 -7.4774 10.4637)">
			<stop  offset="0" style="stop-color:#817F7F"/>
			<stop  offset="1" style="stop-color:#040404"/>
		</linearGradient>
		
			<linearGradient id="SVGID_2_" gradientUnits="userSpaceOnUse" x1="146.0481" y1="112.5183" x2="213.0338" y2="112.5183" gradientTransform="matrix(0.9978 -6.632273e-02 6.632273e-02 0.9978 -7.4774 10.4637)">
			<stop  offset="0" style="stop-color:#7B7979"/>
			<stop  offset="1" style="stop-color:#221F20"/>
		</linearGradient>
		<path fill="url(#SVGID_1_)" stroke="url(#SVGID_2_)" stroke-width="0.5" d="M178.5,80.5c0,0,4.7,9.7-2.8,25.9s-22.4,38-22.4,38
			l-4.7,4.8c0,0,24.9,6.5,36,7.7c11,1.2,18.8,0.8,24-4.5s8.7-21,0.3-36.9C200.5,99.5,177.5,64,177.5,64L178.5,80.5z"/>
		
			<linearGradient id="SVGID_3_" gradientUnits="userSpaceOnUse" x1="56.2301" y1="115.8357" x2="116.3314" y2="115.8357" gradientTransform="matrix(0.9978 -6.632273e-02 6.632273e-02 0.9978 -7.4774 10.4637)">
			<stop  offset="0" style="stop-color:#817F7F"/>
			<stop  offset="1" style="stop-color:#040404"/>
		</linearGradient>
		
			<linearGradient id="SVGID_4_" gradientUnits="userSpaceOnUse" x1="55.9801" y1="115.6004" x2="116.6118" y2="115.6004" gradientTransform="matrix(0.9978 -6.632273e-02 6.632273e-02 0.9978 -7.4774 10.4637)">
			<stop  offset="0" style="stop-color:#7B7979"/>
			<stop  offset="1" style="stop-color:#221F20"/>
		</linearGradient>
		<path fill="url(#SVGID_3_)" stroke="url(#SVGID_4_)" stroke-width="0.5" d="M82.3,79.1c0,0,3.7,16.2,8.7,23.7
			c5,7.5,12.8,13.7,18.8,24.5c5.9,10.8,8.7,23.4,8.7,23.4s-24.7,8.9-35.5,10.5s-20.8,6.9-24.7-14.4s6.4-34.3,11.1-42.8
			S82.3,79.1,82.3,79.1z"/>
	</g>
	
		<linearGradient id="SVGID_5_" gradientUnits="userSpaceOnUse" x1="52.2999" y1="247.5162" x2="206.8816" y2="247.5162" gradientTransform="matrix(0.983 -0.1839 0.1839 0.983 -31.7456 31.7897)">
		<stop  offset="0" style="stop-color:#817F7F"/>
		<stop  offset="1" style="stop-color:#040404"/>
	</linearGradient>
	
		<linearGradient id="SVGID_6_" gradientUnits="userSpaceOnUse" x1="52.0499" y1="247.5779" x2="207.1316" y2="247.5779" gradientTransform="matrix(0.983 -0.1839 0.1839 0.983 -31.7456 31.7897)">
		<stop  offset="0" style="stop-color:#7B7979"/>
		<stop  offset="1" style="stop-color:#221F20"/>
	</linearGradient>
	<path fill="url(#SVGID_5_)" stroke="url(#SVGID_6_)" stroke-width="0.5" d="M59.4,218.9c0,0-2.9,7.9,8.6,13.8
		c1.2,0.6,2.5,1.3,3.9,2c12.2,6.4,32,17.2,45.2,17c14.7-0.2,31.4-1.6,39.5-4.4c8.1-2.8,28.6-17.7,38.2-22.7s15.9-6.3,17.3-8.8
		c1.4-2.5,1.4,3.5,1.4,3.5s-3.9,3.2-17.8,10.6c-13.8,7.5-25.4,13.6-29.7,20.9c-4.3,7.3-21.8,37-23.4,42c-1.6,5-1.6,5-1.6,5
		s-7.1,5.2-11.5-0.7c-4.3-5.9-37.6-39.5-40.6-43.1c-3-3.6-31.9-23.1-30.8-27.4C59.1,222.4,59.4,218.9,59.4,218.9z"/>
</g>
</svg>
