<?xml version="1.0" encoding="utf-8"?>
<!-- Generator: Adobe Illustrator 18.0.0, SVG Export Plug-In . SVG Version: 6.00 Build 0)  -->
<!DOCTYPE svg PUBLIC "-//W3C//DTD SVG 1.1//EN" "http://www.w3.org/Graphics/SVG/1.1/DTD/svg11.dtd">
<svg version="1.1" id="Layer_1" xmlns="http://www.w3.org/2000/svg" xmlns:xlink="http://www.w3.org/1999/xlink" x="0px" y="0px"
	 viewBox="0 0 275 400" enable-background="new 0 0 275 400" xml:space="preserve">
<g>
	<g>
		<defs>
			<path id="SVGID_1_" d="M122.1,8.9c-9.8,4.4-13.3,6.9-13.3,6.9l-0.4,6.4c0,0-6.9,7.7-10.8,8.3c-3.8,0.6-17.2,1.9-20.4,8.3
				c-3.2,6.4-6.4,41.9-6.4,41.9l-0.7,23.8c0,0-12.1,16.6-14.6,28.7c-2.6,12.1-8.3,26.8-8.3,26.8l-6.4,9.3c0,0,7,7.9,10.2,7.9
				c3.2,0,19.2-24.5,24.5-34.1c5.3-9.6,10.9-26.8,10.9-26.8l1.9-12.4c0,0,4.8,15.9,4.8,18c0,2.1-4.1,52.1-4.1,52.1
				s-7.6,40.8-7.6,48.9s3.5,28.1,3.5,34.9c0,6.9-0.6,13.4-1.3,22.6c-0.6,9.2-1.9,34.7-1.3,44.3c0.6,9.6,5.4,41.4,5.4,47.2v14.3
				c0,0,5.7,2.6,11.2,2.2c5.4-0.3,5.9-1.6,5.9-1.6s3.7-38.5,5.6-46.9c1.9-8.3-1.8-39.2,1-46.2c2.8-7,5.1-32.8,7.3-39.8
				c2.2-7,8-32.2,8-32.2s-1-4.8,2.7-3.5c3.7,1.3,11,24.9,12.9,31.6c1.9,6.7,8.6,26.8,10.4,34.4c1.8,7.7,9.7,22,10.4,25.2
				c0.6,3.2,2.6,35.7,4.8,43.7c2.2,8,2.9,19.1,3.2,24.5c0.3,5.4,0.7,12.7,0.7,12.7s0.3,2.4,5.4,2.4c5.1,0,8.3,3.1,9.2,0.7
				c0.9-2.4,4.4-40,4.9-54.4c0.5-14.3-6.2-45.6-8.7-54.2c-2.5-8.6-5-36.6-4.6-42.7c0.4-6.1,1.8-33.4,0-44.3c-1.8-10.9-7.9-30-7.5-36
				c0.3-6.1-1.3-25.4-1.8-33.4c-0.5-8,0.6-23.4,5.3-34.2c4.7-10.8,5.7-17.5,5.7-17.5l18.5,25.2c0,0,6.1,3.2,6.1,8
				s-0.6,24.2,0.7,31.6c1.2,7.3,1.2,30,1.2,30s2.9,4.4,7,4.9c4.1,0.5,5.7,0.2,5.7,0.2s6.4-14.3,7.3-37c0.9-22.6,1.2-19.8-1.6-30.6
				c-2.8-10.8-21.4-50.7-21.4-50.7s-8.6-26.1-19.4-31.2c-10.8-5.1-18.2-6.7-23.9-8.8c-5.7-2.1-6.6-1.4-9.9-4.6
				c-3.2-3.2-6.1-9.2-6.1-9.2S131.9,4.6,122.1,8.9"/>
		</defs>
		<clipPath id="SVGID_2_">
			<use xlink:href="#SVGID_1_"  overflow="visible"/>
		</clipPath>
		
			<linearGradient id="SVGID_3_" gradientUnits="userSpaceOnUse" x1="92.2498" y1="277.0758" x2="94.9061" y2="277.0758" gradientTransform="matrix(70.5273 0 0 -70.5273 -6466.0347 19741.5215)">
			<stop  offset="0" style="stop-color:#231F20"/>
			<stop  offset="0.2726" style="stop-color:#242121"/>
			<stop  offset="0.4397" style="stop-color:#292526"/>
			<stop  offset="0.5785" style="stop-color:#2F2D2E"/>
			<stop  offset="0.7017" style="stop-color:#393738"/>
			<stop  offset="0.8146" style="stop-color:#454445"/>
			<stop  offset="0.9185" style="stop-color:#545456"/>
			<stop  offset="1" style="stop-color:#636467"/>
		</linearGradient>
		<rect x="40.9" y="4.4" clip-path="url(#SVGID_2_)" fill="url(#SVGID_3_)" width="186.4" height="391.4"/>
	</g>
	<g>
		<defs>
			<rect id="SVGID_4_" x="40.1" y="3.8" width="187.3" height="391.2"/>
		</defs>
		<clipPath id="SVGID_5_">
			<use xlink:href="#SVGID_4_"  overflow="visible"/>
		</clipPath>
		<path clip-path="url(#SVGID_5_)" fill="none" stroke="#231F20" stroke-width="0.5" d="M122.1,8.9c-9.8,4.4-13.3,6.9-13.3,6.9
			l-0.4,6.4c0,0-6.9,7.7-10.8,8.3c-3.8,0.6-17.2,1.9-20.4,8.3c-3.2,6.4-6.4,41.9-6.4,41.9l-0.7,23.8c0,0-12.1,16.6-14.6,28.7
			c-2.6,12.1-8.3,26.8-8.3,26.8l-6.4,9.3c0,0,7,7.9,10.2,7.9c3.2,0,19.2-24.5,24.5-34.1c5.3-9.6,10.9-26.8,10.9-26.8l1.9-12.4
			c0,0,4.8,15.9,4.8,18s-4.1,52.1-4.1,52.1s-7.7,40.8-7.7,48.9c0,8.1,3.5,28.1,3.5,34.9c0,6.9-0.6,13.4-1.3,22.6
			c-0.6,9.2-1.9,34.7-1.3,44.3c0.6,9.6,5.4,41.4,5.4,47.2v14.3c0,0,5.7,2.6,11.2,2.2c5.4-0.3,5.9-1.6,5.9-1.6s3.7-38.5,5.6-46.9
			s-1.8-39.2,1-46.2s5.1-32.8,7.3-39.8c2.2-7,8-32.2,8-32.2s-1-4.8,2.7-3.5c3.7,1.3,11,24.9,12.9,31.6c1.9,6.7,8.6,26.8,10.4,34.4
			c1.8,7.7,9.7,22,10.4,25.2c0.6,3.2,2.6,35.7,4.8,43.7c2.2,8,2.9,19.1,3.2,24.5c0.3,5.4,0.7,12.8,0.7,12.8s0.3,2.4,5.4,2.4
			s8.3,3.1,9.2,0.7c0.9-2.4,4.4-40,4.9-54.4c0.5-14.3-6.2-45.6-8.7-54.2c-2.6-8.6-5-36.6-4.6-42.7c0.4-6.1,1.8-33.4,0-44.3
			c-1.8-10.9-7.9-30-7.5-36c0.3-6.1-1.3-25.4-1.8-33.4c-0.5-8,0.6-23.4,5.3-34.2c4.7-10.8,5.7-17.5,5.7-17.5l18.5,25.2
			c0,0,6.1,3.2,6.1,8c0,4.8-0.6,24.2,0.7,31.6c1.2,7.3,1.2,30,1.2,30s2.9,4.4,7,4.9c4.1,0.5,5.7,0.2,5.7,0.2s6.4-14.3,7.3-37
			c0.9-22.6,1.2-19.8-1.6-30.6c-2.8-10.8-21.4-50.7-21.4-50.7s-8.6-26.1-19.4-31.2s-18.2-6.7-23.9-8.8c-5.7-2.1-6.6-1.4-9.9-4.6
			s-6.1-9.2-6.1-9.2S131.9,4.6,122.1,8.9z"/>
	</g>
	<g>
		<defs>
			<path id="SVGID_6_" d="M99.9,54.1c-11.5,1.9-18.5,4.1-18.5,4.1s0.6,11.8,3.5,21.4s4.1,21.4,4.1,21.4l0.7,4.1
				c0,0,7.2,39.2,18.5,46.5l5.4,3.4c0,0,24.9-25.2,30-29.2c5.1-4,9.2-7.7,9.2-7.7s-5.4-18.2-4.1-28.2c1.3-10,3.5-28.5,3.5-28.5
				s-33.5-7.6-48.3-7.6C102.3,53.8,101,53.9,99.9,54.1"/>
		</defs>
		<clipPath id="SVGID_7_">
			<use xlink:href="#SVGID_6_"  overflow="visible"/>
		</clipPath>
		
			<linearGradient id="SVGID_8_" gradientUnits="userSpaceOnUse" x1="91.9946" y1="278.9738" x2="94.6509" y2="278.9738" gradientTransform="matrix(27.4254 0 0 -27.4254 -2442.2678 7755.3853)">
			<stop  offset="0" style="stop-color:#231F20"/>
			<stop  offset="1" style="stop-color:#636467"/>
		</linearGradient>
		<rect x="81.4" y="53.8" clip-path="url(#SVGID_7_)" fill="url(#SVGID_8_)" width="71.4" height="101.2"/>
	</g>
	<g>
		<defs>
			<rect id="SVGID_9_" x="40.1" y="3.8" width="187.3" height="391.2"/>
		</defs>
		<clipPath id="SVGID_10_">
			<use xlink:href="#SVGID_9_"  overflow="visible"/>
		</clipPath>
		
			<linearGradient id="SVGID_11_" gradientUnits="userSpaceOnUse" x1="91.9946" y1="278.9739" x2="94.6509" y2="278.9739" gradientTransform="matrix(27.4254 0 0 -27.4254 -2442.2661 7755.3804)">
			<stop  offset="0" style="stop-color:#231F20"/>
			<stop  offset="1" style="stop-color:#636467"/>
		</linearGradient>
		<path clip-path="url(#SVGID_10_)" fill="url(#SVGID_11_)" d="M81.4,58.2L81.4,58.2c0,0,0.6,11.8,3.5,21.4
			c2.9,9.6,4.1,21.4,4.1,21.4l0.7,4.1c0,0,7.2,39.2,18.5,46.5l5.4,3.4c0,0,24.9-25.2,30-29.2c5.1-4,9.2-7.7,9.2-7.7
			s-4.3-14.5-4.3-24.8c0-1.2,0.1-2.4,0.2-3.5c1.3-10,3.5-28.5,3.5-28.5s-33.5-7.6-48.3-7.6c-1.5,0-2.9,0.1-3.9,0.3
			C88.4,56,81.4,58.2,81.4,58.2L81.4,58.2L81.4,58.2c0,0,7-2.2,18.5-4.1c1.1-0.2,2.4-0.3,3.9-0.3c14.8,0,48.3,7.6,48.3,7.6
			c0,0-2.2,18.5-3.5,28.5c-0.1,1.1-0.2,2.2-0.2,3.5c0,10.3,4.3,24.8,4.3,24.8c0,0-4.1,3.7-9.2,7.7c-5.1,4-30,29.2-30,29.2l-5.4-3.4
			c-11.3-7.3-18.5-46.5-18.5-46.5l-0.7-4.1c0,0-1.3-11.8-4.1-21.4C82.1,70,81.4,58.2,81.4,58.2L81.4,58.2z"/>
		<path clip-path="url(#SVGID_10_)" fill="none" stroke="#77787C" stroke-width="0.5" d="M158.9,56.9c0,0,3.2-0.6,9.2,5.1
			c6.1,5.7,10.2,12.4,10.2,12.4l0.6,2.6"/>
		<path clip-path="url(#SVGID_10_)" fill="none" stroke="#77787C" stroke-width="0.5" d="M109.8,16.1c0,0-1,2.3,3.2,2.9
			c4.2,0.5,8.1,2,14.5-1.2c6.3-3.2,12-4.5,13.3-7.5s1.9-5.8,1.9-5.8"/>
	</g>
</g>
</svg>
