<?xml version="1.0" encoding="utf-8"?>
<!-- Generator: Adobe Illustrator 18.0.0, SVG Export Plug-In . SVG Version: 6.00 Build 0)  -->
<!DOCTYPE svg PUBLIC "-//W3C//DTD SVG 1.1//EN" "http://www.w3.org/Graphics/SVG/1.1/DTD/svg11.dtd">
<svg version="1.1" id="Layer_1" xmlns="http://www.w3.org/2000/svg" xmlns:xlink="http://www.w3.org/1999/xlink" x="0px" y="0px"
	 viewBox="0 0 90 150" enable-background="new 0 0 90 150" xml:space="preserve">
<g>
	<g>
		<defs>
			<path id="SVGID_1_" d="M38.5,8.4l-0.4,2c0,0-0.9,2.4-2.9,3.8s-6.9,1.5-12.8,4.4c-6,2.9-7.4,7.3-9.1,14.7
				c-1.7,7.4-2.2,15.2-5.1,20.3c-2.9,5-6.6,19.4-6.6,25.2C1.6,84.4,1.2,94,1.2,94l0.3,4.3c0,0,1,1,4.3,0c3.3-0.9,4-1.6,4-1.6
				s-1-7.7,0.9-12.6c2-4.9,3.2-10.8,4.8-15.9c1.6-5.1,0.9-7.3,0.9-7.3l4.6-9.3l0.7-0.7c0,0,1.5,14.4,1.3,19.7
				c-0.2,5.3-2,16.6-3.4,28.5c-1.4,11.9-0.4,40.7,4.1,42.7s14.8,1.3,14.8,1.3s2-16.6,2.7-19.2s1.8-6.9,1.8-6.9l5.5,29
				c0,0,9.4-0.1,12.9-1.4c3.5-1.3,3.9-2.6,3.9-2.6s1.5-30.7,0.4-34.9c-1.1-4.2-1.4-14.4-2.4-24.1c-1-9.7-2.7-19.4-0.7-23.6
				c2-4.2,5.2-13,5.2-13s8.3,16.1,8.3,17.2v14.7c0,7.6-1.8,23-1.8,23s1.8,1.6,5.5,1.6c3.8,0,4.2-0.9,4.2-0.9s4.4-27.4,4.6-33.4
				c0.2-6-4.1-18.8-4.2-20.3c-0.1-1.5-4-10.2-5.1-15.9c-1.1-5.7-1.3-11.7-8.6-14.6S57,15,56,12.6c-1.1-2.4-2.2-4.4-2.2-4.4
				S52,7.9,47.1,7.9S38.5,8.4,38.5,8.4"/>
		</defs>
		<clipPath id="SVGID_2_">
			<use xlink:href="#SVGID_1_"  overflow="visible"/>
		</clipPath>
		
			<linearGradient id="SVGID_3_" gradientUnits="userSpaceOnUse" x1="1.0211" y1="151.386" x2="2.8625" y2="151.386" gradientTransform="matrix(66.4191 -24.1746 -24.1746 -66.4191 3575.6499 10178.8945)">
			<stop  offset="0" style="stop-color:#000000"/>
			<stop  offset="0.4923" style="stop-color:#070708"/>
			<stop  offset="0.6696" style="stop-color:#1E1E1F"/>
			<stop  offset="0.796" style="stop-color:#38383A"/>
			<stop  offset="0.898" style="stop-color:#4C4C4E"/>
			<stop  offset="0.9845" style="stop-color:#5F6062"/>
			<stop  offset="1" style="stop-color:#636466"/>
		</linearGradient>
		<polygon clip-path="url(#SVGID_2_)" fill="url(#SVGID_3_)" points="-43.2,24.1 78.6,-20.3 133.3,129.9 11.4,174.3 		"/>
	</g>
	<g>
		<defs>
			<rect id="SVGID_4_" x="0.9" y="7.7" width="88.1" height="138.7"/>
		</defs>
		<clipPath id="SVGID_5_">
			<use xlink:href="#SVGID_4_"  overflow="visible"/>
		</clipPath>
		
			<linearGradient id="SVGID_6_" gradientUnits="userSpaceOnUse" x1="0.9974" y1="152.547" x2="2.8388" y2="152.547" gradientTransform="matrix(47.8348 0 0 -47.8348 -46.8348 7374.0547)">
			<stop  offset="0" style="stop-color:#000000"/>
			<stop  offset="0.3722" style="stop-color:#0A0A0A"/>
			<stop  offset="0.5803" style="stop-color:#232324"/>
			<stop  offset="0.7478" style="stop-color:#3F3F41"/>
			<stop  offset="0.8928" style="stop-color:#525254"/>
			<stop  offset="1" style="stop-color:#636466"/>
		</linearGradient>
		<path clip-path="url(#SVGID_5_)" fill="url(#SVGID_6_)" d="M38.1,10.4L38.1,10.4c0,0-0.9,2.4-2.9,3.8c-2,1.3-6.9,1.5-12.8,4.4
			c-6,2.9-7.4,7.3-9.1,14.7c-1.7,7.4-2.2,15.2-5.1,20.3S1.6,72.9,1.6,78.7C1.6,84.4,1.2,94,1.2,94l0.3,4.3c0,0,0.5,0.4,1.8,0.4
			c0.6,0,1.5-0.1,2.5-0.4c3.3-0.9,4-1.6,4-1.6s-0.3-2-0.3-4.7c0-2.5,0.2-5.5,1.2-7.9c2-4.9,3.2-10.8,4.8-15.9
			c0.8-2.7,1.1-4.5,1.1-5.7c0-1.1-0.2-1.6-0.2-1.6l4.6-9.3l0.7-0.7c0,0,1.3,12.5,1.3,18.5c0,0.4,0,0.8,0,1.2
			c-0.2,5.3-2,16.6-3.4,28.5c-0.4,3.3-0.6,7.8-0.6,12.7c0,13,1.4,28.6,4.7,30c2.7,1.2,7.4,1.4,10.8,1.4c2.3,0,4-0.1,4-0.1
			s2-16.6,2.7-19.2c0.7-2.7,1.8-6.9,1.8-6.9l5.5,29c0,0,9.4-0.1,12.9-1.4c3.5-1.3,3.9-2.6,3.9-2.6s0.8-16.7,0.8-27.1
			c0-3.7-0.1-6.7-0.4-7.8c-1.1-4.2-1.4-14.4-2.4-24.1c-0.7-6.4-1.6-12.8-1.6-17.6c0-2.5,0.3-4.6,0.9-6c2-4.2,5.2-13,5.2-13
			s8.3,16.1,8.3,17.2v14.7c0,7.6-1.8,23-1.8,23c0,0,1.8,1.6,5.5,1.6c3.8,0,4.2-0.9,4.2-0.9s4.4-27.4,4.6-33.4c0-0.2,0-0.3,0-0.5
			c0-6.2-4.1-18.4-4.2-19.9c-0.1-1.5-4-10.2-5.1-15.9c-1.1-5.7-1.3-11.7-8.6-14.6C63.5,15,57,15,56,12.6c-1.1-2.4-2.2-4.4-2.2-4.4
			c0,0-1.8-0.2-6.6-0.2c-4.9,0-8.6,0.4-8.6,0.4L38.1,10.4L38.1,10.4L38.1,10.4l0.4-2c0,0,3.8-0.4,8.6-0.4c4.9,0,6.6,0.2,6.6,0.2
			c0,0,1.1,2.1,2.2,4.4C57,15,63.5,15,70.8,17.9c7.3,2.9,7.5,8.9,8.6,14.6c1.1,5.7,5,14.4,5.1,15.9c0.1,1.5,4.2,13.7,4.2,19.9
			c0,0.2,0,0.3,0,0.5c-0.2,6-4.6,33.4-4.6,33.4c0,0-0.4,0.9-4.2,0.9c-3.8,0-5.5-1.6-5.5-1.6c0,0,1.8-15.4,1.8-23V63.6
			c0-1.1-8.3-17.2-8.3-17.2c0,0-3.2,8.8-5.2,13c-0.7,1.4-0.9,3.5-0.9,6c0,4.8,0.9,11.2,1.6,17.6c1,9.7,1.3,19.9,2.4,24.1
			c0.3,1.1,0.4,4.1,0.4,7.8c0,10.5-0.8,27.1-0.8,27.1c0,0-0.4,1.3-3.9,2.6c-3.5,1.3-12.9,1.4-12.9,1.4l-5.5-29c0,0-1.1,4.3-1.8,6.9
			c-0.7,2.7-2.7,19.2-2.7,19.2c0,0-1.7,0.1-4,0.1c-3.4,0-8.1-0.2-10.8-1.4c-3.3-1.4-4.7-17-4.7-30c0-4.9,0.2-9.4,0.6-12.7
			C21,87.3,22.8,76,23,70.7c0-0.4,0-0.7,0-1.2c0-6-1.3-18.5-1.3-18.5l-0.7,0.7L16.4,61c0,0,0.2,0.5,0.2,1.6c0,1.2-0.2,3.1-1.1,5.7
			c-1.6,5.1-2.9,11-4.8,15.9c-0.9,2.4-1.2,5.4-1.2,7.9c0,2.6,0.3,4.7,0.3,4.7s-0.7,0.7-4,1.6c-1.1,0.3-1.9,0.4-2.5,0.4
			c-1.3,0-1.8-0.4-1.8-0.4L1.2,94c0,0,0.5-9.6,0.5-15.4c0-5.7,3.8-20.1,6.6-25.2c2.9-5,3.4-12.9,5.1-20.3c1.7-7.4,3.1-11.8,9.1-14.7
			c6-2.9,10.8-3.1,12.8-4.4C37.2,12.8,38.1,10.4,38.1,10.4L38.1,10.4z"/>
		<path clip-path="url(#SVGID_5_)" fill="none" stroke="#77787B" stroke-width="0.5" d="M39.1,10c0,0,5.7,3.4,13.5,0.2"/>
		<path clip-path="url(#SVGID_5_)" fill="none" stroke="#77787B" stroke-width="0.5" d="M22.8,26.5c0,0-2.7,3.7-2.7,7.5
			c0,3.8-0.4,4,0.4,8.6s2.2,9.9,3.5,15.9"/>
	</g>
	<g>
		<defs>
			<path id="SVGID_7_" d="M55.2,16l-1.5,0.9c0,0,9.1,2.7,11.9,5.7c2.9,3.1,5.3,4.2,6.2,8.4c0.9,4.2,2,11.5,4.6,15.1
				s5.7,7.6,5.3,12.3c-0.4,4.6,0.5,20.4,0.5,20.4l0.5,1.7c0,0,3-15.9,2.8-19.4c-0.2-3.5-4.2-11.8-4.2-14.4s-1.8-16.2-5.5-20.3
				c-3.8-4.2-5.1-7.3-11.5-9.1c-4.4-1.2-7-1.4-8.2-1.4C55.5,15.9,55.2,16,55.2,16"/>
		</defs>
		<clipPath id="SVGID_8_">
			<use xlink:href="#SVGID_7_"  overflow="visible"/>
		</clipPath>
		
			<linearGradient id="SVGID_9_" gradientUnits="userSpaceOnUse" x1="2.2918" y1="154.6927" x2="4.1333" y2="154.6927" gradientTransform="matrix(18.171 0 0 -18.171 10.8746 2859.1294)">
			<stop  offset="0" style="stop-color:#000000"/>
			<stop  offset="1" style="stop-color:#636466"/>
		</linearGradient>
		<rect x="53.7" y="15.9" clip-path="url(#SVGID_8_)" fill="url(#SVGID_9_)" width="32" height="64.6"/>
	</g>
	<g>
		<defs>
			<rect id="SVGID_10_" x="0.9" y="7.7" width="88.1" height="138.7"/>
		</defs>
		<clipPath id="SVGID_11_">
			<use xlink:href="#SVGID_10_"  overflow="visible"/>
		</clipPath>
		
			<linearGradient id="SVGID_12_" gradientUnits="userSpaceOnUse" x1="2.2918" y1="154.6927" x2="4.1333" y2="154.6927" gradientTransform="matrix(18.171 0 0 -18.171 10.8746 2859.1357)">
			<stop  offset="0" style="stop-color:#636466"/>
			<stop  offset="0.2667" style="stop-color:#606163"/>
			<stop  offset="0.5077" style="stop-color:#575759"/>
			<stop  offset="0.7387" style="stop-color:#464647"/>
			<stop  offset="0.9624" style="stop-color:#141415"/>
			<stop  offset="1" style="stop-color:#000000"/>
		</linearGradient>
		<path clip-path="url(#SVGID_11_)" fill="url(#SVGID_12_)" d="M55.2,16L55.2,16l-1.5,0.9c0,0,9.1,2.7,11.9,5.7
			c2.9,3.1,5.3,4.2,6.2,8.4c0.9,4.2,2,11.5,4.6,15.1c2.5,3.4,5.3,7.1,5.3,11.4c0,0.3,0,0.6,0,0.9c-0.1,0.9-0.1,2.2-0.1,3.7
			c0,6.4,0.6,16.8,0.6,16.8l0.5,1.7c0,0,2.8-14.8,2.8-19c0-0.2,0-0.3,0-0.4c-0.2-3.5-4.2-11.8-4.2-14.4c0-2.5-1.8-16.2-5.5-20.3
			c-3.8-4.2-5.1-7.3-11.5-9.1c-4.4-1.2-7-1.4-8.2-1.4C55.5,15.9,55.2,16,55.2,16L55.2,16L55.2,16c0,0,0.3,0,0.8,0
			c1.2,0,3.8,0.2,8.2,1.4c6.4,1.7,7.7,4.9,11.5,9.1c3.8,4.2,5.5,17.8,5.5,20.3c0,2.5,4,10.8,4.2,14.4c0,0.1,0,0.3,0,0.4
			c0,4.2-2.8,19-2.8,19l-0.5-1.7c0,0-0.6-10.4-0.6-16.8c0-1.5,0-2.8,0.1-3.7c0-0.3,0-0.6,0-0.9c0-4.3-2.9-8-5.3-11.4
			c-2.7-3.6-3.8-10.9-4.6-15.1c-0.9-4.2-3.3-5.3-6.2-8.4c-2.9-3.1-11.9-5.7-11.9-5.7L55.2,16L55.2,16z"/>
	</g>
</g>
</svg>
