<?xml version="1.0" encoding="utf-8"?>
<!-- Generator: Adobe Illustrator 18.0.0, SVG Export Plug-In . SVG Version: 6.00 Build 0)  -->
<!DOCTYPE svg PUBLIC "-//W3C//DTD SVG 1.1//EN" "http://www.w3.org/Graphics/SVG/1.1/DTD/svg11.dtd">
<svg version="1.1" id="Layer_1" xmlns="http://www.w3.org/2000/svg" xmlns:xlink="http://www.w3.org/1999/xlink" x="0px" y="0px"
	 viewBox="0 0 275 400" enable-background="new 0 0 275 400" xml:space="preserve">
<g>
	<g>
		<defs>
			<path id="SVGID_1_" d="M123.5,8.1c-5.1,2.8-11.8,6.2-11.8,6.2l-0.5,7.3l-1.2,3.9c0,0-5.1-0.8-1.1,3.9c3.9,4.6,9,5.2,16.4,5.2
				c7.3,0,14.6-3.9,17.5-3.9c2.9,0,11.3-4.5,11.3-4.5s4.5-1.8,6.7-3.8c2.3-2,4.5-2,4.5-2l-4.5-3.3l-4.5-6.5L154,6.4
				c0,0-5-0.2-11-0.2C135.4,6.2,126.4,6.5,123.5,8.1"/>
		</defs>
		<clipPath id="SVGID_2_">
			<use xlink:href="#SVGID_1_"  overflow="visible"/>
		</clipPath>
		
			<linearGradient id="SVGID_3_" gradientUnits="userSpaceOnUse" x1="92.4411" y1="289.4301" x2="97.1407" y2="289.4301" gradientTransform="matrix(13.3416 0 0 -13.3416 -1127.1232 3881.8435)">
			<stop  offset="0" style="stop-color:#231F20"/>
			<stop  offset="1" style="stop-color:#636467"/>
		</linearGradient>
		<rect x="104.9" y="6.2" clip-path="url(#SVGID_2_)" fill="url(#SVGID_3_)" width="60.3" height="28.4"/>
	</g>
	<g>
		<defs>
			<rect id="SVGID_4_" x="9.2" y="5" width="247.8" height="390"/>
		</defs>
		<clipPath id="SVGID_5_">
			<use xlink:href="#SVGID_4_"  overflow="visible"/>
		</clipPath>
		<path clip-path="url(#SVGID_5_)" fill="none" stroke="#231F20" stroke-width="0.5" d="M154,6.4c0,0-25.4-1.1-30.5,1.7
			c-5.1,2.8-11.8,6.2-11.8,6.2l-0.5,7.3l-1.2,3.9c0,0-5.1-0.8-1.1,3.9c4,4.6,9,5.2,16.4,5.2c7.3,0,14.6-3.9,17.5-3.9
			c2.9,0,11.3-4.5,11.3-4.5s4.5-1.8,6.7-3.8c2.3-2,4.5-2,4.5-2l-4.5-3.3l-4.5-6.5L154,6.4z"/>
	</g>
	<g>
		<defs>
			<path id="SVGID_6_" d="M168.9,20.4c0,0-11.5,5.1-25.6,10.3c-14.1,5.1-25.2,4.6-29.3,1.7c-4.1-2.9-7.8-4.5-7.8-4.5
				s-8,4.9-15.4,7.9c-7.3,3.1-20.7,0-29.8,11.8c-9.1,11.8-15.3,24.8-21,33.3c-5.6,8.5-20.9,20.3-20.9,20.3l-8.5,10.7l23.1,22
				c0,0,14-10.4,24.1-22.2s17.6-18.4,17.6-18.4S73.9,114.1,79,126s-2.3,45.1-5.6,57c-3.4,11.8-9,42.3-11.3,55.8
				C59.8,252.3,56.2,272,58,298c1.8,25.9,13.1,67.1,13.1,67.1s1.7,11.8,13,13c11.3,1.1,15.6-1.7,22.7-5.6
				c7.1-3.9,10.6-14.7,10.6-14.7l7.8-55.3l1.2-6.2l18,69.9l1.1,15.8c0,0,1.1,11.8,9.6,11.8s20.3-0.2,31-7.2
				c10.7-7,10.7-17.6,10.7-17.6s7.4-69.9,1.2-94.7c-6.3-24.8-17-74.8-17-74.8s-10.3-21.6-4.9-38c5.5-16.4,21.1-71,21.1-71l21.5,30.4
				l5.6,15.8l23.7-7.3l7.3-4.5c0,0-11.8-27.1-15.2-36.1c-3.4-9-9.6-32.9-19.5-45.2c-9.9-12.3-17.8-16.7-27.9-16.7
				c-10.2,0-21.4-6.4-21.4-6.4H168.9z"/>
		</defs>
		<clipPath id="SVGID_7_">
			<use xlink:href="#SVGID_6_"  overflow="visible"/>
		</clipPath>
		
			<linearGradient id="SVGID_8_" gradientUnits="userSpaceOnUse" x1="91.0901" y1="276.3546" x2="95.7896" y2="276.3546" gradientTransform="matrix(72.9536 51.0827 51.0827 -72.9536 -20800.6172 15594.9883)">
			<stop  offset="0" style="stop-color:#636467"/>
			<stop  offset="4.345131e-02" style="stop-color:#5C5D5F"/>
			<stop  offset="0.1774" style="stop-color:#4B4A4B"/>
			<stop  offset="0.3176" style="stop-color:#3C3B3C"/>
			<stop  offset="0.464" style="stop-color:#322F30"/>
			<stop  offset="0.619" style="stop-color:#2A2627"/>
			<stop  offset="0.7885" style="stop-color:#252122"/>
			<stop  offset="1" style="stop-color:#231F20"/>
		</linearGradient>
		<polygon clip-path="url(#SVGID_7_)" fill="url(#SVGID_8_)" points="91.3,-94.6 431,143.2 175,508.8 -164.7,271 		"/>
	</g>
	<g>
		<defs>
			<rect id="SVGID_9_" x="9.2" y="5" width="247.8" height="390"/>
		</defs>
		<clipPath id="SVGID_10_">
			<use xlink:href="#SVGID_9_"  overflow="visible"/>
		</clipPath>
		<path clip-path="url(#SVGID_10_)" fill="none" stroke="#231F20" stroke-width="0.5" d="M106.2,27.8c0,0-8,4.9-15.4,7.9
			c-7.3,3.1-20.7,0-29.8,11.8c-9.1,11.8-15.3,24.8-21,33.3c-5.6,8.5-20.9,20.3-20.9,20.3l-8.5,10.7l23.1,22c0,0,14-10.4,24.1-22.2
			c10.1-11.7,17.6-18.4,17.6-18.4S73.9,114.1,79,126s-2.3,45.1-5.6,57c-3.4,11.8-9,42.3-11.3,55.8C59.8,252.3,56.1,272,58,298
			c1.8,25.9,13.1,67.1,13.1,67.1s1.7,11.8,13,13c11.3,1.1,15.6-1.7,22.7-5.6c7.1-3.9,10.6-14.7,10.6-14.7l7.8-55.3l1.2-6.2l18,69.9
			l1.1,15.8c0,0,1.1,11.8,9.6,11.8c8.5,0,20.3-0.2,31-7.2s10.7-17.6,10.7-17.6s7.4-69.9,1.2-94.7c-6.3-24.8-17-74.8-17-74.8
			s-10.3-21.6-4.9-38c5.5-16.4,21.1-71,21.1-71l21.5,30.4l5.6,15.8l23.7-7.3l7.3-4.5c0,0-11.8-27.1-15.2-36.1
			c-3.4-9-9.6-32.9-19.5-45.2c-9.9-12.3-17.8-16.7-27.9-16.7s-21.4-6.4-21.4-6.4h-2.6c0,0-11.5,5.1-25.6,10.3
			c-14.1,5.1-25.2,4.6-29.3,1.7C109.8,29.4,106.2,27.8,106.2,27.8z"/>
		
			<linearGradient id="SVGID_11_" gradientUnits="userSpaceOnUse" x1="91.4059" y1="281.6318" x2="96.1055" y2="281.6318" gradientTransform="matrix(20.3406 0 0 -20.3406 -1784.7784 5853.4209)">
			<stop  offset="0" style="stop-color:#231F20"/>
			<stop  offset="1" style="stop-color:#636467"/>
		</linearGradient>
		<path clip-path="url(#SVGID_10_)" fill="url(#SVGID_11_)" d="M109.8,31.2L82.2,63.9c0,0-6.5,16.8-6.5,36.3
			c0,5.5,0.5,11.1,1.8,16.7c6,25.4,7.9,98.1,20.1,103.2c2.7,1.1,4.8,1.8,6.5,1.8c6.4,0,9.2-8.3,23.3-33.3
			c18.1-32.1,35.3-84.6,38.3-103.8c3.1-19.2,3.1-25.4,3.1-25.4l-18.6-31.6l0,0l18.6,31.6c0,0,0,6.2-3.1,25.4
			c-3.1,19.2-20.2,71.6-38.3,103.8c-14.2,25.1-17,33.3-23.3,33.3c-1.8,0-3.9-0.7-6.5-1.8c-12.2-5.1-14.1-77.8-20.1-103.2
			c-1.3-5.6-1.8-11.2-1.8-16.7c0-19.5,6.5-36.3,6.5-36.3L109.8,31.2L109.8,31.2z"/>
	</g>
</g>
</svg>
