<?xml version="1.0" encoding="utf-8"?>
<!-- Generator: Adobe Illustrator 18.0.0, SVG Export Plug-In . SVG Version: 6.00 Build 0)  -->
<!DOCTYPE svg PUBLIC "-//W3C//DTD SVG 1.1//EN" "http://www.w3.org/Graphics/SVG/1.1/DTD/svg11.dtd">
<svg version="1.1" id="Layer_1" xmlns="http://www.w3.org/2000/svg" xmlns:xlink="http://www.w3.org/1999/xlink" x="0px" y="0px"
	 viewBox="0 0 275 275" enable-background="new 0 0 275 275" xml:space="preserve">
<g>
	<g>
		<defs>
			<path id="SVGID_1_" d="M78.8,5.3c-2.9,0.1-4.6,1.5-4.4,3.4c0.5,4.8,22.3,39.1,22.3,39.1s-7.7,2.6-15.5-6.1
				c-7.8-8.7-19.4-26.2-26.2-26.2s-7.8,5.8-6.8,10.7c1,4.8,33,36.8,33,36.8s-10.7,1-17.4-5.8S48.3,34.9,43.4,33.9
				c-4.8-1-8.1,1.4-8.9,5S47.3,64,53.1,68.8c5.8,4.8,16.5,11.6,16.5,11.6s-10.7-1-16.5-3.9c-5.8-2.9-17.9-12.6-22.3-12.6
				s-8.1,7.8,3.7,17.5c11.8,9.7,27.9,18.9,36.3,18.9c8.4,0,19.1,4,19.1,4s-8.7,3.2-16.5,6.1c-7.8,2.9-20.4,10.7-16.5,14.5
				c3.9,3.9,12.9,0.7,22,0.7s27.8-2.6,38.1-6.1c10.3-3.5,18.4-9.1,27.1-9.1s17.4,1,17.4,1l25.1,1.9l19.5-35.9l0.9-11.4l-21.2,1.7
				c0,0-6.8,10.7-20.4,0c-13.6-10.7-16.5-17.4-28.1-17.4c-11.6,0-26.2-13.6-38.8-31C91.1,8.9,83.8,5.4,79.2,5.3H78.8z"/>
		</defs>
		<clipPath id="SVGID_2_">
			<use xlink:href="#SVGID_1_"  overflow="visible"/>
		</clipPath>
		
			<linearGradient id="SVGID_3_" gradientUnits="userSpaceOnUse" x1="91.5155" y1="215.4482" x2="95.5538" y2="215.4482" gradientTransform="matrix(45.2216 0 0 -45.2216 -4112.8604 9810.0176)">
			<stop  offset="0" style="stop-color:#231F20"/>
			<stop  offset="0.147" style="stop-color:#262223"/>
			<stop  offset="0.3261" style="stop-color:#2D2A2B"/>
			<stop  offset="0.5221" style="stop-color:#383637"/>
			<stop  offset="0.73" style="stop-color:#484749"/>
			<stop  offset="0.9453" style="stop-color:#5D5E60"/>
			<stop  offset="1" style="stop-color:#636467"/>
		</linearGradient>
		<rect x="22.8" y="5.3" clip-path="url(#SVGID_2_)" fill="url(#SVGID_3_)" width="184.4" height="123.5"/>
	</g>
	<g>
		<defs>
			<path id="SVGID_4_" d="M189.1,66.1c-6.8,5.1-20.4,29.3-25.2,37.1c-4.8,7.8-24.4,29.5-28.4,32.5c-4,3-30.2,20-35.1,26.7
				c-4.8,6.6-16,18.4-17.4,22.3c-1.5,3.9,0.5,10,3.4,10.6c2.9,0.6,10.7-1.4,10.7-1.4s-6.9,10.7-8.8,14.5c-1.9,3.9-3.9,19.4,1.5,20.4
				c5.3,1,14.8-9.2,14.8-9.2s-10.8,27.6-5.4,34.4c5.4,6.8,8.1,8.2,16.8-2.2c8.7-10.4,17.5-35.2,23.6-41.4
				c6.1-6.2,12.1-14.5,12.1-14.5s-29.9,69.8-17.3,73.7c12.6,3.9,18.9-11.1,26.2-24.2s22.3-58.2,30-58.6c7.8-0.5,16.6,20.4,14.5,28.8
				c-2,8.5,4.4,21.6,9.2,23.5s14.5-0.2,14.5-6.8c0-6.6-2.7-34.9-4.5-46c-1.8-11.1-10-46.9-3.7-56.7c6.3-9.8,13.6-24.7,19.9-35.9
				c6.3-11.1,12.1-24.2,12.1-24.2s1.6-7.3-10.1-9.4c-11.7-2-17-2-17-2s-15.2-9.4-22.4-9.4C195.9,48.4,195.9,61.1,189.1,66.1"/>
		</defs>
		<clipPath id="SVGID_5_">
			<use xlink:href="#SVGID_4_"  overflow="visible"/>
		</clipPath>
		
			<linearGradient id="SVGID_6_" gradientUnits="userSpaceOnUse" x1="92.4227" y1="214.2373" x2="96.4609" y2="214.2373" gradientTransform="matrix(42.1412 0 0 -42.1412 -3812.2925 9189.0713)">
			<stop  offset="0" style="stop-color:#231F20"/>
			<stop  offset="0.1856" style="stop-color:#252122"/>
			<stop  offset="0.3564" style="stop-color:#2A2728"/>
			<stop  offset="0.5214" style="stop-color:#333132"/>
			<stop  offset="0.6828" style="stop-color:#3F3D3F"/>
			<stop  offset="0.8413" style="stop-color:#4F4E50"/>
			<stop  offset="0.9963" style="stop-color:#626466"/>
			<stop  offset="1" style="stop-color:#636467"/>
		</linearGradient>
		<rect x="81.5" y="48.4" clip-path="url(#SVGID_5_)" fill="url(#SVGID_6_)" width="172.7" height="224.8"/>
	</g>
</g>
</svg>
