<?xml version="1.0" encoding="utf-8"?>
<!-- Generator: Adobe Illustrator 18.0.0, SVG Export Plug-In . SVG Version: 6.00 Build 0)  -->
<!DOCTYPE svg PUBLIC "-//W3C//DTD SVG 1.1//EN" "http://www.w3.org/Graphics/SVG/1.1/DTD/svg11.dtd">
<svg version="1.1" id="Layer_1" xmlns="http://www.w3.org/2000/svg" xmlns:xlink="http://www.w3.org/1999/xlink" x="0px" y="0px"
	 viewBox="0 0 275 275" enable-background="new 0 0 275 275" xml:space="preserve">
<g>
	<g>
		<defs>
			<path id="SVGID_1_" d="M46.9,8.7c-7.6,1-15.1,1-20.1,10.6c-5,9.6-15.1,28.2-6.3,34.9c8.8,6.6,32.4,28.8,34.9,41.5
				c2.4,12.6-1.8,44.5-6,55.9C45.1,163,38.5,175,38.5,175s-13.9,10.8-18,20.4C16.3,205,3,228.5,8.7,239.3
				c5.7,10.8,9.3,12.6,9.3,12.6l3.6,0.6l1.8,0.6c0,0,3.6,3.1,12.6,1.8c9-1.2,18.2-6.6,30.8-19.8c12.5-13.2,21.5-27.2,24.5-36.7
				c3-9.4,1.8-20.4,10.8-27.4c9-7,25.8-32.8,30.7-39.1c4.8-6.2,8.2-11,0.5-21.8c-7.7-10.8-14.4-16.2-17.9-19.8
				c-3.5-3.6-6.2-6.6-3.6-10.2c2.6-3.6,5.1-4.8,5.1-4.8l-3.9-7.8c0,0-3.6-2.5-8.4-1.8c-4.8,0.7-12,3.6-12,3.6l-16.8-27L60.1,17.5
				c0,0-5.1-8.9-12.1-8.9C47.6,8.7,47.2,8.7,46.9,8.7"/>
		</defs>
		<clipPath id="SVGID_2_">
			<use xlink:href="#SVGID_1_"  overflow="visible"/>
		</clipPath>
		
			<linearGradient id="SVGID_3_" gradientUnits="userSpaceOnUse" x1="90.7671" y1="215.0694" x2="94.1809" y2="215.0694" gradientTransform="matrix(38.7133 0 0 -38.7133 -3507.3862 8458.4443)">
			<stop  offset="0" style="stop-color:#231F20"/>
			<stop  offset="0.1418" style="stop-color:#292526"/>
			<stop  offset="0.3929" style="stop-color:#373435"/>
			<stop  offset="0.7212" style="stop-color:#4D4C4E"/>
			<stop  offset="1" style="stop-color:#636467"/>
		</linearGradient>
		<rect x="3" y="8.7" clip-path="url(#SVGID_2_)" fill="url(#SVGID_3_)" width="138" height="247.5"/>
	</g>
	<g>
		<defs>
			<rect id="SVGID_4_" x="6.7" y="8" width="265.1" height="249.6"/>
		</defs>
		<clipPath id="SVGID_5_">
			<use xlink:href="#SVGID_4_"  overflow="visible"/>
		</clipPath>
		<path clip-path="url(#SVGID_5_)" fill="none" stroke="#231F20" stroke-width="0.367" d="M60.1,17.5c0,0-5.6-9.8-13.2-8.8
			c-7.6,1-15.1,1-20.1,10.6c-5,9.6-15.1,28.2-6.3,34.9c8.8,6.6,32.5,28.8,34.9,41.5c2.4,12.6-1.8,44.5-6,55.9
			C45.1,163,38.5,175,38.5,175s-13.9,10.8-18.1,20.4C16.3,205,3,228.5,8.7,239.3c5.7,10.8,9.3,12.6,9.3,12.6l3.6,0.6l1.8,0.6
			c0,0,3.6,3.1,12.6,1.8c9-1.2,18.2-6.6,30.8-19.8c12.5-13.2,21.5-27.2,24.5-36.7c3-9.4,1.8-20.4,10.8-27.4c9-7,25.8-32.8,30.6-39.1
			c4.8-6.2,8.2-11,0.5-21.8s-14.4-16.2-17.9-19.8c-3.5-3.6-6.2-6.6-3.6-10.2c2.6-3.6,5.1-4.8,5.1-4.8l-3.9-7.8c0,0-3.6-2.5-8.4-1.8
			c-4.8,0.7-12,3.6-12,3.6l-16.8-27L60.1,17.5z"/>
		<path clip-path="url(#SVGID_5_)" fill="#FFFFFF" d="M96.3,75.1c0,0,0.2-2.1,1.1-2.3c0.9-0.2,4.9,1,5.8,1.6c0.9,0.7,0.5,1.2,1,2.5
			c0.5,1.3,1.2,4,1.2,4s-6-3.5-6.9-4.3C97.5,75.8,96.3,75.1,96.3,75.1"/>
		<path clip-path="url(#SVGID_5_)" fill="none" stroke="#231F20" stroke-width="0.367" d="M96.3,75.1c0,0,0.2-2.1,1.1-2.3
			c0.9-0.2,4.9,1,5.8,1.6c0.9,0.7,0.5,1.2,1,2.5c0.5,1.3,1.2,4,1.2,4s-6-3.5-6.9-4.3C97.5,75.8,96.3,75.1,96.3,75.1z"/>
		<path clip-path="url(#SVGID_5_)" fill="#231F20" d="M34.4,13.8c0,0-15.5,18.5-12,22.7c3.5,4.2,5.1,5.3,14.1,1.8
			c9-3.5,10.3-8.9,9.6-14.4c-0.6-5.6-3.6-12.8-6.6-12.2C36.5,12.3,34.4,13.8,34.4,13.8"/>
		<path clip-path="url(#SVGID_5_)" fill="none" stroke="#77787C" stroke-width="0.367" d="M34.4,13.8c0,0-15.5,18.5-12,22.7
			c3.5,4.2,5.1,5.3,14.1,1.8c9-3.5,10.3-8.9,9.6-14.4c-0.6-5.6-3.6-12.8-6.6-12.2C36.5,12.3,34.4,13.8,34.4,13.8z"/>
		<path clip-path="url(#SVGID_5_)" fill="none" stroke="#77787C" stroke-width="0.367" d="M18.3,46.3c0,0,0.3,3.7,10.7,4.5
			c10.4,0.8,14.3,2.4,21.8,0.6c7.5-1.8,10.5-3.7,11.7-10.4c1.2-6.7,0.2-14.3-0.6-16.6"/>
		
			<linearGradient id="SVGID_6_" gradientUnits="userSpaceOnUse" x1="83.6752" y1="210.733" x2="87.0891" y2="210.733" gradientTransform="matrix(8.9286 0 0 -8.9286 -736.0905 2112.6921)">
			<stop  offset="0" style="stop-color:#231F20"/>
			<stop  offset="1" style="stop-color:#636467"/>
		</linearGradient>
		<path clip-path="url(#SVGID_5_)" fill="url(#SVGID_6_)" d="M22.5,249.8c0,0-2.4-1.4-2.4-3.8c0-0.8,0.3-1.8,1.1-2.8
			c3-4.1,19.5-30.4,19.5-30.4v-0.3H38c0,0-8,5-11,11.8c-3,6.8-5.8,13.6-5.8,13.6c0,0-1.4,3-3.5,4.5c-1.4,1-2.8,2.2-4.1,2.2
			c-0.7,0-1.3-0.4-1.9-1.3l0,0c0.5,0.9,1.2,1.3,1.9,1.3c1.3,0,2.8-1.2,4.1-2.2c2.1-1.5,3.5-4.5,3.5-4.5s2.8-6.7,5.8-13.6
			c3-6.8,11-11.8,11-11.8h2.7v0.3c0,0-16.4,26.3-19.5,30.4c-0.8,1.1-1.1,2-1.1,2.8C20.2,248.4,22.5,249.8,22.5,249.8L22.5,249.8z"/>
	</g>
	<g>
		<defs>
			<path id="SVGID_7_" d="M144.2,121.4L144.2,121.4C144.2,121.4,144.2,121.4,144.2,121.4 M160.7,56c0,0-7.8,6.4-10,9.1
				c-2.3,2.7-4.7,4.5-4.1,12.2c0.6,7.6,1.2,28.7,1.2,28.7l-1.9,11.4l-1.7,4c0.1-0.3,0.7-1,1.5,4.1c0.9,5.8,0.9,8.1,0.9,11.4
				s1.2,13.5,1.2,13.5s-5.5,17.2-5.7,23.6c-0.2,6.4-0.6,16.6-0.6,19.3c0,2.7,7.5,10.5,13.5,13.2c6.1,2.7,19.8,10.2,19.8,10.2
				s11.7,23.1,20.9,27.3c9.2,4.2,25.4,13.3,32.6,12.9c7.2-0.4,16.5,0,24.3-1.2c7.8-1.2,17.7-4.8,18.3-12c0.6-7.2-0.9-19.1-15.2-29.4
				c-14.3-10.3-34.9-29.4-42.2-38.5c-7.3-9-14.4-28.8-14.1-33.1c0.3-4.2-1.8-8-2.4-10.9c-0.6-2.9-0.9-13.4-0.9-13.4
				s-0.8-13.4,0-15.9c0.8-2.5,3.3-27.7,0-32.2c-3.3-4.5-10.8-11.1-10.8-11.1l-4.2,0.8c0,0-2.2-5.5-5.5-5.9c-3.3-0.4-5.1-0.6-8.4-0.6
				C164.1,53.6,160.7,56,160.7,56"/>
		</defs>
		<clipPath id="SVGID_8_">
			<use xlink:href="#SVGID_7_"  overflow="visible"/>
		</clipPath>
		
			<linearGradient id="SVGID_9_" gradientUnits="userSpaceOnUse" x1="93.2195" y1="214.4969" x2="96.6334" y2="214.4969" gradientTransform="matrix(38.4469 0 0 -38.4469 -3443.3093 8402.249)">
			<stop  offset="0" style="stop-color:#231F20"/>
			<stop  offset="1" style="stop-color:#636467"/>
		</linearGradient>
		<rect x="141.5" y="53.6" clip-path="url(#SVGID_8_)" fill="url(#SVGID_9_)" width="130.1" height="203.9"/>
	</g>
	<g>
		<defs>
			<rect id="SVGID_10_" x="6.7" y="8" width="265.1" height="249.6"/>
		</defs>
		<clipPath id="SVGID_11_">
			<use xlink:href="#SVGID_10_"  overflow="visible"/>
		</clipPath>
		<path clip-path="url(#SVGID_11_)" fill="none" stroke="#231F20" stroke-width="0.367" d="M160.7,56c0,0-7.8,6.4-10,9.1
			c-2.3,2.7-4.7,4.5-4.1,12.2c0.6,7.6,1.2,28.7,1.2,28.7l-1.9,11.4l-1.7,4.1c0,0,0.6-1.8,1.5,4c0.9,5.8,0.9,8.1,0.9,11.4
			c0,3.4,1.2,13.5,1.2,13.5s-5.5,17.2-5.7,23.6c-0.2,6.4-0.6,16.6-0.6,19.3s7.5,10.5,13.5,13.2c6.1,2.7,19.8,10.2,19.8,10.2
			s11.7,23.1,20.9,27.3c9.2,4.2,25.4,13.3,32.6,12.9c7.2-0.4,16.5,0,24.3-1.2c7.8-1.2,17.7-4.8,18.3-12c0.6-7.2-0.9-19.1-15.2-29.4
			c-14.3-10.3-34.9-29.4-42.2-38.5c-7.3-9-14.4-28.8-14.1-33.1c0.3-4.2-1.8-8-2.4-10.9c-0.6-2.9-0.9-13.4-0.9-13.4s-0.8-13.4,0-15.9
			c0.8-2.5,3.3-27.7,0-32.2c-3.3-4.5-10.8-11.1-10.8-11.1l-4.2,0.8c0,0-2.2-5.5-5.5-5.9c-3.3-0.4-5.1-0.6-8.4-0.6
			C164.1,53.6,160.7,56,160.7,56z"/>
		<path clip-path="url(#SVGID_11_)" fill="#231F20" d="M179.5,60.1c0,0-3.3-5-7.8-5c-4.5,0-9.8,1.4-11.4,3.4s-2.6,4.5-0.5,5.4
			c2.1,0.9,4.9,0.4,8.4-0.6c3.5-1,5.5-2.4,7.5-2.4S179.5,60.1,179.5,60.1"/>
		<path clip-path="url(#SVGID_11_)" fill="none" stroke="#77787C" stroke-width="0.367" d="M179.5,60.1c0,0-3.3-5-7.8-5
			c-4.5,0-9.8,1.4-11.4,3.4s-2.6,4.5-0.5,5.4c2.1,0.9,4.9,0.4,8.4-0.6c3.5-1,5.5-2.4,7.5-2.4S179.5,60.1,179.5,60.1z"/>
		<path clip-path="url(#SVGID_11_)" fill="none" stroke="#77787C" stroke-width="0.367" d="M190.8,65.6c0,0-3.2-3-10.3,1.8
			c-7.1,4.8-17.5,9.3-20,12c-2.5,2.8-5,3.9-8.3,0.4c-3.3-3.4-4.8-4-4.4-6.5c0.5-2.5,0.6-4.9,0.6-4.9"/>
		
			<linearGradient id="SVGID_12_" gradientUnits="userSpaceOnUse" x1="101.6845" y1="209.7688" x2="105.0984" y2="209.7688" gradientTransform="matrix(8.1655 0 0 -8.1655 -601.2564 1951.9578)">
			<stop  offset="0" style="stop-color:#636467"/>
			<stop  offset="8.851117e-02" style="stop-color:#59595C"/>
			<stop  offset="0.2879" style="stop-color:#464446"/>
			<stop  offset="0.4831" style="stop-color:#373536"/>
			<stop  offset="0.6705" style="stop-color:#2C292A"/>
			<stop  offset="0.8466" style="stop-color:#252223"/>
			<stop  offset="1" style="stop-color:#231F20"/>
		</linearGradient>
		<path clip-path="url(#SVGID_11_)" fill="url(#SVGID_12_)" d="M247.9,254.6c0,0-0.1,0.3-0.1,0.5c0,0.1,0,0.1,0.1,0.1
			c0.2,0,0.7-0.6,2.2-2.7c1.7-2.5,2.7-4.9,2.7-7.1c0-1.8-0.7-3.5-2.2-5c-3.4-3.5-16.4-13.4-16.4-13.4l-4.2-4.2c0,0,0,0,0,0
			c0-0.1,0.2-0.4,2.2-0.4c2.5,0,6.2,1.6,10.1,3.7c3.9,2.1,9.8,6.3,11.1,8.4c1.1,1.8,2.8,6.3,2.8,10.1c0,0.6,0,1.1-0.1,1.6
			c-0.6,4.1-1.1,6.2-2.7,7.9l-1.6,1.7l0,0l1.6-1.7c1.6-1.7,2.1-3.8,2.7-7.9c0.1-0.5,0.1-1.1,0.1-1.6c0-3.9-1.7-8.3-2.8-10.1
			c-1.3-2.1-7.2-6.3-11.1-8.4c-3.9-2.1-7.6-3.7-10.1-3.7c-2,0-2.2,0.3-2.2,0.4c0,0,0,0,0,0l4.2,4.2c0,0,13.1,9.9,16.4,13.4
			c1.5,1.5,2.2,3.2,2.2,5c0,2.2-1,4.6-2.7,7.1c-1.5,2.2-2,2.7-2.2,2.7c0,0-0.1,0-0.1-0.1C247.8,255,247.9,254.6,247.9,254.6
			L247.9,254.6z"/>
	</g>
</g>
</svg>
