<?xml version="1.0" encoding="UTF-8" standalone="no"?>
<svg width="272px" height="306px" viewBox="0 0 272 306" version="1.1" xmlns="http://www.w3.org/2000/svg" xmlns:xlink="http://www.w3.org/1999/xlink">
    <!-- Generator: Sketch 40.3 (33839) - http://www.bohemiancoding.com/sketch -->
    <title>Group 10</title>
    <desc>Created with Sketch.</desc>
    <defs>
        <path d="M121.553234,2.92693483 C115.823907,7.52357097 99.5868365,9.58590988 99.5868365,14.1865121 C99.5868365,18.7871142 98.5961405,22.7531506 98.5961405,22.7531506 C98.5961405,22.7531506 85.2635201,21.8052679 69.9853158,29.4160917 C54.7071116,37.0308815 41.3426615,72.2492844 39.4289073,94.1418051 C37.5191318,116.038292 36.564244,137.926846 26.0604786,158.871485 C15.5606919,179.80819 12.6960286,213.122896 9.83136528,234.063568 C6.96670199,255.00424 4.10203869,264.526693 2.18828446,271.185668 C0.278508932,277.848609 1.2333967,277.848609 1.2333967,277.848609 C1.2333967,277.848609 18.4213765,280.704155 18.4213765,283.559702 C18.4213765,286.415248 45.1582339,230.414814 49.4552289,219.785837 C53.7522238,209.15686 63.3011014,166.482308 63.3011014,166.482308 L67.1206525,238.822811 C67.1206525,238.822811 70.7810556,250.244996 68.0755403,254.052391 C65.3700249,257.859786 63.3011014,272.613441 63.3011014,272.613441 C63.3011014,272.613441 56.6168871,285.939323 63.3011014,291.174491 C69.9853158,296.409659 101.019168,305.134939 134.917684,304.341732 C168.8162,303.548525 196.667093,296.885584 200.64977,294.030038 C204.624491,291.174491 206.534266,284.51155 206.534266,284.51155 C206.534266,284.51155 197.940276,276.896761 202.714715,271.185668 C207.489154,265.474576 192.688394,227.400627 192.688394,227.400627 L192.688394,198.849131 C192.688394,188.374829 201.759827,144.589788 201.759827,144.589788 L207.664217,130.312057 C207.664217,130.312057 219.584399,155.060124 224.517986,164.582577 C229.451573,174.097098 235.499195,186.79238 232.475384,205.190823 C229.451573,223.593232 234.281713,266.426425 234.281713,266.426425 L230.410439,276.896761 L228.496685,286.415248 L230.410439,292.447589 L244.411481,294.981886 L259.057072,301.648793 C259.057072,301.648793 263.827532,294.981886 264.304976,287.367097 C264.786399,279.752307 265.299651,263.570878 265.299651,263.570878 C265.299651,263.570878 274.733146,220.737686 270.515725,191.230375 C266.290347,161.723065 248.39018,109.371385 244.411481,94.1418051 C240.432782,78.9122255 233.907716,47.1879006 224.517986,38.938545 C215.128256,30.6852233 176.932746,18.9457557 176.932746,18.9457557 L160.699654,13.2346633 L153.06453,2.92693483 C153.06453,2.92693483 141.601898,0.880460072 132.26787,0.880460072 C127.596878,0.880460072 123.463009,1.39207876 121.553234,2.92693483 L121.553234,2.92693483 Z" id="path-1"></path>
        <linearGradient x1="84.9403453%" y1="11.8486722%" x2="35.936877%" y2="86.5376093%" id="linearGradient-3">
            <stop stop-color="#817F7F" offset="0%"></stop>
            <stop stop-color="#040404" offset="100%"></stop>
        </linearGradient>
        <linearGradient x1="50%" y1="0%" x2="50%" y2="100%" id="linearGradient-4">
            <stop stop-color="#7B7979" offset="0%"></stop>
            <stop stop-color="#221F20" offset="100%"></stop>
        </linearGradient>
        <linearGradient x1="50%" y1="0%" x2="50%" y2="100%" id="linearGradient-5">
            <stop stop-color="#FFFFFF" offset="0%"></stop>
            <stop stop-color="#000000" offset="100%"></stop>
        </linearGradient>
        <linearGradient x1="50%" y1="0%" x2="50%" y2="100%" id="linearGradient-6">
            <stop stop-color="#B0AEAE" offset="0%"></stop>
            <stop stop-color="#000000" offset="100%"></stop>
        </linearGradient>
        <linearGradient x1="50%" y1="0%" x2="50%" y2="100%" id="linearGradient-7">
            <stop stop-color="#313131" offset="0%"></stop>
            <stop stop-color="#000000" offset="100%"></stop>
        </linearGradient>
    </defs>
    <g id="Page-2" stroke="none" stroke-width="1" fill="none" fill-rule="evenodd">
        <g id="Gear" transform="translate(-103.000000, -5383.000000)">
            <g id="Group-10" transform="translate(103.000000, 5384.000000)">
                <g id="Group-3" transform="translate(136.000000, 152.779661) rotate(-360.000000) translate(-136.000000, -152.779661) translate(0.000000, 0.279661)">
                    <mask id="mask-2" fill="white">
                        <use xlink:href="#path-1"></use>
                    </mask>
                    <g id="Clip-2"></g>
                    <path d="M121.553234,2.92693483 C115.823907,7.52357097 99.5868365,9.58590988 99.5868365,14.1865121 L99.5868365,14.1865121 C99.5868365,18.7871142 98.5961405,22.7531506 98.5961405,22.7531506 L98.5961405,22.7531506 C98.5961405,22.7531506 85.2635201,21.8052679 69.9853158,29.4160917 L69.9853158,29.4160917 C54.7071116,37.0308815 41.3426615,72.2492844 39.4289073,94.1418051 L39.4289073,94.1418051 C37.5191318,116.038292 36.564244,137.926846 26.0604786,158.871485 L26.0604786,158.871485 C15.5606919,179.80819 12.6960286,213.122896 9.83136528,234.063568 L9.83136528,234.063568 C6.96670199,255.00424 4.10203869,264.526693 2.18828446,271.185668 L2.18828446,271.185668 C0.278508932,277.848609 1.2333967,277.848609 1.2333967,277.848609 L1.2333967,277.848609 C1.2333967,277.848609 18.4213765,280.704155 18.4213765,283.559702 L18.4213765,283.559702 C18.4213765,286.415248 45.1582339,230.414814 49.4552289,219.785837 L49.4552289,219.785837 C53.7522238,209.15686 63.3011014,166.482308 63.3011014,166.482308 L63.3011014,166.482308 L67.1206525,238.822811 C67.1206525,238.822811 70.7810556,250.244996 68.0755403,254.052391 L68.0755403,254.052391 C65.3700249,257.859786 63.3011014,272.613441 63.3011014,272.613441 L63.3011014,272.613441 C63.3011014,272.613441 56.6168871,285.939323 63.3011014,291.174491 L63.3011014,291.174491 C69.9853158,296.409659 101.019168,305.134939 134.917684,304.341732 L134.917684,304.341732 C168.8162,303.548525 196.667093,296.885584 200.64977,294.030038 L200.64977,294.030038 C204.624491,291.174491 206.534266,284.51155 206.534266,284.51155 L206.534266,284.51155 C206.534266,284.51155 197.940276,276.896761 202.714715,271.185668 L202.714715,271.185668 C207.489154,265.474576 192.688394,227.400627 192.688394,227.400627 L192.688394,227.400627 L192.688394,198.849131 C192.688394,188.374829 201.759827,144.589788 201.759827,144.589788 L201.759827,144.589788 L207.664217,130.312057 C207.664217,130.312057 219.584399,155.060124 224.517986,164.582577 L224.517986,164.582577 C229.451573,174.097098 235.499195,186.79238 232.475384,205.190823 L232.475384,205.190823 C229.451573,223.593232 234.281713,266.426425 234.281713,266.426425 L234.281713,266.426425 L230.410439,276.896761 L228.496685,286.415248 L230.410439,292.447589 L244.411481,294.981886 L259.057072,301.648793 C259.057072,301.648793 263.827532,294.981886 264.304976,287.367097 L264.304976,287.367097 C264.786399,279.752307 265.299651,263.570878 265.299651,263.570878 L265.299651,263.570878 C265.299651,263.570878 274.733146,220.737686 270.515725,191.230375 L270.515725,191.230375 C266.290347,161.723065 248.39018,109.371385 244.411481,94.1418051 L244.411481,94.1418051 C240.432782,78.9122255 233.907716,47.1879006 224.517986,38.938545 L224.517986,38.938545 C215.128256,30.6852233 176.932746,18.9457557 176.932746,18.9457557 L176.932746,18.9457557 L160.699654,13.2346633 L153.06453,2.92693483 C153.06453,2.92693483 141.601898,0.880460072 132.26787,0.880460072 L132.26787,0.880460072 C127.596878,0.880460072 123.463009,1.39207876 121.553234,2.92693483" id="Fill-1" mask="url(#mask-2)"></path>
                </g>
                <path d="M153.061347,3.20342283 C153.061347,3.20342283 127.279377,-1.39717935 121.550051,3.20342283 C115.820724,7.804025 99.5876323,9.86636391 99.5876323,14.4669661 C99.5876323,19.0675683 98.5929575,23.0336046 98.5929575,23.0336046 C98.5929575,23.0336046 85.2643158,22.0817559 69.9861115,29.6965457 C54.7079073,37.3113355 41.3394786,72.5297384 39.4297031,94.4222591 C37.5199275,116.31478 36.5650398,138.207301 26.0612743,159.147972 C15.5575089,180.088644 12.6928456,213.40335 9.82818233,234.344022 C6.96351903,255.284694 4.09885573,264.803181 2.1890802,271.466122 C0.279304671,278.129063 1.23419244,278.129063 1.23419244,278.129063 C1.23419244,278.129063 18.4221722,280.984609 18.4221722,283.840156 C18.4221722,286.695702 45.1590296,230.695268 49.4560246,220.066291 C53.7530195,209.437314 63.3018972,166.762762 63.3018972,166.762762 L67.1214483,239.103266 C67.1214483,239.103266 70.7818514,250.52545 68.076336,254.332845 C65.3708207,258.14024 63.3018972,272.893895 63.3018972,272.893895 C63.3018972,272.893895 56.6176828,286.219777 63.3018972,291.454945 C69.9861115,296.690113 101.019964,305.415393 134.91848,304.622186 C168.816995,303.828979 196.667888,297.166038 200.646587,294.310492 C204.625286,291.454945 206.535062,284.792004 206.535062,284.792004 C206.535062,284.792004 197.941072,277.177215 202.715511,271.466122 C207.48995,265.75503 192.689189,227.681081 192.689189,227.681081 L192.689189,199.125619 C192.689189,188.655283 201.760623,144.870242 201.760623,144.870242 L207.665013,130.592511 C207.665013,130.592511 219.585195,155.340578 224.518782,164.859065 C229.452368,174.377552 235.499991,187.068868 232.47618,205.471277 C229.452368,223.873686 234.282509,266.706879 234.282509,266.706879 L230.407256,277.177215 L228.497481,286.695702 L230.407256,292.724077 L244.412277,295.26234 L259.053889,301.925281 C259.053889,301.925281 263.828328,295.26234 264.305772,287.647551 C264.783216,280.032761 265.300447,263.851332 265.300447,263.851332 C265.300447,263.851332 274.733942,221.01814 270.512542,191.510829 C266.291143,162.003519 248.390976,109.651839 244.412277,94.4222591 C240.433578,79.1926795 233.908511,47.4643886 224.518782,39.215033 C215.129052,30.9656773 176.933541,19.2262097 176.933541,19.2262097 L160.700449,13.5151174 L153.061347,3.20342283 L153.061347,3.20342283 Z" id="Stroke-4" stroke="url(#linearGradient-4)" stroke-width="0.5" fill="url(#linearGradient-3)" transform="translate(136.297596, 152.915728) rotate(-360.000000) translate(-136.297596, -152.915728) "></path>
                <path d="M99.5876323,26.999641 C99.5876323,26.999641 83.0362443,43.9742766 105.157811,43.9742766 C127.279377,43.9742766 161.496189,36.3594868 166.827646,19.2262097" id="Stroke-6" stroke="url(#linearGradient-5)" stroke-width="0.5" transform="translate(130.234110, 31.600243) rotate(-360.000000) translate(-130.234110, -31.600243) "></path>
                <path d="M91.2323643,37.7872599 L67.5988921,63.9630999 C67.5988921,63.9630999 52.3206879,71.5778897 51.843244,77.7649064 C51.3658001,83.9519231 48.5011368,149.153561 48.5011368,149.153561 C48.5011368,149.153561 37.9973714,180.564569 34.6552642,194.366375 C31.313157,208.168182 24.1514988,243.386585 24.1514988,243.386585 C24.1514988,243.386585 11.260514,238.151417 10.7830701,230.060703 C10.3056262,221.969988 9.78839534,219.590367 9.78839534,219.590367" id="Stroke-8" stroke="url(#linearGradient-6)" stroke-width="0.5" transform="translate(50.510380, 140.586922) rotate(-360.000000) translate(-50.510380, -140.586922) "></path>
                <path d="M153.061347,37.1241386 L161.655337,63.0104579 C161.655337,63.0104579 192.211746,57.2993656 199.850848,70.1493234 C207.48995,82.9992812 216.08394,117.265835 222.768154,137.730583 C229.452368,158.195331 237.09147,172.948986 237.09147,172.948986 L243.775685,200.552599 L247.117792,256.711674 C247.117792,256.711674 259.531333,250.603978 264.305772,242.909867 C269.080211,235.215757 269.557655,227.680288 269.557655,227.680288" id="Stroke-10" stroke="url(#linearGradient-7)" stroke-width="0.5" transform="translate(211.309501, 146.917906) rotate(-360.000000) translate(-211.309501, -146.917906) "></path>
                <path d="M99.5876323,13.5151174 C99.5876323,13.5151174 98.1553006,19.2262097 106.749291,21.1299072 C115.34328,23.0336046 114.865837,25.2625171 124.414714,22.09762 C133.963592,18.932723 144.944801,9.15247737 146.377133,9.15247737 C147.809464,9.15247737 152.118395,6.24140668 152.118395,3.20342283 C152.118395,0.165438975 146.854577,0.165438975 146.854577,0.165438975 L123.459826,5.90032755 L113.433505,9.15247737 L101.497408,11.9247368 L99.5876323,13.5151174 L99.5876323,13.5151174 Z" id="Stroke-12" stroke="#76787A" stroke-width="0.5" transform="translate(125.808254, 11.925488) rotate(-360.000000) translate(-125.808254, -11.925488) "></path>
            </g>
        </g>
    </g>
</svg>