<?xml version="1.0" encoding="utf-8"?>
<!-- Generator: Adobe Illustrator 18.0.0, SVG Export Plug-In . SVG Version: 6.00 Build 0)  -->
<!DOCTYPE svg PUBLIC "-//W3C//DTD SVG 1.1//EN" "http://www.w3.org/Graphics/SVG/1.1/DTD/svg11.dtd">
<svg version="1.1" id="Layer_1" xmlns="http://www.w3.org/2000/svg" xmlns:xlink="http://www.w3.org/1999/xlink" x="0px" y="0px"
	 viewBox="0 0 275 400" enable-background="new 0 0 275 400" xml:space="preserve">
<g>
	<g>
		<defs>
			<path id="SVGID_1_" d="M117,21.3l-1.2,5.3c0,0-2.4,6.5-7.7,10S89.9,40.6,74,48.3c-15.9,7.8-19.6,19.5-24.1,39.3
				c-4.5,19.7-5.9,40.5-13.5,54c-7.7,13.4-17.7,51.7-17.7,67s-1.2,40.9-1.2,40.9l0.9,11.5c0,0,2.7,2.6,11.5,0.1
				c8.8-2.5,10.6-4.2,10.6-4.2s-2.7-20.5,2.5-33.6c5.2-13.1,8.5-28.9,12.9-42.4c4.3-13.5,2.4-19.4,2.4-19.4l12.4-24.7l1.8-1.8
				c0,0,4.1,38.3,3.5,52.4c-0.6,14.1-5.4,44.2-9.2,76c-3.8,31.8-1,108.5,11,113.7c12,5.2,39.4,3.4,39.4,3.4s5.3-44.2,7.1-51.2
				s4.7-18.5,4.7-18.5l14.7,77.3c0,0,25.1-0.4,34.4-3.7c9.2-3.3,10.4-6.9,10.4-6.9s4.1-81.9,1.2-93.1c-2.9-11.2-3.8-38.3-6.5-64.2
				c-2.7-25.9-7.1-51.8-1.8-63c5.3-11.2,13.8-34.7,13.8-34.7s22.1,43,22.1,45.9v39.3c0,20.2-4.7,61.3-4.7,61.3s4.7,4.2,14.7,4.2
				c10,0,11.2-2.4,11.2-2.4s11.8-72.9,12.4-88.9c0.6-16-10.9-50.1-11.2-54.2c-0.3-4.1-10.6-27.3-13.5-42.4s-3.5-31.2-23-38.9
				s-36.6-7.8-39.5-14.1c-2.9-6.3-5.9-11.8-5.9-11.8s-4.7-0.6-17.7-0.6S117,21.3,117,21.3"/>
		</defs>
		<clipPath id="SVGID_2_">
			<use xlink:href="#SVGID_1_"  overflow="visible"/>
		</clipPath>
		
			<linearGradient id="SVGID_3_" gradientUnits="userSpaceOnUse" x1="81.476" y1="256.0551" x2="86.3837" y2="256.0551" gradientTransform="matrix(66.4191 -24.1746 -24.1746 -66.4191 749.614 19240.2168)">
			<stop  offset="0" style="stop-color:#231F20"/>
			<stop  offset="0.4231" style="stop-color:#242021"/>
			<stop  offset="0.5756" style="stop-color:#272425"/>
			<stop  offset="0.6843" style="stop-color:#2D2A2B"/>
			<stop  offset="0.7721" style="stop-color:#353334"/>
			<stop  offset="0.8474" style="stop-color:#3F3D3F"/>
			<stop  offset="0.914" style="stop-color:#4C4B4C"/>
			<stop  offset="0.9727" style="stop-color:#5B5B5D"/>
			<stop  offset="1" style="stop-color:#636467"/>
		</linearGradient>
		<polygon clip-path="url(#SVGID_2_)" fill="url(#SVGID_3_)" points="-100.8,63.2 224,-55 369.6,345.2 44.8,463.4 		"/>
	</g>
	<g>
		<defs>
			<rect id="SVGID_4_" x="16.7" y="19.4" width="234.8" height="369.6"/>
		</defs>
		<clipPath id="SVGID_5_">
			<use xlink:href="#SVGID_4_"  overflow="visible"/>
		</clipPath>
		
			<linearGradient id="SVGID_6_" gradientUnits="userSpaceOnUse" x1="81.6145" y1="257.0827" x2="86.5222" y2="257.0827" gradientTransform="matrix(47.8348 0 0 -47.8348 -3887.2886 12501.709)">
			<stop  offset="0" style="stop-color:#231F20"/>
			<stop  offset="0.2965" style="stop-color:#242121"/>
			<stop  offset="0.4623" style="stop-color:#282526"/>
			<stop  offset="0.5958" style="stop-color:#2F2C2D"/>
			<stop  offset="0.7122" style="stop-color:#383637"/>
			<stop  offset="0.8174" style="stop-color:#444244"/>
			<stop  offset="0.913" style="stop-color:#525254"/>
			<stop  offset="1" style="stop-color:#636467"/>
		</linearGradient>
		<path clip-path="url(#SVGID_5_)" fill="url(#SVGID_6_)" d="M115.9,26.7L115.9,26.7c0,0-2.4,6.5-7.7,10
			c-5.3,3.5-18.3,3.9-34.2,11.7c-15.9,7.8-19.6,19.5-24.1,39.3c-4.5,19.7-5.9,40.5-13.5,54c-7.7,13.4-17.7,51.7-17.7,67
			c0,15.3-1.2,40.9-1.2,40.9l0.9,11.5c0,0,1.2,1.2,4.7,1.2c1.7,0,3.9-0.3,6.8-1.1c8.8-2.5,10.6-4.2,10.6-4.2s-0.7-5.4-0.7-12.5
			c0-6.7,0.6-14.8,3.2-21.1c5.2-13.1,8.5-28.9,12.9-42.4c2.3-7.1,2.8-12.1,2.8-15.2c0-2.9-0.4-4.2-0.4-4.2l12.4-24.7l1.8-1.8
			c0,0,3.6,33.3,3.6,49.3c0,1.1,0,2.2-0.1,3.1c-0.6,14.1-5.4,44.2-9.2,76c-1,8.7-1.6,20.7-1.6,33.8c0,34.6,3.8,76.2,12.5,80
			c7.1,3.1,19.8,3.7,28.8,3.7c6.1,0,10.6-0.3,10.6-0.3s5.3-44.2,7.1-51.2c1.8-7.1,4.7-18.5,4.7-18.5l14.7,77.3
			c0,0,25.1-0.4,34.4-3.7c9.2-3.3,10.4-6.9,10.4-6.9s2.2-44.4,2.2-72.3c0-10-0.3-17.8-1.1-20.8c-2.9-11.2-3.8-38.3-6.5-64.2
			c-1.7-17.1-4.3-34.1-4.3-47c0-6.7,0.7-12.2,2.5-16c5.3-11.2,13.8-34.7,13.8-34.7s22.1,43,22.1,45.9v39.3c0,20.2-4.7,61.3-4.7,61.3
			c0,0,4.7,4.2,14.7,4.2c10,0,11.2-2.4,11.2-2.4s11.8-72.9,12.4-88.9c0-0.4,0-0.8,0-1.2c0-16.5-10.9-48.9-11.2-52.9
			c-0.3-4.1-10.6-27.3-13.5-42.4c-2.9-15.1-3.5-31.2-23-38.9c-19.4-7.7-36.6-7.8-39.5-14.1c-2.8-6.3-5.9-11.8-5.9-11.8
			c0,0-4.7-0.6-17.7-0.6c-13,0-23,1.2-23,1.2L115.9,26.7L115.9,26.7L115.9,26.7l1.2-5.3c0,0,10-1.2,23-1.2s17.7,0.6,17.7,0.6
			c0,0,3,5.5,5.9,11.8c2.8,6.3,20,6.5,39.5,14.1c19.4,7.7,20,23.8,23,38.9c2.9,15.1,13.3,38.3,13.5,42.4c0.3,4,11.2,36.5,11.2,52.9
			c0,0.4,0,0.8,0,1.2c-0.6,16-12.4,88.9-12.4,88.9c0,0-1.2,2.4-11.2,2.4c-10,0-14.7-4.2-14.7-4.2c0,0,4.7-41.1,4.7-61.3v-39.3
			c0-2.9-22.1-45.9-22.1-45.9c0,0-8.5,23.6-13.8,34.7c-1.8,3.8-2.5,9.4-2.5,16c0,12.9,2.5,29.9,4.3,47c2.7,25.9,3.5,53,6.5,64.2
			c0.8,2.9,1.1,10.8,1.1,20.8c0,27.9-2.2,72.3-2.2,72.3c0,0-1.2,3.5-10.4,6.9s-34.4,3.7-34.4,3.7l-14.7-77.3c0,0-2.9,11.4-4.7,18.5
			c-1.8,7.1-7.1,51.2-7.1,51.2c0,0-4.5,0.3-10.6,0.3c-9,0-21.7-0.6-28.8-3.7c-8.7-3.8-12.5-45.3-12.5-80c0-13,0.5-25.1,1.6-33.8
			c3.8-31.8,8.6-61.9,9.2-76c0-0.9,0.1-2,0.1-3.1c0-15.9-3.6-49.3-3.6-49.3l-1.8,1.8l-12.4,24.7c0,0,0.4,1.3,0.4,4.2
			c0,3.1-0.5,8.1-2.8,15.2c-4.3,13.5-7.7,29.3-12.9,42.4c-2.5,6.3-3.2,14.5-3.2,21.1c0,7,0.7,12.5,0.7,12.5s-1.8,1.8-10.6,4.2
			c-2.9,0.8-5.1,1.1-6.8,1.1c-3.5,0-4.7-1.2-4.7-1.2l-0.9-11.5c0,0,1.2-25.6,1.2-40.9s10-53.6,17.7-67c7.7-13.4,9-34.3,13.5-54
			S58.1,56.1,74,48.3c15.9-7.8,28.9-8.1,34.2-11.7C113.5,33.1,115.9,26.7,115.9,26.7L115.9,26.7z"/>
		<path clip-path="url(#SVGID_5_)" fill="none" stroke="#77787C" stroke-width="0.5" d="M118.6,25.7c0,0,15.1,9,36,0.6"/>
		<path clip-path="url(#SVGID_5_)" fill="none" stroke="#77787C" stroke-width="0.5" d="M75.2,69.6c0,0-7.1,9.8-7.1,20
			c0,10.2-1.1,10.6,1.2,23s5.8,26.4,9.3,42.3"/>
	</g>
	<g>
		<defs>
			<path id="SVGID_7_" d="M161.6,41.6l-4.1,2.4c0,0,24.2,7.1,31.8,15.3c7.7,8.2,14.1,11.2,16.5,22.4c2.4,11.2,5.3,30.6,12.4,40.3
				s15.3,20.3,14.1,32.7c-1.2,12.4,1.3,54.5,1.3,54.5l1.2,4.4c0,0,8-42.4,7.4-51.8c-0.6-9.4-11.2-31.6-11.2-38.3
				s-4.7-43.1-14.7-54.2c-10-11.1-13.5-19.5-30.6-24.1c-11.7-3.1-18.7-3.6-21.9-3.6C162.3,41.5,161.6,41.6,161.6,41.6"/>
		</defs>
		<clipPath id="SVGID_8_">
			<use xlink:href="#SVGID_7_"  overflow="visible"/>
		</clipPath>
		
			<linearGradient id="SVGID_9_" gradientUnits="userSpaceOnUse" x1="85.384" y1="261.1079" x2="90.2918" y2="261.1079" gradientTransform="matrix(18.171 0 0 -18.171 -1397.1439 4872.0801)">
			<stop  offset="0" style="stop-color:#231F20"/>
			<stop  offset="1" style="stop-color:#636467"/>
		</linearGradient>
		<rect x="157.5" y="41.5" clip-path="url(#SVGID_8_)" fill="url(#SVGID_9_)" width="85.4" height="172.1"/>
	</g>
	<g>
		<defs>
			<rect id="SVGID_10_" x="16.7" y="19.4" width="234.8" height="369.6"/>
		</defs>
		<clipPath id="SVGID_11_">
			<use xlink:href="#SVGID_10_"  overflow="visible"/>
		</clipPath>
		
			<linearGradient id="SVGID_12_" gradientUnits="userSpaceOnUse" x1="85.384" y1="261.1078" x2="90.2918" y2="261.1078" gradientTransform="matrix(18.171 0 0 -18.171 -1397.1473 4872.0908)">
			<stop  offset="0" style="stop-color:#636467"/>
			<stop  offset="0.1887" style="stop-color:#616265"/>
			<stop  offset="0.3593" style="stop-color:#5C5D5F"/>
			<stop  offset="0.5229" style="stop-color:#535355"/>
			<stop  offset="0.6822" style="stop-color:#474647"/>
			<stop  offset="0.8383" style="stop-color:#383537"/>
			<stop  offset="0.9902" style="stop-color:#252122"/>
			<stop  offset="1" style="stop-color:#231F20"/>
		</linearGradient>
		<path clip-path="url(#SVGID_11_)" fill="url(#SVGID_12_)" d="M161.6,41.6L161.6,41.6l-4.1,2.4c0,0,24.1,7.1,31.8,15.3
			c7.7,8.2,14.1,11.2,16.5,22.4c2.4,11.2,5.3,30.6,12.4,40.3c6.6,9.1,14.2,18.9,14.2,30.3c0,0.8,0,1.6-0.1,2.4
			c-0.2,2.3-0.3,5.8-0.3,9.8c0,17.1,1.7,44.7,1.7,44.7l1.2,4.4c0,0,7.5-39.5,7.5-50.7c0-0.4,0-0.8,0-1.1
			c-0.6-9.4-11.2-31.6-11.2-38.3c0-6.7-4.7-43.1-14.7-54.2c-10-11.1-13.5-19.5-30.6-24.1c-11.7-3.1-18.7-3.6-21.9-3.6
			C162.3,41.5,161.6,41.6,161.6,41.6L161.6,41.6L161.6,41.6c0,0,0.7-0.1,2.2-0.1c3.3,0,10.3,0.5,21.9,3.6
			c17.1,4.6,20.6,13.1,30.6,24.1c10,11.1,14.7,47.5,14.7,54.2c0,6.7,10.6,28.9,11.2,38.3c0,0.3,0,0.7,0,1.1
			c0,11.2-7.5,50.7-7.5,50.7l-1.2-4.4c0,0-1.7-27.7-1.7-44.7c0-4,0.1-7.4,0.3-9.8c0.1-0.8,0.1-1.6,0.1-2.4
			c0-11.4-7.6-21.2-14.2-30.3c-7.1-9.7-10-29.2-12.4-40.3c-2.4-11.2-8.8-14.1-16.5-22.4c-7.7-8.2-31.8-15.3-31.8-15.3L161.6,41.6
			L161.6,41.6z"/>
	</g>
</g>
</svg>
