<?xml version="1.0" encoding="utf-8"?>
<!-- Generator: Adobe Illustrator 18.0.0, SVG Export Plug-In . SVG Version: 6.00 Build 0)  -->
<!DOCTYPE svg PUBLIC "-//W3C//DTD SVG 1.1//EN" "http://www.w3.org/Graphics/SVG/1.1/DTD/svg11.dtd">
<svg version="1.1" id="Layer_1" xmlns="http://www.w3.org/2000/svg" xmlns:xlink="http://www.w3.org/1999/xlink" x="0px" y="0px"
	 viewBox="0 0 275 275" enable-background="new 0 0 275 275" xml:space="preserve">
<g>
	<g>
		<defs>
			<path id="SVGID_1_" d="M99.2,10.5c-38.8,12.3-35,91.6-36.9,106.9c-1.9,15.3,14.5,30.8,14.5,44.5c0,13.7-9.4,34.3-13.9,40
				s-11.4,8.3-11.4,8.3s7,17.3,21.6,31.8c14.6,14.5,42,26.7,66.1,27.3c24.2,0.6,42-31.8,42-31.8v-46.4c0,0,3.2-7,10.2-16.4
				c7-9.4,8.9-24.3,13.3-45.2c4.4-21,0-53.4,0-53.4l4.6-1.3c0,0-2.6-5-4.6-8.7c-1.9-3.7-8.7-31.8-22.9-49.2
				c-8.1-9.8-21-14.5-37.8-14.5C131.1,2.4,116,5.1,99.2,10.5"/>
		</defs>
		<clipPath id="SVGID_2_">
			<use xlink:href="#SVGID_1_"  overflow="visible"/>
		</clipPath>
		
			<linearGradient id="SVGID_3_" gradientUnits="userSpaceOnUse" x1="92.3855" y1="213.1173" x2="95.0339" y2="213.1173" gradientTransform="matrix(80.7831 -80.7831 -80.7831 -80.7831 9776.7051 24922.375)">
			<stop  offset="0" style="stop-color:#231F20"/>
			<stop  offset="0.159" style="stop-color:#252223"/>
			<stop  offset="0.3334" style="stop-color:#2C292A"/>
			<stop  offset="0.5153" style="stop-color:#363435"/>
			<stop  offset="0.7022" style="stop-color:#444344"/>
			<stop  offset="0.8912" style="stop-color:#565759"/>
			<stop  offset="1" style="stop-color:#636467"/>
		</linearGradient>
		<polygon clip-path="url(#SVGID_2_)" fill="url(#SVGID_3_)" points="-82.2,136.1 130.4,-76.5 343,136.1 130.4,348.8 		"/>
	</g>
	<g>
		<defs>
			<rect id="SVGID_4_" x="50.7" y="1.7" width="159.6" height="268.2"/>
		</defs>
		<clipPath id="SVGID_5_">
			<use xlink:href="#SVGID_4_"  overflow="visible"/>
		</clipPath>
		
			<linearGradient id="SVGID_6_" gradientUnits="userSpaceOnUse" x1="92.2975" y1="214.2809" x2="94.9459" y2="214.2809" gradientTransform="matrix(60.2554 0 0 -60.2554 -5510.7524 13047.4004)">
			<stop  offset="0" style="stop-color:#231F20"/>
			<stop  offset="1" style="stop-color:#636467"/>
		</linearGradient>
		<path clip-path="url(#SVGID_5_)" fill="url(#SVGID_6_)" d="M181.2,237.5L181.2,237.5c0,0-17.5,31.8-41.2,31.8c-0.2,0-0.5,0-0.7,0
			c-24.2-0.6-51.5-12.8-66.1-27.3c-14.6-14.5-21.6-31.8-21.6-31.8s7-2.5,11.4-8.3s13.9-26.4,13.9-40c0-12.9-14.7-27.5-14.7-42
			c0-0.8,0-1.7,0.2-2.5c1.9-15.3-1.9-94.6,36.9-106.9C116,5.1,131.1,2.4,144,2.4c16.8,0,29.8,4.7,37.8,14.5
			c14.3,17.4,21,45.5,22.9,49.2c1.9,3.7,4.6,8.7,4.6,8.7l-4.6,1.3c0,0,2,14.4,2,30.2c0,7.9-0.5,16.2-2,23.2
			c-4.4,21-6.4,35.8-13.3,45.2c-7,9.4-10.2,16.4-10.2,16.4V237.5L181.2,237.5L181.2,237.5v-46.4c0,0,3.2-7,10.2-16.4
			c7-9.4,8.9-24.3,13.3-45.2c1.5-7,2-15.3,2-23.2c0-15.8-2-30.2-2-30.2l4.6-1.3c0,0-2.6-5-4.6-8.7c-1.9-3.7-8.7-31.8-22.9-49.2
			C173.7,7.1,160.7,2.4,144,2.4c-12.8,0-27.9,2.8-44.7,8.1c-38.8,12.3-35,91.6-36.9,106.9c-0.1,0.8-0.2,1.7-0.2,2.5
			c0,14.4,14.7,29.1,14.7,42c0,13.7-9.4,34.3-13.9,40c-4.4,5.7-11.4,8.3-11.4,8.3s7,17.3,21.6,31.8s42,26.7,66.1,27.3
			c0.2,0,0.5,0,0.7,0C163.8,269.3,181.2,237.5,181.2,237.5L181.2,237.5z"/>
	</g>
	<g>
		<defs>
			<path id="SVGID_7_" d="M180.6,60.9c-24.2,2.5-72.5,7.6-78.2,14c-5.7,6.4-15.9,58.1,10.2,78.6c26.1,20.6,40,26.3,54.7,23.1
				c14.6-3.2,26.6-18,31.5-35s4.1-69.1,4.1-69.1s1.6-11.8-16.8-11.8C184.4,60.6,182.6,60.7,180.6,60.9"/>
		</defs>
		<clipPath id="SVGID_8_">
			<use xlink:href="#SVGID_7_"  overflow="visible"/>
		</clipPath>
		
			<linearGradient id="SVGID_9_" gradientUnits="userSpaceOnUse" x1="91.9652" y1="213.5968" x2="94.6137" y2="213.5968" gradientTransform="matrix(42.8096 42.8096 42.8096 -42.8096 -12990.9453 5271.7539)">
			<stop  offset="0" style="stop-color:#231F20"/>
			<stop  offset="0.224" style="stop-color:#252122"/>
			<stop  offset="0.3931" style="stop-color:#292627"/>
			<stop  offset="0.5442" style="stop-color:#312E2F"/>
			<stop  offset="0.6848" style="stop-color:#3B3A3B"/>
			<stop  offset="0.8182" style="stop-color:#49484A"/>
			<stop  offset="0.9443" style="stop-color:#5A5B5D"/>
			<stop  offset="1" style="stop-color:#636467"/>
		</linearGradient>
		<polygon clip-path="url(#SVGID_8_)" fill="url(#SVGID_9_)" points="145.5,1.6 264,120.2 145.5,238.7 26.9,120.2 		"/>
	</g>
	<g>
		<defs>
			<rect id="SVGID_10_" x="50.7" y="1.7" width="159.6" height="268.2"/>
		</defs>
		<clipPath id="SVGID_11_">
			<use xlink:href="#SVGID_10_"  overflow="visible"/>
		</clipPath>
		
			<linearGradient id="SVGID_12_" gradientUnits="userSpaceOnUse" x1="92.639" y1="214.4466" x2="95.2875" y2="214.4466" gradientTransform="matrix(41.0134 0 0 -41.0134 -3704.5474 8914.1602)">
			<stop  offset="0" style="stop-color:#231F20"/>
			<stop  offset="1" style="stop-color:#636467"/>
		</linearGradient>
		<path clip-path="url(#SVGID_11_)" fill="url(#SVGID_12_)" d="M202.8,72.4L202.8,72.4c0,0,0-0.3,0-0.7c0-2.6-1.2-11.1-16.8-11.1
			c-1.7,0-3.5,0.1-5.5,0.3c-24.2,2.5-72.5,7.6-78.2,14c-2.9,3.2-6.8,17.7-6.8,34c0,16.3,4,34.4,17,44.6c21.7,17.1,35,23.9,47.2,23.9
			c2.5,0,4.9-0.3,7.4-0.8c14.6-3.2,26.6-18,31.5-35c3.7-13.3,4.2-47.6,4.2-62.3C202.9,75,202.8,72.4,202.8,72.4L202.8,72.4
			L202.8,72.4c0,0,0,2.6,0,6.9c0,14.7-0.4,49-4.2,62.3c-4.8,17.1-16.8,31.9-31.5,35c-2.5,0.5-4.9,0.8-7.4,0.8
			c-12.3,0-25.6-6.8-47.2-23.9c-13-10.3-17-28.3-17-44.6c0-16.3,4-30.8,6.8-34c5.7-6.4,54-11.4,78.2-14c2-0.2,3.8-0.3,5.5-0.3
			c15.6,0,16.8,8.6,16.8,11.1C202.9,72.1,202.8,72.4,202.8,72.4L202.8,72.4z"/>
	</g>
	<g>
		<defs>
			<path id="SVGID_13_" d="M94.9,72.4l-0.5,4.3c0,0,54.4-10.7,72.9-12c18.4-1.3,36.3,2.6,36.3,7.7c0,5.1,6.7,5.1,6.7,5.1L197.7,52
				c0,0-18.6-18.9-44.1-18.9C136.1,33.1,115.2,42.1,94.9,72.4"/>
		</defs>
		<clipPath id="SVGID_14_">
			<use xlink:href="#SVGID_13_"  overflow="visible"/>
		</clipPath>
		
			<linearGradient id="SVGID_15_" gradientUnits="userSpaceOnUse" x1="92.6484" y1="214.9184" x2="95.2969" y2="214.9184" gradientTransform="matrix(44.4575 0 0 -44.4575 -4025.3518 9610.0439)">
			<stop  offset="0" style="stop-color:#231F20"/>
			<stop  offset="1" style="stop-color:#636467"/>
		</linearGradient>
		<rect x="94.3" y="33.1" clip-path="url(#SVGID_14_)" fill="url(#SVGID_15_)" width="115.9" height="44.4"/>
	</g>
	<g>
		<defs>
			<rect id="SVGID_16_" x="50.7" y="1.7" width="159.6" height="268.2"/>
		</defs>
		<clipPath id="SVGID_17_">
			<use xlink:href="#SVGID_16_"  overflow="visible"/>
		</clipPath>
		
			<linearGradient id="SVGID_18_" gradientUnits="userSpaceOnUse" x1="92.322" y1="213.1828" x2="94.9704" y2="213.1828" gradientTransform="matrix(39.9226 0 0 -39.9226 -3610.543 8691.8516)">
			<stop  offset="0" style="stop-color:#231F20"/>
			<stop  offset="1" style="stop-color:#636467"/>
		</linearGradient>
		<path clip-path="url(#SVGID_17_)" fill="url(#SVGID_18_)" d="M75.7,158.1c0,0,39.1,45.8,64.6,45.8c0.5,0,1,0,1.5-0.1
			c25.4-1.9,37.5-12.7,37.5-12.7l0.4-0.6l0.5-1.9l0,0l-0.5,1.9l-0.4,0.6c0,0-12.1,10.8-37.5,12.7c-0.5,0-1,0.1-1.5,0.1
			C114.8,203.9,75.7,158.1,75.7,158.1L75.7,158.1z"/>
	</g>
</g>
</svg>
